<svg xmlns="http://www.w3.org/2000/svg" width="499" height="220" viewBox="0 0 499 220">
  <g id="Grupo_969871" data-name="Grupo 969871" transform="translate(-233 -1671)">
    <g id="Trazado_726474" data-name="Trazado 726474" transform="translate(267 1671)" fill="none" stroke-dasharray="6">
      <path d="M215.077,0,430.154,187H0Z" stroke="none"/>
      <path d="M 224.1326904296875 7.873611450195312 C 224.1326904296875 7.873611450195312 228.6605377197266 11.81039428710938 228.6605377197266 11.81039428710938 L 228.0044250488281 12.56500244140625 L 223.4765319824219 8.628219604492188 L 224.1326904296875 7.873611450195312 Z M 233.1884155273438 15.74716186523438 C 233.1884155273438 15.74716186523438 233.6291046142578 16.13032531738281 234.2356262207031 16.65766906738281 L 234.2410583496094 16.66238403320312 C 234.2544860839844 16.67405700683594 234.2679901123047 16.68580627441406 234.2815704345703 16.69761657714844 L 234.2872924804688 16.70259094238281 C 234.2936859130859 16.70814514160156 234.3001556396484 16.71377563476562 234.3065795898438 16.71934509277344 L 234.3090972900391 16.72154235839844 C 234.3122406005859 16.72427368164062 234.3154602050781 16.72706604003906 234.318603515625 16.72981262207031 L 234.3354949951172 16.74449157714844 C 234.3415985107422 16.74980163574219 234.3477478027344 16.75515747070312 234.3538818359375 16.76048278808594 L 234.3555450439453 16.76191711425781 C 234.3603210449219 16.76608276367188 234.3650207519531 16.77017211914062 234.3698272705078 16.77433776855469 L 237.7162933349609 19.6839599609375 L 237.0601959228516 20.43861389160156 L 232.5323028564453 16.5018310546875 L 233.1884155273438 15.74716186523438 Z M 242.2442016601562 23.62077331542969 C 242.2442016601562 23.62077331542969 246.7720336914062 27.55755615234375 246.7720336914062 27.55755615234375 L 246.1159210205078 28.31216430664062 L 241.5880279541016 24.37538146972656 L 242.2442016601562 23.62077331542969 Z M 251.2999267578125 31.49433898925781 C 251.2999267578125 31.49433898925781 252.2914733886719 32.3564453125 253.3465576171875 33.27378845214844 L 253.3566284179688 33.28254699707031 C 253.3619995117188 33.28721618652344 253.3672027587891 33.29173278808594 253.3725738525391 33.29640197753906 L 253.3981323242188 33.31861877441406 C 253.3981323242188 33.31861877441406 253.398193359375 33.31867980957031 253.398193359375 33.31867980957031 L 255.8278045654297 35.43112182617188 L 255.1716918945312 36.18577575683594 L 250.6438140869141 32.24899291992188 L 251.2999267578125 31.49433898925781 Z M 260.355712890625 39.36795043945312 C 260.355712890625 39.36795043945312 262.12158203125 40.90328979492188 263.44775390625 42.05635070800781 L 263.4541931152344 42.06193542480469 C 263.4779052734375 42.08253479003906 263.5011596679688 42.10275268554688 263.5245361328125 42.12310791015625 L 263.5255737304688 42.12400817871094 C 263.5327453613281 42.13023376464844 263.5398864746094 42.13644409179688 263.5469970703125 42.14263916015625 L 263.5518188476562 42.14682006835938 C 263.5650634765625 42.1583251953125 263.578125 42.16969299316406 263.5912475585938 42.18110656738281 L 264.8835754394531 43.30473327636719 L 264.2274169921875 44.059326171875 L 259.6995239257812 40.12255859375 L 260.355712890625 39.36795043945312 Z M 269.4114379882812 47.24150085449219 C 269.4114379882812 47.24150085449219 271.0916137695312 48.70234680175781 272.4049682617188 49.84423828125 L 272.4078979492188 49.84678649902344 C 272.42236328125 49.859375 272.436767578125 49.87190246582031 272.451171875 49.8843994140625 L 272.4722595214844 49.90275573730469 C 272.4735717773438 49.90388488769531 272.4749145507812 49.90504455566406 272.4761962890625 49.90617370605469 L 273.9393005371094 51.17828369140625 L 273.283203125 51.93293762207031 L 268.7553100585938 47.99617004394531 L 269.4114379882812 47.24150085449219 Z M 278.4671936035156 55.1151123046875 C 278.4671936035156 55.1151123046875 281.4513549804688 57.70967102050781 282.5744018554688 58.68612670898438 L 282.5805053710938 58.69143676757812 C 282.5847778320312 58.69515991210938 282.5889282226562 58.69874572753906 282.5931396484375 58.70242309570312 L 282.5934448242188 58.70266723632812 C 282.5983276367188 58.70692443847656 282.6032104492188 58.711181640625 282.6080322265625 58.71536254882812 L 282.6105346679688 58.717529296875 C 282.6144409179688 58.72093200683594 282.6182861328125 58.72425842285156 282.6221313476562 58.72761535644531 L 282.6261596679688 58.73110961914062 C 282.6277465820312 58.73249816894531 282.6293334960938 58.73390197753906 282.6309204101562 58.73527526855469 L 282.6338500976562 58.73782348632812 C 282.6347045898438 58.73857116699219 282.6356506347656 58.7393798828125 282.6365356445312 58.74012756347656 L 282.6475219726562 58.74969482421875 C 282.6495361328125 58.75146484375 282.6516723632812 58.75331115722656 282.6536865234375 58.75505065917969 L 282.656005859375 58.757080078125 C 282.6600341796875 58.76055908203125 282.6639404296875 58.76396179199219 282.6678771972656 58.76739501953125 L 282.6713562011719 58.77041625976562 C 282.6754150390625 58.77397155761719 282.6793518066406 58.77737426757812 282.6833801269531 58.78086853027344 L 282.7145385742188 58.80796813964844 C 282.7151794433594 58.80853271484375 282.7159423828125 58.8092041015625 282.7166137695312 58.80975341796875 L 282.7348937988281 58.82566833496094 C 282.735107421875 58.82585144042969 282.7353515625 58.82606506347656 282.7355346679688 58.82624816894531 L 282.9950866699219 59.05188751220703 L 282.3389282226562 59.80650329589844 L 277.8110961914062 55.86972045898438 L 278.4671936035156 55.1151123046875 Z M 287.52294921875 62.98868560791016 L 292.0508117675781 66.92544555664062 L 291.3947143554688 67.68011474609375 L 286.8668212890625 63.74333190917969 L 287.5229797363281 62.98867034912109 Z M 296.5787048339844 70.86227416992188 C 296.5787048339844 70.86227416992188 301.1065673828125 74.79905700683594 301.1065673828125 74.79905700683594 L 300.4504699707031 75.55366516113281 L 295.922607421875 71.61688995361328 L 296.5787048339844 70.86227416992188 Z M 305.6344604492188 78.73584747314453 L 309.6546630859375 82.23123168945312 C 309.6553039550781 82.23178863525391 309.6560974121094 82.23247528076172 309.65673828125 82.2330322265625 L 309.6625366210938 82.23806762695312 C 309.6655883789062 82.24074554443359 309.668701171875 82.24343109130859 309.6717529296875 82.24608612060547 L 309.6963806152344 82.26750183105469 C 309.7006225585938 82.27117919921875 309.7048645019531 82.27487945556641 309.7090454101562 82.27851867675781 L 309.7137145996094 82.28258514404297 C 309.7222290039062 82.28997039794922 309.7306823730469 82.29732513427734 309.7389526367188 82.30453491210938 L 309.7537231445312 82.31735229492188 C 309.7558898925781 82.31923675537109 309.7581787109375 82.32124328613281 309.7603454589844 82.3231201171875 L 309.7606201171875 82.32337188720703 C 309.7655334472656 82.32762145996094 309.7704467773438 82.3319091796875 309.7752685546875 82.33609008789062 L 309.7777404785156 82.33824157714844 C 309.7872619628906 82.34651184082031 309.7966918945312 82.35472106933594 309.805908203125 82.36273193359375 L 309.8080444335938 82.36460876464844 C 310.0290222167969 82.55673217773438 310.1622924804688 82.672607421875 310.1622924804688 82.672607421875 L 309.5061950683594 83.42727661132812 L 304.9783020019531 79.49050140380859 L 305.6344604492188 78.73583221435547 Z M 314.690185546875 86.60944366455078 C 314.690185546875 86.60944366455078 319.2180786132812 90.54621887207031 319.2180786132812 90.54621887207031 L 318.5619812011719 91.30088806152344 L 314.0340881347656 87.36405181884766 L 314.690185546875 86.60944366455078 Z M 323.7459716796875 94.48300933837891 L 328.2738342285156 98.4197998046875 L 327.6177062988281 99.17444610595703 L 323.0898132324219 95.23766326904297 L 323.7459716796875 94.48300170898438 Z M 332.8016967773438 102.3566131591797 C 332.8016967773438 102.3566131591797 337.32958984375 106.2933883666992 337.32958984375 106.2933883666992 L 336.6734619140625 107.0480575561523 L 332.1455688476562 103.1112213134766 L 332.8016967773438 102.3566131591797 Z M 341.8574829101562 110.2301712036133 L 346.3853454589844 114.1669616699219 L 345.7291870117188 114.9216079711914 L 341.2013549804688 110.9848327636719 L 341.8574829101562 110.2301635742188 Z M 350.9132690429688 118.1037826538086 L 352.0239868164062 119.0695343017578 C 352.0261840820312 119.0714263916016 352.0283508300781 119.0733184814453 352.0305480957031 119.0752105712891 L 352.0339050292969 119.0781326293945 C 352.0370483398438 119.0808715820312 352.0403442382812 119.083740234375 352.0435180664062 119.0864868164062 L 352.0477294921875 119.0901565551758 C 352.0504150390625 119.0924835205078 352.0530395507812 119.0947875976562 352.0557250976562 119.0971145629883 L 352.0654907226562 119.1056137084961 C 352.0714721679688 119.1108169555664 352.0773315429688 119.1159133911133 352.0833740234375 119.1211395263672 L 352.0896606445312 119.1266174316406 C 353.4312438964844 120.2930679321289 355.4411010742188 122.0405578613281 355.4411010742188 122.0405578613281 L 354.7849731445312 122.7952194213867 L 350.257080078125 118.8583908081055 L 350.9132690429688 118.1037750244141 Z M 359.9689636230469 125.9773406982422 L 364.4968566894531 129.9141235351562 L 363.8406982421875 130.6687774658203 L 359.3128662109375 126.7319946289062 L 359.968994140625 125.9773330688477 Z M 369.0247497558594 133.8509521484375 L 369.0965576171875 133.9133758544922 C 369.0977478027344 133.9144134521484 369.0989990234375 133.9154968261719 369.1001892089844 133.9165496826172 L 369.1039733886719 133.9198303222656 C 369.1072082519531 133.9226379394531 369.1105651855469 133.9255523681641 369.1139831542969 133.9285278320312 L 369.1185913085938 133.9325256347656 C 369.1221618652344 133.9356384277344 369.1258239746094 133.9388122558594 369.1296081542969 133.9421081542969 L 369.1312561035156 133.9435424804688 C 369.1322937011719 133.9444580078125 369.13330078125 133.9453430175781 369.1343994140625 133.9462585449219 L 369.1344299316406 133.9463195800781 C 369.1373596191406 133.9488525390625 369.1402893066406 133.9514007568359 369.143310546875 133.9540405273438 L 369.1436462402344 133.9543151855469 C 369.1540832519531 133.96337890625 369.1651306152344 133.9729919433594 369.1767883300781 133.9831390380859 L 369.1816101074219 133.9873352050781 C 369.979736328125 134.6812744140625 373.5525817871094 137.7877197265625 373.5525817871094 137.7877197265625 L 372.896484375 138.5423889160156 L 368.3685913085938 134.6055603027344 L 369.0247497558594 133.8509521484375 Z M 378.0804748535156 141.7245025634766 L 382.6083374023438 145.6612854003906 L 381.9522399902344 146.4159393310547 L 377.4243774414062 142.4791717529297 L 378.0804748535156 141.7245025634766 Z M 387.1362609863281 149.5981140136719 C 387.1362609863281 149.5981140136719 387.4627075195312 149.8819274902344 387.9404296875 150.2972869873047 L 391.6641235351562 153.5348968505859 L 391.0079650878906 154.28955078125 L 386.4801025390625 150.3527221679688 L 387.1362609863281 149.5981140136719 Z M 396.1919860839844 157.4716644287109 C 396.1919860839844 157.4716644287109 396.4442443847656 157.6909942626953 396.8298034667969 158.0262298583984 L 396.8353271484375 158.0310211181641 C 396.8357238769531 158.0313720703125 396.8359680175781 158.0315856933594 396.8363647460938 158.0319366455078 L 396.8425598144531 158.0373077392578 C 396.8489685058594 158.0429077148438 396.8554077148438 158.0484771728516 396.8618774414062 158.0541229248047 L 400.7198486328125 161.4084625244141 L 400.0637512207031 162.1631164550781 L 395.5358581542969 158.2263336181641 L 396.1919860839844 157.4716644287109 Z M 405.2477416992188 165.3452758789062 C 405.2477416992188 165.3452758789062 406.08935546875 166.0770263671875 407.0467834472656 166.9094543457031 L 409.775634765625 169.2820587158203 L 409.1194763183594 170.0367279052734 L 404.5916442871094 166.0998840332031 L 405.2477416992188 165.3452758789062 Z M 414.303466796875 173.2188262939453 C 414.303466796875 173.2188262939453 418.8313598632812 177.1556701660156 418.8313598632812 177.1556701660156 L 418.1752624511719 177.9102783203125 L 413.6473693847656 173.9734954833984 L 414.303466796875 173.2188262939453 Z M 423.3592529296875 181.0924377441406 C 423.3592529296875 181.0924377441406 424.8148193359375 182.3579711914062 426.075439453125 183.4540405273438 L 426.08447265625 183.4618835449219 C 426.08447265625 183.4618835449219 426.0846252441406 183.4620361328125 426.0846252441406 183.4620361328125 L 427.8871459960938 185.0292205810547 L 427.2309875488281 185.7838897705078 L 422.7031555175781 181.8470611572266 L 423.3592529296875 181.0924377441406 Z M 421.1574096679688 186 L 427.1574096679688 186 L 427.1574096679688 187 C 427.1574096679688 187 421.1574096679688 187 421.1574096679688 187 L 421.1574096679688 186 Z M 409.1574096679688 186 L 415.1574096679688 186 L 415.1574096679688 187 C 415.1574096679688 187 409.1574096679688 187 409.1574096679688 187 L 409.1574096679688 186 Z M 397.1574096679688 186 L 403.1574096679688 186 L 403.1574096679688 187 C 403.1574096679688 187 397.1574096679688 187 397.1574096679688 187 L 397.1574096679688 186 Z M 385.1574096679688 186 L 391.1574096679688 186 L 391.1574096679688 187 C 391.1574096679688 187 385.1574096679688 187 385.1574096679688 187 L 385.1574096679688 186 Z M 373.1574096679688 186 L 379.1574096679688 186 L 379.1574096679688 187 C 379.1574096679688 187 373.1574096679688 187 373.1574096679688 187 L 373.1574096679688 186 Z M 361.1574096679688 186 L 367.1574096679688 186 L 367.1574096679688 187 C 367.1574096679688 187 361.1574096679688 187 361.1574096679688 187 L 361.1574096679688 186 Z M 349.1574096679688 186 L 355.1574096679688 186 L 355.1574096679688 187 C 355.1574096679688 187 349.1574096679688 187 349.1574096679688 187 L 349.1574096679688 186 Z M 337.1574096679688 186 L 343.1574096679688 186 L 343.1574096679688 187 C 343.1574096679688 187 337.1574096679688 187 337.1574096679688 187 L 337.1574096679688 186 Z M 325.1574096679688 186 L 331.1574096679688 186 L 331.1574096679688 187 C 331.1574096679688 187 325.1574096679688 187 325.1574096679688 187 L 325.1574096679688 186 Z M 313.1574096679688 186 L 319.1574096679688 186 L 319.1574096679688 187 C 319.1574096679688 187 313.1574096679688 187 313.1574096679688 187 L 313.1574096679688 186 Z M 301.1574096679688 186 L 307.1574096679688 186 L 307.1574096679688 187 C 307.1574096679688 187 301.1574096679688 187 301.1574096679688 187 L 301.1574096679688 186 Z M 289.1574096679688 186 L 295.1574096679688 186 L 295.1574096679688 187 C 295.1574096679688 187 289.1574096679688 187 289.1574096679688 187 L 289.1574096679688 186 Z M 277.1574096679688 186 L 283.1574096679688 186 L 283.1574096679688 187 C 283.1574096679688 187 277.1574096679688 187 277.1574096679688 187 L 277.1574096679688 186 Z M 265.1574096679688 186 L 271.1574096679688 186 L 271.1574096679688 187 C 271.1574096679688 187 265.1574096679688 187 265.1574096679688 187 L 265.1574096679688 186 Z M 253.1574249267578 186 L 259.1574096679688 186 L 259.1574096679688 187 C 259.1574096679688 187 253.1574249267578 187 253.1574249267578 187 L 253.1574249267578 186 Z M 241.1574249267578 186 L 247.1574249267578 186 L 247.1574249267578 187 C 247.1574249267578 187 241.1574249267578 187 241.1574249267578 187 L 241.1574249267578 186 Z M 229.1574249267578 186 L 235.1574249267578 186 L 235.1574249267578 187 C 235.1574249267578 187 229.1574249267578 187 229.1574249267578 187 L 229.1574249267578 186 Z M 217.1574249267578 186 L 223.1574249267578 186 L 223.1574249267578 187 C 223.1574249267578 187 217.1574249267578 187 217.1574249267578 187 L 217.1574249267578 186 Z M 205.1574249267578 186 L 211.1574249267578 186 L 211.1574249267578 187 C 211.1574249267578 187 205.1574249267578 187 205.1574249267578 187 L 205.1574249267578 186 Z M 193.1574249267578 186 L 199.1574249267578 186 L 199.1574249267578 187 C 199.1574249267578 187 193.1574249267578 187 193.1574249267578 187 L 193.1574249267578 186 Z M 181.1574249267578 186 L 187.1574249267578 186 L 187.1574249267578 187 C 187.1574249267578 187 181.1574249267578 187 181.1574249267578 187 L 181.1574249267578 186 Z M 169.1574096679688 186 L 175.1574249267578 186 L 175.1574249267578 187 C 175.1574249267578 187 169.1574096679688 187 169.1574096679688 187 L 169.1574096679688 186 Z M 157.1574096679688 186 L 163.1574096679688 186 L 163.1574096679688 187 C 163.1574096679688 187 157.1574096679688 187 157.1574096679688 187 L 157.1574096679688 186 Z M 145.1574096679688 186 L 151.1574096679688 186 L 151.1574096679688 187 C 151.1574096679688 187 145.1574096679688 187 145.1574096679688 187 L 145.1574096679688 186 Z M 133.1574096679688 186 L 139.1574096679688 186 L 139.1574096679688 187 C 139.1574096679688 187 133.1574096679688 187 133.1574096679688 187 L 133.1574096679688 186 Z M 121.1574096679688 186 L 127.1574096679688 186 L 127.1574096679688 187 C 127.1574096679688 187 121.1574096679688 187 121.1574096679688 187 L 121.1574096679688 186 Z M 109.1574096679688 186 L 115.1574096679688 186 L 115.1574096679688 187 C 115.1574096679688 187 109.1574096679688 187 109.1574096679688 187 L 109.1574096679688 186 Z M 97.15740966796875 186 L 103.1574096679688 186 L 103.1574096679688 187 C 103.1574096679688 187 97.15740966796875 187 97.15740966796875 187 L 97.15740966796875 186 Z M 85.15740966796875 186 L 91.15740966796875 186 L 91.15740966796875 187 C 91.15740966796875 187 85.15740966796875 187 85.15740966796875 187 L 85.15740966796875 186 Z M 73.15740966796875 186 L 79.15740966796875 186 L 79.15740966796875 187 C 79.15740966796875 187 73.15740966796875 187 73.15740966796875 187 L 73.15740966796875 186 Z M 61.15740966796875 186 L 67.15740966796875 186 L 67.15740966796875 187 C 67.15740966796875 187 61.15740966796875 187 61.15740966796875 187 L 61.15740966796875 186 Z M 49.15740966796875 186 L 55.15740966796875 186 L 55.15740966796875 187 C 55.15740966796875 187 49.15740966796875 187 49.15740966796875 187 L 49.15740966796875 186 Z M 37.15740966796875 186 L 43.15740966796875 186 L 43.15740966796875 187 C 43.15740966796875 187 37.15740966796875 187 37.15740966796875 187 L 37.15740966796875 186 Z M 25.15740966796875 186 L 31.15740966796875 186 L 31.15740966796875 187 C 31.15740966796875 187 25.15740966796875 187 25.15740966796875 187 L 25.15740966796875 186 Z M 13.15740966796875 186 L 19.15740966796875 186 L 19.15740966796875 187 C 19.15740966796875 187 13.15740966796875 187 13.15740966796875 187 L 13.15740966796875 186 Z M 1.15740966796875 186 L 7.15740966796875 186 L 7.15740966796875 187 C 7.15740966796875 187 1.15740966796875 187 1.15740966796875 187 L 1.15740966796875 186 Z M 8.1822509765625 179.8858947753906 L 8.83837890625 180.6405029296875 L 4.310516357421875 184.5772705078125 L 3.65435791015625 183.8226623535156 L 4.012359619140625 183.5113983154297 C 4.0133056640625 183.5105743408203 4.014068603515625 183.5099334716797 4.0150146484375 183.5091094970703 L 4.04058837890625 183.4868621826172 C 4.043426513671875 183.4843902587891 4.04638671875 183.4818267822266 4.04925537109375 183.4793243408203 L 4.0654296875 183.4652557373047 C 5.180999755859375 182.4953155517578 8.1822509765625 179.8858947753906 8.1822509765625 179.8858947753906 Z M 17.238037109375 172.0122833251953 L 17.89413452148438 172.7669372558594 L 13.36624145507812 176.7037200927734 L 12.71014404296875 175.9490509033203 L 14.67861938476562 174.2375640869141 C 14.68191528320312 174.2347106933594 14.68505859375 174.2319488525391 14.6883544921875 174.2290802001953 L 14.69036865234375 174.2273559570312 C 14.69873046875 174.2200775146484 14.70709228515625 174.2128143310547 14.7154541015625 174.2055358886719 L 14.71661376953125 174.2045288085938 C 15.927490234375 173.1517181396484 17.238037109375 172.0122833251953 17.238037109375 172.0122833251953 Z M 26.29376220703125 164.1387176513672 L 26.94992065429688 164.8933410644531 L 22.42202758789062 168.8301086425781 L 21.765869140625 168.0755004882812 L 23.85028076171875 166.2631988525391 C 23.8507080078125 166.2628326416016 23.85134887695312 166.2622680664062 23.85177612304688 166.2619018554688 L 23.87725830078125 166.2397308349609 C 23.877685546875 166.2393798828125 23.8780517578125 166.2390441894531 23.87847900390625 166.2386932373047 L 23.88449096679688 166.2334442138672 C 23.89028930664062 166.2284088134766 23.89605712890625 166.2234039306641 23.90185546875 166.2183685302734 L 23.90899658203125 166.212158203125 C 23.91448974609375 166.2073669433594 23.9200439453125 166.2025604248047 23.925537109375 166.19775390625 L 23.93499755859375 166.1895446777344 C 23.94009399414062 166.1851043701172 23.94515991210938 166.1807250976562 23.95025634765625 166.1762847900391 L 23.96316528320312 166.1650543212891 C 25.116943359375 165.1618957519531 26.29376220703125 164.1387176513672 26.29376220703125 164.1387176513672 Z M 35.34951782226562 156.2651062011719 L 36.00564575195312 157.019775390625 L 31.47775268554688 160.9565582275391 L 30.8216552734375 160.2018890380859 L 34.55764770507812 156.95361328125 C 35.02865600585938 156.5441131591797 35.34951782226562 156.2651062011719 35.34951782226562 156.2651062011719 Z M 44.40524291992188 148.3915557861328 L 45.06143188476562 149.1461639404297 L 40.53353881835938 153.0829467773438 L 39.87741088867188 152.3283386230469 C 39.87741088867188 152.3283386230469 44.40524291992188 148.3915557861328 44.40524291992188 148.3915557861328 Z M 53.46102905273438 140.5179443359375 L 54.11715698242188 141.2726135253906 L 49.58929443359375 145.2093811035156 L 48.93313598632812 144.4547271728516 L 53.46102905273438 140.5179443359375 Z M 62.51681518554688 132.6443939208984 L 63.17291259765625 133.3990020751953 L 58.64501953125 137.3357849121094 L 57.98892211914062 136.5811614990234 C 57.98892211914062 136.5811614990234 62.51681518554688 132.6443939208984 62.51681518554688 132.6443939208984 Z M 71.57254028320312 124.7707824707031 L 72.22869873046875 125.5254440307617 L 67.7008056640625 129.4622192382812 L 67.04464721679688 128.7075500488281 L 71.57254028320312 124.7707824707031 Z M 80.6282958984375 116.8972244262695 L 81.284423828125 117.6518325805664 L 76.75653076171875 121.5886688232422 L 76.10043334960938 120.8339996337891 C 76.10043334960938 120.8339996337891 80.6282958984375 116.8972244262695 80.6282958984375 116.8972244262695 Z M 89.68402099609375 109.0236129760742 L 90.3402099609375 109.7782745361328 L 85.81231689453125 113.7150573730469 L 85.15618896484375 112.9603881835938 C 85.15618896484375 112.9603881835938 85.22296142578125 112.90234375 85.34033203125 112.80029296875 L 85.35040283203125 112.7915344238281 C 85.35052490234375 112.7914276123047 85.3507080078125 112.791259765625 85.350830078125 112.7911529541016 L 89.68405151367188 109.0236282348633 Z M 98.73980712890625 101.1500549316406 L 99.39590454101562 101.9046630859375 L 94.8680419921875 105.8414993286133 L 94.2119140625 105.0868301391602 C 94.2119140625 105.0868301391602 94.2119140625 105.0868301391602 94.2119140625 105.0868301391602 L 94.21194458007812 105.0868072509766 C 94.21197509765625 105.0867767333984 94.21206665039062 105.0867156982422 94.21218872070312 105.0866088867188 L 94.212646484375 105.0862121582031 C 94.21279907226562 105.0860748291016 94.21298217773438 105.0859146118164 94.21316528320312 105.0857391357422 L 94.21392822265625 105.0850830078125 C 94.21401977539062 105.0850067138672 94.21414184570312 105.0849151611328 94.2142333984375 105.0848236083984 L 94.21453857421875 105.0845489501953 C 94.21609497070312 105.0832138061523 94.21829223632812 105.0812911987305 94.22116088867188 105.0788040161133 L 94.22125244140625 105.0787200927734 C 94.23004150390625 105.0710754394531 94.24490356445312 105.0581436157227 94.26541137695312 105.0403213500977 L 94.26904296875 105.0371551513672 C 94.26925659179688 105.036979675293 94.26950073242188 105.0367813110352 94.26968383789062 105.0366058349609 L 94.27108764648438 105.0353927612305 C 94.80264282226562 104.5732269287109 98.73980712890625 101.1500549316406 98.73980712890625 101.1500549316406 Z M 107.7955322265625 93.27644348144531 L 108.4516906738281 94.03111267089844 L 103.9237976074219 97.96788787841797 L 103.2677001953125 97.21321868896484 L 107.7955322265625 93.27646636962891 Z M 116.851318359375 85.40288543701172 L 117.5074157714844 86.15750122070312 L 112.9795837402344 90.09432983398438 L 112.3234252929688 89.33966827392578 L 113.8223266601562 88.03644561767578 C 113.8236389160156 88.03530883789062 113.8249816894531 88.03411865234375 113.8262939453125 88.03298187255859 L 113.8362121582031 88.02436065673828 C 113.8372802734375 88.02345275878906 113.8384704589844 88.02240753173828 113.8395080566406 88.02149200439453 L 113.8482055664062 88.01393127441406 C 113.84912109375 88.01313018798828 113.8498229980469 88.01253509521484 113.8507385253906 88.01173400878906 L 113.861572265625 88.00231170654297 C 113.8633117675781 88.00081634521484 113.8648071289062 87.99950408935547 113.8665161132812 87.99801635742188 L 113.8704528808594 87.99459838867188 C 113.8736267089844 87.99185180664062 113.8770141601562 87.9888916015625 113.8801879882812 87.98613739013672 L 113.8828735351562 87.98378753662109 C 113.8904113769531 87.97724151611328 113.8981018066406 87.97055053710938 113.9056701660156 87.9639892578125 L 113.9082336425781 87.96175384521484 C 113.9229431152344 87.94896697998047 113.9377136230469 87.93612670898438 113.9524841308594 87.92326354980469 L 113.9601440429688 87.91661834716797 C 115.2567443847656 86.78928375244141 116.851318359375 85.40288543701172 116.851318359375 85.40288543701172 Z M 125.9070739746094 77.52927398681641 L 126.5632019042969 78.28394317626953 L 122.0353088378906 82.22072601318359 L 121.3792114257812 81.46605682373047 L 124.5277404785156 78.72855377197266 C 124.5427551269531 78.71549987792969 124.5576477050781 78.70255279541016 124.5725402832031 78.68960571289062 L 124.5736999511719 78.68858337402344 C 125.3226013183594 78.03746795654297 125.9070739746094 77.52927398681641 125.9070739746094 77.52927398681641 Z M 134.9627990722656 69.65572357177734 L 135.6189880371094 70.41033172607422 L 131.0910949707031 74.34716796875 L 130.4349060058594 73.59249877929688 L 133.6586608886719 70.78962707519531 C 133.6592712402344 70.78907775878906 133.6595764160156 70.78882598876953 133.6602172851562 70.78826904296875 L 133.6683349609375 70.78120422363281 C 133.6699829101562 70.77977752685547 133.6716613769531 70.7783203125 133.6732788085938 70.77689361572266 L 133.6832580566406 70.76823425292969 C 133.6835021972656 70.76802062988281 133.6837158203125 70.76784515380859 133.6839599609375 70.76762390136719 L 133.7758178710938 70.687744140625 C 133.7901306152344 70.67531585693359 133.8043518066406 70.66294860839844 133.8184814453125 70.65065002441406 L 133.8225402832031 70.64711761474609 C 133.8528747558594 70.62075042724609 133.882568359375 70.59492492675781 133.9121398925781 70.5692138671875 L 133.9132385253906 70.56828308105469 C 134.5208435058594 70.03998565673828 134.9627990722656 69.65572357177734 134.9627990722656 69.65572357177734 Z M 144.0185852050781 61.78211212158203 L 144.6746826171875 62.53678131103516 L 140.1468200683594 66.47355651855469 L 139.4906921386719 65.71888732910156 L 144.0185852050781 61.78211212158203 Z M 153.0743103027344 53.90855407714844 L 153.73046875 54.66316223144531 L 149.2025756835938 58.60000610351562 L 148.5464782714844 57.8453369140625 C 148.5464782714844 57.8453369140625 151.0914001464844 55.63262939453125 152.3653564453125 54.52494812011719 L 152.3698120117188 54.52108764648438 C 152.3951721191406 54.49903869628906 152.4199829101562 54.47744750976562 152.4443054199219 54.45632934570312 L 152.4452209472656 54.45552062988281 C 152.4577331542969 54.44465637207031 152.4701538085938 54.433837890625 152.4823608398438 54.42323303222656 L 152.4823913574219 54.42320251464844 C 152.4878234863281 54.41848754882812 152.4931335449219 54.41387939453125 152.4984741210938 54.40921020507812 L 152.53125 54.3807373046875 C 152.5322570800781 54.37983703613281 152.5332946777344 54.37895202636719 152.5343322753906 54.3780517578125 L 152.5382690429688 54.37461853027344 C 152.5426635742188 54.37080383300781 152.5470581054688 54.36697387695312 152.5513916015625 54.36320495605469 L 152.5603942871094 54.35537719726562 C 152.5634155273438 54.35275268554688 152.5665588378906 54.35003662109375 152.5695495605469 54.34742736816406 L 152.5741882324219 54.34339904785156 C 152.5760803222656 54.34175109863281 152.5778198242188 54.34024047851562 152.5797119140625 54.33859252929688 L 152.5848388671875 54.33413696289062 C 152.5851135253906 54.33390808105469 152.5853271484375 54.33370971679688 152.5856018066406 54.33348083496094 L 152.601318359375 54.31980895996094 C 152.6020202636719 54.31918334960938 152.6025695800781 54.31871032714844 152.6033020019531 54.31808471679688 L 153.0743103027344 53.90855407714844 Z M 162.1300964355469 46.03494262695312 L 162.7861938476562 46.78961181640625 L 158.2583618164062 50.72639465332031 L 157.6022033691406 49.97172546386719 L 162.1300964355469 46.03495788574219 Z M 171.1858520507812 38.16139221191406 L 171.8419799804688 38.91600036621094 L 167.3140869140625 42.85282897949219 L 166.6579895019531 42.09815979003906 C 166.6579895019531 42.09815979003906 171.1858520507812 38.16139221191406 171.1858520507812 38.16139221191406 Z M 180.2415924072266 30.28778076171875 L 180.8977508544922 31.04244995117188 L 176.3698577880859 34.97921752929688 L 175.7137145996094 34.22457885742188 L 180.2415924072266 30.28779602050781 Z M 189.29736328125 22.41421508789062 L 189.9534759521484 23.16883850097656 L 185.4255828857422 27.10566711425781 L 184.7694702148438 26.35099792480469 C 184.7694702148438 26.35099792480469 189.29736328125 22.41421508789062 189.29736328125 22.41421508789062 Z M 198.3530883789062 14.54060363769531 L 199.0092468261719 15.29527282714844 L 194.4813690185547 19.2320556640625 L 193.8252563476562 18.47744750976562 C 193.8252563476562 18.47744750976562 195.3975067138672 17.11041259765625 196.6890716552734 15.9874267578125 L 198.3531036376953 14.54063415527344 Z M 207.4088592529297 6.66705322265625 L 208.0649719238281 7.421661376953125 L 203.5371398925781 11.35850524902344 L 202.8809814453125 10.60383605957031 L 203.9926452636719 9.637283325195312 C 203.9937438964844 9.636337280273438 203.9947052001953 9.635498046875 203.9958038330078 9.634552001953125 L 204.0058135986328 9.625839233398438 C 204.0060577392578 9.625625610351562 204.0062561035156 9.625457763671875 204.0065002441406 9.625244140625 L 204.0174713134766 9.615707397460938 C 204.0175933837891 9.6156005859375 204.0176544189453 9.615554809570312 204.0177764892578 9.615447998046875 L 204.0287322998047 9.605911254882812 C 204.0306854248047 9.604217529296875 204.0325469970703 9.60260009765625 204.0345153808594 9.60089111328125 L 204.0354919433594 9.60003662109375 C 204.0386657714844 9.597274780273438 204.0419006347656 9.594467163085938 204.0450897216797 9.591705322265625 L 204.0483245849609 9.588882446289062 C 204.0549468994141 9.583114624023438 204.0616302490234 9.577316284179688 204.0682830810547 9.571517944335938 L 204.0745239257812 9.56610107421875 C 204.0809478759766 9.560516357421875 204.0875701904297 9.554763793945312 204.0940246582031 9.549148559570312 L 204.0947113037109 9.548553466796875 C 204.1020355224609 9.542190551757812 204.1094360351562 9.535751342773438 204.1167907714844 9.52935791015625 L 204.1194152832031 9.527069091796875 C 205.4600067138672 8.361495971679688 207.4088592529297 6.66705322265625 207.4088592529297 6.66705322265625 Z M 215.0769195556641 0 C 215.0769195556641 0 215.0945434570312 0.01531982421875 215.1275787353516 0.0440521240234375 L 215.1278991699219 0.0443267822265625 C 215.1433563232422 0.057769775390625 215.162109375 0.074066162109375 215.1840667724609 0.0931549072265625 L 215.1900634765625 0.0983734130859375 C 215.1925201416016 0.1005096435546875 215.1949920654297 0.1026611328125 215.1975250244141 0.1048583984375 L 215.1983489990234 0.1055755615234375 C 215.2073669433594 0.1134185791015625 215.2168579101562 0.121673583984375 215.226806640625 0.13031005859375 L 215.2285614013672 0.1318511962890625 C 215.2333221435547 0.135986328125 215.2381286621094 0.140167236328125 215.2430877685547 0.14447021484375 L 215.2861785888672 0.18194580078125 C 215.2862396240234 0.1819915771484375 215.2863159179688 0.1820526123046875 215.286376953125 0.1821136474609375 L 215.3041229248047 0.1975555419921875 C 215.3043823242188 0.1977691650390625 215.3046569824219 0.197998046875 215.3049163818359 0.1982269287109375 L 215.3101654052734 0.2028045654296875 C 215.3106994628906 0.2032623291015625 215.3113708496094 0.2038421630859375 215.3118896484375 0.2042999267578125 L 219.6047973632812 3.936798095703125 L 218.9486389160156 4.691452026367188 L 215.0769195556641 1.32513427734375 L 212.5928649902344 3.484893798828125 L 211.9367523193359 2.730270385742188 C 211.9367523193359 2.730270385742188 215.0769195556641 0 215.0769195556641 0 L 215.0769195556641 0 Z" stroke="none" fill="#676767"/>
    </g>
    <path id="Trazado_726475" data-name="Trazado 726475" d="M0,0H190V65H0Z" transform="translate(387 1671)" fill="#badc61"/>
    <path id="Trazado_726476" data-name="Trazado 726476" d="M0,0H190V65H0Z" transform="translate(233 1826)" fill="#feb12e"/>
    <path id="Trazado_726477" data-name="Trazado 726477" d="M0,0H190V65H0Z" transform="translate(542 1826)" fill="#34bc85"/>
    <path id="Trazado_726478" data-name="Trazado 726478" d="M31.023,13.211A4.025,4.025,0,0,1,29.668,16.1a4.76,4.76,0,0,1-3.223,1.055A4.28,4.28,0,0,1,23,15.684a6.038,6.038,0,0,1-1.254-4.043v-.7a6.819,6.819,0,0,1,.578-2.891A4.332,4.332,0,0,1,23.98,6.137a4.629,4.629,0,0,1,2.5-.668,4.637,4.637,0,0,1,3.172,1.055,4.326,4.326,0,0,1,1.391,2.961H28.7a2.376,2.376,0,0,0-.613-1.6,2.271,2.271,0,0,0-1.605-.5,1.991,1.991,0,0,0-1.754.84,4.707,4.707,0,0,0-.6,2.605V11.7a5.038,5.038,0,0,0,.559,2.7,1.954,1.954,0,0,0,1.762.852,2.314,2.314,0,0,0,1.621-.5,2.241,2.241,0,0,0,.613-1.535ZM37.313,17a2.507,2.507,0,0,1-.227-.758,2.732,2.732,0,0,1-2.133.914,3,3,0,0,1-2.059-.719,2.312,2.312,0,0,1-.816-1.812,2.389,2.389,0,0,1,1-2.062,4.915,4.915,0,0,1,2.879-.727h1.039v-.484a1.393,1.393,0,0,0-.3-.937,1.183,1.183,0,0,0-.949-.352,1.345,1.345,0,0,0-.895.273.929.929,0,0,0-.324.75H32.266a2.268,2.268,0,0,1,.453-1.359A3,3,0,0,1,34,8.746a4.669,4.669,0,0,1,1.859-.355,3.689,3.689,0,0,1,2.48.785,2.747,2.747,0,0,1,.918,2.207v3.664a4.041,4.041,0,0,0,.336,1.82V17Zm-1.867-1.57a1.945,1.945,0,0,0,.922-.223,1.462,1.462,0,0,0,.625-.6V13.156h-.844q-1.7,0-1.8,1.172l-.008.133a.9.9,0,0,0,.3.7A1.153,1.153,0,0,0,35.445,15.43Zm7.664-6.883.07.945a2.971,2.971,0,0,1,2.43-1.1A2.255,2.255,0,0,1,47.852,9.68a2.9,2.9,0,0,1,2.539-1.289,2.521,2.521,0,0,1,2.047.8,3.681,3.681,0,0,1,.672,2.41V17H50.844V11.609a1.61,1.61,0,0,0-.281-1.051,1.246,1.246,0,0,0-.992-.332,1.409,1.409,0,0,0-1.406.969l.008,5.8H45.914V11.617a1.59,1.59,0,0,0-.289-1.062,1.259,1.259,0,0,0-.984-.328,1.463,1.463,0,0,0-1.391.8V17H40.992V8.547Zm19.352,4.3a5.119,5.119,0,0,1-.867,3.168,2.872,2.872,0,0,1-2.422,1.137,2.639,2.639,0,0,1-2.2-1.055l-.1.9H54.844V5H57.1V9.3a2.571,2.571,0,0,1,2.055-.914,2.9,2.9,0,0,1,2.426,1.137,5.126,5.126,0,0,1,.879,3.2ZM60.2,12.688a3.363,3.363,0,0,0-.406-1.871,1.374,1.374,0,0,0-1.211-.59,1.489,1.489,0,0,0-1.484.883v3.336a1.509,1.509,0,0,0,1.5.891,1.394,1.394,0,0,0,1.438-1.078A5.562,5.562,0,0,0,60.2,12.688ZM66.234,17H63.969V8.547h2.266Zm-2.4-10.641a1.112,1.112,0,0,1,.34-.836,1.465,1.465,0,0,1,1.848,0,1.105,1.105,0,0,1,.344.836,1.108,1.108,0,0,1-.348.844,1.448,1.448,0,0,1-1.836,0A1.108,1.108,0,0,1,63.836,6.359ZM67.742,12.7a5.013,5.013,0,0,1,.484-2.242A3.546,3.546,0,0,1,69.621,8.93a4.069,4.069,0,0,1,2.113-.539,3.849,3.849,0,0,1,2.793,1.047,4.2,4.2,0,0,1,1.207,2.844l.016.578a4.418,4.418,0,0,1-1.086,3.121,4.209,4.209,0,0,1-5.832,0,4.5,4.5,0,0,1-1.09-3.187Zm2.258.16a3.16,3.16,0,0,0,.453,1.843,1.628,1.628,0,0,0,2.578.008,3.457,3.457,0,0,0,.461-2.015,3.128,3.128,0,0,0-.461-1.831,1.5,1.5,0,0,0-1.3-.649,1.474,1.474,0,0,0-1.281.646A3.516,3.516,0,0,0,70,12.856Zm10.773-.145a5.094,5.094,0,0,1,.887-3.148,2.877,2.877,0,0,1,2.426-1.172,2.589,2.589,0,0,1,2.039.922V5h2.266V17H86.352l-.109-.9a2.657,2.657,0,0,1-2.172,1.055,2.869,2.869,0,0,1-2.395-1.176A5.258,5.258,0,0,1,80.773,12.711Zm2.258.168a3.337,3.337,0,0,0,.414,1.823,1.349,1.349,0,0,0,1.2.634,1.511,1.511,0,0,0,1.477-.884V11.111a1.489,1.489,0,0,0-1.461-.884Q83.031,10.227,83.031,12.879Zm11,4.277A4.15,4.15,0,0,1,91,16.016a4.054,4.054,0,0,1-1.168-3.039v-.219a5.106,5.106,0,0,1,.492-2.277,3.612,3.612,0,0,1,1.395-1.547,3.914,3.914,0,0,1,2.059-.543,3.508,3.508,0,0,1,2.73,1.094,4.444,4.444,0,0,1,1,3.1v.922H92.125a2.1,2.1,0,0,0,.66,1.328,2,2,0,0,0,1.395.5,2.437,2.437,0,0,0,2.039-.945l1.109,1.242a3.389,3.389,0,0,1-1.375,1.121A4.511,4.511,0,0,1,94.031,17.156Zm-.258-6.945a1.411,1.411,0,0,0-1.09.455,2.357,2.357,0,0,0-.535,1.3h3.141v-.181a1.681,1.681,0,0,0-.406-1.165A1.456,1.456,0,0,0,93.773,10.211ZM40.293,41a2.507,2.507,0,0,1-.227-.758,2.732,2.732,0,0,1-2.133.914,3,3,0,0,1-2.059-.719,2.312,2.312,0,0,1-.816-1.812,2.389,2.389,0,0,1,1-2.062,4.915,4.915,0,0,1,2.879-.727h1.039v-.484a1.393,1.393,0,0,0-.3-.937,1.183,1.183,0,0,0-.949-.352,1.345,1.345,0,0,0-.895.273.929.929,0,0,0-.324.75H35.246a2.268,2.268,0,0,1,.453-1.359,3,3,0,0,1,1.281-.98,4.669,4.669,0,0,1,1.859-.355,3.689,3.689,0,0,1,2.48.785,2.747,2.747,0,0,1,.918,2.207v3.664a4.041,4.041,0,0,0,.336,1.82V41Zm-1.867-1.57a1.945,1.945,0,0,0,.922-.223,1.462,1.462,0,0,0,.625-.6V37.156h-.844q-1.7,0-1.8,1.172l-.008.133a.9.9,0,0,0,.3.7A1.153,1.153,0,0,0,38.426,39.43Zm9.063-.094a1.481,1.481,0,0,0,1.016-.344,1.2,1.2,0,0,0,.406-.914h2.117a2.9,2.9,0,0,1-.469,1.574A3.093,3.093,0,0,1,49.3,40.762a3.949,3.949,0,0,1-1.77.395A3.67,3.67,0,0,1,44.668,40a4.56,4.56,0,0,1-1.047-3.184v-.148a4.508,4.508,0,0,1,1.039-3.117,3.627,3.627,0,0,1,2.852-1.164,3.555,3.555,0,0,1,2.543.9,3.2,3.2,0,0,1,.973,2.4H48.91a1.551,1.551,0,0,0-.406-1.072,1.51,1.51,0,0,0-2.223.163,3.333,3.333,0,0,0-.4,1.866v.235a3.375,3.375,0,0,0,.4,1.878A1.377,1.377,0,0,0,47.488,39.336Zm7.531-8.867v2.078h1.445V34.2H55.02v4.219a1.007,1.007,0,0,0,.18.672.9.9,0,0,0,.688.2,3.6,3.6,0,0,0,.664-.055v1.711a4.648,4.648,0,0,1-1.367.2,2.156,2.156,0,0,1-2.422-2.4V34.2H51.527V32.547h1.234V30.469ZM60.105,41H57.84V32.547h2.266Zm-2.4-10.641a1.112,1.112,0,0,1,.34-.836,1.465,1.465,0,0,1,1.848,0,1.193,1.193,0,0,1,0,1.68,1.448,1.448,0,0,1-1.836,0A1.108,1.108,0,0,1,57.707,30.359Zm6.961.109v2.078h1.445V34.2H64.668v4.219a1.007,1.007,0,0,0,.18.672.9.9,0,0,0,.688.2,3.6,3.6,0,0,0,.664-.055v1.711a4.648,4.648,0,0,1-1.367.2,2.156,2.156,0,0,1-2.422-2.4V34.2H61.176V32.547H62.41V30.469Zm7.766,9.672a2.831,2.831,0,0,1-2.312,1.016,2.67,2.67,0,0,1-2.074-.781,3.335,3.335,0,0,1-.73-2.289V32.547h2.258v5.467q0,1.322,1.2,1.322a1.63,1.63,0,0,0,1.578-.8V32.547h2.266V41H72.5Zm3.539-3.43a5.094,5.094,0,0,1,.887-3.148,2.877,2.877,0,0,1,2.426-1.172,2.589,2.589,0,0,1,2.039.922V29H83.59V41H81.551l-.109-.9a2.657,2.657,0,0,1-2.172,1.055,2.869,2.869,0,0,1-2.395-1.176A5.258,5.258,0,0,1,75.973,36.711Zm2.258.168a3.337,3.337,0,0,0,.414,1.823,1.349,1.349,0,0,0,1.2.634,1.511,1.511,0,0,0,1.477-.884V35.111a1.489,1.489,0,0,0-1.461-.884Q78.23,34.227,78.23,36.879Z" transform="translate(423 1681)" fill="#12263f"/>
    <path id="Trazado_726479" data-name="Trazado 726479" d="M49.762,13.211A4.025,4.025,0,0,1,48.406,16.1a4.76,4.76,0,0,1-3.223,1.055,4.28,4.28,0,0,1-3.441-1.473,6.038,6.038,0,0,1-1.254-4.043v-.7a6.819,6.819,0,0,1,.578-2.891,4.332,4.332,0,0,1,1.652-1.918,5.164,5.164,0,0,1,5.668.387,4.326,4.326,0,0,1,1.391,2.961H47.434a2.376,2.376,0,0,0-.613-1.6,2.271,2.271,0,0,0-1.605-.5,1.991,1.991,0,0,0-1.754.84,4.707,4.707,0,0,0-.6,2.605V11.7a5.038,5.038,0,0,0,.559,2.7,1.954,1.954,0,0,0,1.762.852,2.314,2.314,0,0,0,1.621-.5,2.241,2.241,0,0,0,.613-1.535ZM55.9,10.664a6.134,6.134,0,0,0-.812-.062,1.654,1.654,0,0,0-1.68.867V17H51.152V8.547h2.133l.063,1.008A2.092,2.092,0,0,1,55.23,8.391a2.366,2.366,0,0,1,.7.1Zm4.977,6.492a4.15,4.15,0,0,1-3.027-1.141,4.054,4.054,0,0,1-1.168-3.039v-.219a5.106,5.106,0,0,1,.492-2.277A3.612,3.612,0,0,1,58.57,8.934a3.914,3.914,0,0,1,2.059-.543,3.508,3.508,0,0,1,2.73,1.094,4.444,4.444,0,0,1,1,3.1v.922H58.973a2.1,2.1,0,0,0,.66,1.328,2,2,0,0,0,1.395.5,2.437,2.437,0,0,0,2.039-.945l1.109,1.242A3.389,3.389,0,0,1,62.8,16.754,4.511,4.511,0,0,1,60.879,17.156Zm-.258-6.945a1.411,1.411,0,0,0-1.09.455,2.357,2.357,0,0,0-.535,1.3h3.141v-.181a1.681,1.681,0,0,0-.406-1.165A1.456,1.456,0,0,0,60.621,10.211ZM70.535,17a2.507,2.507,0,0,1-.227-.758,2.732,2.732,0,0,1-2.133.914,3,3,0,0,1-2.059-.719,2.312,2.312,0,0,1-.816-1.812,2.389,2.389,0,0,1,1-2.062,4.915,4.915,0,0,1,2.879-.727h1.039v-.484a1.393,1.393,0,0,0-.3-.937,1.183,1.183,0,0,0-.949-.352,1.345,1.345,0,0,0-.895.273.929.929,0,0,0-.324.75H65.488a2.268,2.268,0,0,1,.453-1.359,3,3,0,0,1,1.281-.98,4.669,4.669,0,0,1,1.859-.355,3.689,3.689,0,0,1,2.48.785,2.747,2.747,0,0,1,.918,2.207v3.664a4.041,4.041,0,0,0,.336,1.82V17Zm-1.867-1.57a1.945,1.945,0,0,0,.922-.223,1.462,1.462,0,0,0,.625-.6V13.156h-.844q-1.7,0-1.8,1.172l-.008.133a.9.9,0,0,0,.3.7A1.153,1.153,0,0,0,68.668,15.43Zm10.3-4.766a6.134,6.134,0,0,0-.812-.062,1.654,1.654,0,0,0-1.68.867V17H74.215V8.547h2.133l.063,1.008a2.092,2.092,0,0,1,1.883-1.164,2.366,2.366,0,0,1,.7.1ZM25.027,39.336a1.481,1.481,0,0,0,1.016-.344,1.2,1.2,0,0,0,.406-.914h2.117a2.9,2.9,0,0,1-.469,1.574,3.093,3.093,0,0,1-1.262,1.109,3.949,3.949,0,0,1-1.77.395A3.67,3.67,0,0,1,22.207,40,4.56,4.56,0,0,1,21.16,36.82v-.148A4.508,4.508,0,0,1,22.2,33.555a3.627,3.627,0,0,1,2.852-1.164,3.555,3.555,0,0,1,2.543.9,3.2,3.2,0,0,1,.973,2.4H26.449a1.551,1.551,0,0,0-.406-1.072,1.51,1.51,0,0,0-2.223.163,3.333,3.333,0,0,0-.4,1.866v.235a3.375,3.375,0,0,0,.4,1.878A1.377,1.377,0,0,0,25.027,39.336ZM29.5,36.7a5.013,5.013,0,0,1,.484-2.242,3.546,3.546,0,0,1,1.395-1.523,4.069,4.069,0,0,1,2.113-.539,3.849,3.849,0,0,1,2.793,1.047A4.2,4.2,0,0,1,37.5,36.281l.016.578a4.418,4.418,0,0,1-1.086,3.121,3.775,3.775,0,0,1-2.914,1.176,3.793,3.793,0,0,1-2.918-1.172A4.5,4.5,0,0,1,29.5,36.8Zm2.258.16a3.16,3.16,0,0,0,.453,1.843,1.628,1.628,0,0,0,2.578.008,3.457,3.457,0,0,0,.461-2.015,3.128,3.128,0,0,0-.461-1.831,1.5,1.5,0,0,0-1.3-.649,1.474,1.474,0,0,0-1.281.646A3.516,3.516,0,0,0,31.762,36.856Zm9.219-4.309.07.977a2.951,2.951,0,0,1,2.43-1.133,2.453,2.453,0,0,1,2,.789,3.682,3.682,0,0,1,.672,2.359V41H43.895V35.594a1.465,1.465,0,0,0-.312-1.043,1.4,1.4,0,0,0-1.039-.324,1.553,1.553,0,0,0-1.43.813V41H38.855V32.547Zm10.4,6.789a1.481,1.481,0,0,0,1.016-.344,1.2,1.2,0,0,0,.406-.914h2.117a2.9,2.9,0,0,1-.469,1.574,3.093,3.093,0,0,1-1.262,1.109,3.949,3.949,0,0,1-1.77.395A3.67,3.67,0,0,1,48.559,40a4.56,4.56,0,0,1-1.047-3.184v-.148a4.508,4.508,0,0,1,1.039-3.117A3.627,3.627,0,0,1,51.4,32.391a3.555,3.555,0,0,1,2.543.9,3.2,3.2,0,0,1,.973,2.4H52.8a1.551,1.551,0,0,0-.406-1.072,1.51,1.51,0,0,0-2.223.163,3.333,3.333,0,0,0-.4,1.866v.235a3.375,3.375,0,0,0,.4,1.878A1.377,1.377,0,0,0,51.379,39.336ZM58.59,41H56.324V32.547H58.59Zm-2.4-10.641a1.112,1.112,0,0,1,.34-.836,1.465,1.465,0,0,1,1.848,0,1.193,1.193,0,0,1,0,1.68,1.448,1.448,0,0,1-1.836,0A1.108,1.108,0,0,1,56.191,30.359Zm8.148,10.8a4.15,4.15,0,0,1-3.027-1.141,4.054,4.054,0,0,1-1.168-3.039v-.219a5.106,5.106,0,0,1,.492-2.277,3.612,3.612,0,0,1,1.395-1.547,3.914,3.914,0,0,1,2.059-.543,3.508,3.508,0,0,1,2.73,1.094,4.444,4.444,0,0,1,1,3.1v.922H62.434a2.1,2.1,0,0,0,.66,1.328,2,2,0,0,0,1.395.5,2.437,2.437,0,0,0,2.039-.945l1.109,1.242a3.389,3.389,0,0,1-1.375,1.121A4.511,4.511,0,0,1,64.34,41.156Zm-.258-6.945a1.411,1.411,0,0,0-1.09.455,2.357,2.357,0,0,0-.535,1.3H65.6v-.181a1.681,1.681,0,0,0-.406-1.165A1.456,1.456,0,0,0,64.082,34.211Zm7.094-1.664.07.977a2.951,2.951,0,0,1,2.43-1.133,2.453,2.453,0,0,1,2,.789,3.682,3.682,0,0,1,.672,2.359V41H74.09V35.594a1.465,1.465,0,0,0-.312-1.043,1.4,1.4,0,0,0-1.039-.324,1.553,1.553,0,0,0-1.43.813V41H69.051V32.547Zm10.4,6.789a1.481,1.481,0,0,0,1.016-.344A1.2,1.2,0,0,0,83,38.078h2.117a2.9,2.9,0,0,1-.469,1.574,3.093,3.093,0,0,1-1.262,1.109,3.949,3.949,0,0,1-1.77.395A3.67,3.67,0,0,1,78.754,40a4.56,4.56,0,0,1-1.047-3.184v-.148a4.508,4.508,0,0,1,1.039-3.117A3.627,3.627,0,0,1,81.6,32.391a3.555,3.555,0,0,1,2.543.9,3.2,3.2,0,0,1,.973,2.4H83a1.551,1.551,0,0,0-.406-1.072,1.51,1.51,0,0,0-2.223.163,3.333,3.333,0,0,0-.4,1.866v.235a3.375,3.375,0,0,0,.4,1.878A1.377,1.377,0,0,0,81.574,39.336ZM88.785,41H86.52V32.547h2.266Zm-2.4-10.641a1.112,1.112,0,0,1,.34-.836,1.465,1.465,0,0,1,1.848,0,1.193,1.193,0,0,1,0,1.68,1.448,1.448,0,0,1-1.836,0A1.108,1.108,0,0,1,86.387,30.359ZM95.543,41a2.507,2.507,0,0,1-.227-.758,2.732,2.732,0,0,1-2.133.914,3,3,0,0,1-2.059-.719,2.312,2.312,0,0,1-.816-1.812,2.389,2.389,0,0,1,1-2.062,4.915,4.915,0,0,1,2.879-.727h1.039v-.484a1.393,1.393,0,0,0-.3-.937,1.183,1.183,0,0,0-.949-.352,1.345,1.345,0,0,0-.895.273.929.929,0,0,0-.324.75H90.5a2.268,2.268,0,0,1,.453-1.359,3,3,0,0,1,1.281-.98,4.669,4.669,0,0,1,1.859-.355,3.689,3.689,0,0,1,2.48.785,2.747,2.747,0,0,1,.918,2.207v3.664a4.041,4.041,0,0,0,.336,1.82V41Zm-1.867-1.57a1.945,1.945,0,0,0,.922-.223,1.462,1.462,0,0,0,.625-.6V37.156h-.844q-1.7,0-1.8,1.172l-.008.133a.9.9,0,0,0,.3.7A1.153,1.153,0,0,0,93.676,39.43Z" transform="translate(269 1836)" fill="#12263f"/>
    <path id="Trazado_726480" data-name="Trazado 726480" d="M31.023,13.211A4.025,4.025,0,0,1,29.668,16.1a4.76,4.76,0,0,1-3.223,1.055A4.28,4.28,0,0,1,23,15.684a6.038,6.038,0,0,1-1.254-4.043v-.7a6.819,6.819,0,0,1,.578-2.891A4.332,4.332,0,0,1,23.98,6.137a4.629,4.629,0,0,1,2.5-.668,4.637,4.637,0,0,1,3.172,1.055,4.326,4.326,0,0,1,1.391,2.961H28.7a2.376,2.376,0,0,0-.613-1.6,2.271,2.271,0,0,0-1.605-.5,1.991,1.991,0,0,0-1.754.84,4.707,4.707,0,0,0-.6,2.605V11.7a5.038,5.038,0,0,0,.559,2.7,1.954,1.954,0,0,0,1.762.852,2.314,2.314,0,0,0,1.621-.5,2.241,2.241,0,0,0,.613-1.535ZM37.313,17a2.507,2.507,0,0,1-.227-.758,2.732,2.732,0,0,1-2.133.914,3,3,0,0,1-2.059-.719,2.312,2.312,0,0,1-.816-1.812,2.389,2.389,0,0,1,1-2.062,4.915,4.915,0,0,1,2.879-.727h1.039v-.484a1.393,1.393,0,0,0-.3-.937,1.183,1.183,0,0,0-.949-.352,1.345,1.345,0,0,0-.895.273.929.929,0,0,0-.324.75H32.266a2.268,2.268,0,0,1,.453-1.359A3,3,0,0,1,34,8.746a4.669,4.669,0,0,1,1.859-.355,3.689,3.689,0,0,1,2.48.785,2.747,2.747,0,0,1,.918,2.207v3.664a4.041,4.041,0,0,0,.336,1.82V17Zm-1.867-1.57a1.945,1.945,0,0,0,.922-.223,1.462,1.462,0,0,0,.625-.6V13.156h-.844q-1.7,0-1.8,1.172l-.008.133a.9.9,0,0,0,.3.7A1.153,1.153,0,0,0,35.445,15.43Zm7.664-6.883.07.945a2.971,2.971,0,0,1,2.43-1.1A2.255,2.255,0,0,1,47.852,9.68a2.9,2.9,0,0,1,2.539-1.289,2.521,2.521,0,0,1,2.047.8,3.681,3.681,0,0,1,.672,2.41V17H50.844V11.609a1.61,1.61,0,0,0-.281-1.051,1.246,1.246,0,0,0-.992-.332,1.409,1.409,0,0,0-1.406.969l.008,5.8H45.914V11.617a1.59,1.59,0,0,0-.289-1.062,1.259,1.259,0,0,0-.984-.328,1.463,1.463,0,0,0-1.391.8V17H40.992V8.547Zm19.352,4.3a5.119,5.119,0,0,1-.867,3.168,2.872,2.872,0,0,1-2.422,1.137,2.639,2.639,0,0,1-2.2-1.055l-.1.9H54.844V5H57.1V9.3a2.571,2.571,0,0,1,2.055-.914,2.9,2.9,0,0,1,2.426,1.137,5.126,5.126,0,0,1,.879,3.2ZM60.2,12.688a3.363,3.363,0,0,0-.406-1.871,1.374,1.374,0,0,0-1.211-.59,1.489,1.489,0,0,0-1.484.883v3.336a1.509,1.509,0,0,0,1.5.891,1.394,1.394,0,0,0,1.438-1.078A5.562,5.562,0,0,0,60.2,12.688ZM66.234,17H63.969V8.547h2.266Zm-2.4-10.641a1.112,1.112,0,0,1,.34-.836,1.465,1.465,0,0,1,1.848,0,1.105,1.105,0,0,1,.344.836,1.108,1.108,0,0,1-.348.844,1.448,1.448,0,0,1-1.836,0A1.108,1.108,0,0,1,63.836,6.359ZM67.742,12.7a5.013,5.013,0,0,1,.484-2.242A3.546,3.546,0,0,1,69.621,8.93a4.069,4.069,0,0,1,2.113-.539,3.849,3.849,0,0,1,2.793,1.047,4.2,4.2,0,0,1,1.207,2.844l.016.578a4.418,4.418,0,0,1-1.086,3.121,4.209,4.209,0,0,1-5.832,0,4.5,4.5,0,0,1-1.09-3.187Zm2.258.16a3.16,3.16,0,0,0,.453,1.843,1.628,1.628,0,0,0,2.578.008,3.457,3.457,0,0,0,.461-2.015,3.128,3.128,0,0,0-.461-1.831,1.5,1.5,0,0,0-1.3-.649,1.474,1.474,0,0,0-1.281.646A3.516,3.516,0,0,0,70,12.856Zm10.773-.145a5.094,5.094,0,0,1,.887-3.148,2.877,2.877,0,0,1,2.426-1.172,2.589,2.589,0,0,1,2.039.922V5h2.266V17H86.352l-.109-.9a2.657,2.657,0,0,1-2.172,1.055,2.869,2.869,0,0,1-2.395-1.176A5.258,5.258,0,0,1,80.773,12.711Zm2.258.168a3.337,3.337,0,0,0,.414,1.823,1.349,1.349,0,0,0,1.2.634,1.511,1.511,0,0,0,1.477-.884V11.111a1.489,1.489,0,0,0-1.461-.884Q83.031,10.227,83.031,12.879Zm11,4.277A4.15,4.15,0,0,1,91,16.016a4.054,4.054,0,0,1-1.168-3.039v-.219a5.106,5.106,0,0,1,.492-2.277,3.612,3.612,0,0,1,1.395-1.547,3.914,3.914,0,0,1,2.059-.543,3.508,3.508,0,0,1,2.73,1.094,4.444,4.444,0,0,1,1,3.1v.922H92.125a2.1,2.1,0,0,0,.66,1.328,2,2,0,0,0,1.395.5,2.437,2.437,0,0,0,2.039-.945l1.109,1.242a3.389,3.389,0,0,1-1.375,1.121A4.511,4.511,0,0,1,94.031,17.156Zm-.258-6.945a1.411,1.411,0,0,0-1.09.455,2.357,2.357,0,0,0-.535,1.3h3.141v-.181a1.681,1.681,0,0,0-.406-1.165A1.456,1.456,0,0,0,93.773,10.211ZM30.559,39.336a1.481,1.481,0,0,0,1.016-.344,1.2,1.2,0,0,0,.406-.914H34.1a2.9,2.9,0,0,1-.469,1.574,3.093,3.093,0,0,1-1.262,1.109,3.949,3.949,0,0,1-1.77.395A3.67,3.67,0,0,1,27.738,40a4.56,4.56,0,0,1-1.047-3.184v-.148a4.508,4.508,0,0,1,1.039-3.117,3.627,3.627,0,0,1,2.852-1.164,3.555,3.555,0,0,1,2.543.9,3.2,3.2,0,0,1,.973,2.4H31.98a1.551,1.551,0,0,0-.406-1.072,1.51,1.51,0,0,0-2.223.163,3.333,3.333,0,0,0-.4,1.866v.235a3.375,3.375,0,0,0,.4,1.878A1.377,1.377,0,0,0,30.559,39.336ZM35.035,36.7a5.013,5.013,0,0,1,.484-2.242,3.546,3.546,0,0,1,1.395-1.523,4.069,4.069,0,0,1,2.113-.539,3.849,3.849,0,0,1,2.793,1.047,4.2,4.2,0,0,1,1.207,2.844l.016.578a4.418,4.418,0,0,1-1.086,3.121,4.209,4.209,0,0,1-5.832,0,4.5,4.5,0,0,1-1.09-3.187Zm2.258.16a3.16,3.16,0,0,0,.453,1.843,1.628,1.628,0,0,0,2.578.008,3.457,3.457,0,0,0,.461-2.015,3.128,3.128,0,0,0-.461-1.831,1.5,1.5,0,0,0-1.3-.649,1.474,1.474,0,0,0-1.281.646A3.516,3.516,0,0,0,37.293,36.856Zm9.219-4.309.07.977a2.951,2.951,0,0,1,2.43-1.133,2.453,2.453,0,0,1,2,.789,3.682,3.682,0,0,1,.672,2.359V41H49.426V35.594a1.465,1.465,0,0,0-.312-1.043,1.4,1.4,0,0,0-1.039-.324,1.553,1.553,0,0,0-1.43.813V41H44.387V32.547Zm6.531,4.164a5.094,5.094,0,0,1,.887-3.148,2.877,2.877,0,0,1,2.426-1.172,2.589,2.589,0,0,1,2.039.922V29H60.66V41H58.621l-.109-.9a2.657,2.657,0,0,1-2.172,1.055,2.869,2.869,0,0,1-2.395-1.176A5.258,5.258,0,0,1,53.043,36.711Zm2.258.168a3.337,3.337,0,0,0,.414,1.823,1.349,1.349,0,0,0,1.2.634,1.511,1.511,0,0,0,1.477-.884V35.111a1.489,1.489,0,0,0-1.461-.884Q55.3,34.227,55.3,36.879Zm12.172,3.262a2.831,2.831,0,0,1-2.312,1.016,2.67,2.67,0,0,1-2.074-.781,3.335,3.335,0,0,1-.73-2.289V32.547h2.258v5.467q0,1.322,1.2,1.322a1.63,1.63,0,0,0,1.578-.8V32.547H69.66V41H67.535Zm7.406-.8a1.481,1.481,0,0,0,1.016-.344,1.2,1.2,0,0,0,.406-.914h2.117a2.9,2.9,0,0,1-.469,1.574,3.093,3.093,0,0,1-1.262,1.109,3.949,3.949,0,0,1-1.77.395A3.67,3.67,0,0,1,72.059,40a4.56,4.56,0,0,1-1.047-3.184v-.148a4.508,4.508,0,0,1,1.039-3.117A3.627,3.627,0,0,1,74.9,32.391a3.555,3.555,0,0,1,2.543.9,3.2,3.2,0,0,1,.973,2.4H76.3a1.551,1.551,0,0,0-.406-1.072,1.51,1.51,0,0,0-2.223.163,3.333,3.333,0,0,0-.4,1.866v.235a3.375,3.375,0,0,0,.4,1.878A1.377,1.377,0,0,0,74.879,39.336Zm7.531-8.867v2.078h1.445V34.2H82.41v4.219a1.007,1.007,0,0,0,.18.672.9.9,0,0,0,.688.2,3.6,3.6,0,0,0,.664-.055v1.711a4.648,4.648,0,0,1-1.367.2,2.156,2.156,0,0,1-2.422-2.4V34.2H78.918V32.547h1.234V30.469ZM90.012,41a2.507,2.507,0,0,1-.227-.758,2.732,2.732,0,0,1-2.133.914,3,3,0,0,1-2.059-.719,2.312,2.312,0,0,1-.816-1.812,2.389,2.389,0,0,1,1-2.062,4.915,4.915,0,0,1,2.879-.727h1.039v-.484a1.393,1.393,0,0,0-.3-.937,1.183,1.183,0,0,0-.949-.352,1.345,1.345,0,0,0-.895.273.929.929,0,0,0-.324.75H84.965a2.268,2.268,0,0,1,.453-1.359,3,3,0,0,1,1.281-.98,4.669,4.669,0,0,1,1.859-.355,3.689,3.689,0,0,1,2.48.785,2.747,2.747,0,0,1,.918,2.207v3.664a4.041,4.041,0,0,0,.336,1.82V41Zm-1.867-1.57a1.945,1.945,0,0,0,.922-.223,1.462,1.462,0,0,0,.625-.6V37.156h-.844q-1.7,0-1.8,1.172l-.008.133a.9.9,0,0,0,.3.7A1.153,1.153,0,0,0,88.145,39.43Z" transform="translate(578 1836)" fill="#fff"/>
  </g>
</svg>
