<svg xmlns="http://www.w3.org/2000/svg" width="105" height="105" viewBox="0 0 105 105">
  <g id="Grupo_969595" data-name="Grupo 969595" transform="translate(-1102 -1217)">
    <circle id="Elipse_5348" data-name="Elipse 5348" cx="52.5" cy="52.5" r="52.5" transform="translate(1102 1217)" fill="#34bc85"/>
    <g id="estandares" transform="translate(1118.124 1234.103)">
      <g id="Grupo_969563" data-name="Grupo 969563" transform="translate(37.836 6.519)">
        <path id="Trazado_722432" data-name="Trazado 722432" d="M152.168,9.614v2.73a1.192,1.192,0,0,1-1.191,1.191H138.035a1.192,1.192,0,0,1-1.191-1.191V9.614a1.19,1.19,0,0,1,1.191-1.191h12.942A1.19,1.19,0,0,1,152.168,9.614Z" transform="translate(-136.844 -8.423)" fill="#efbf27"/>
      </g>
      <g id="Grupo_969564" data-name="Grupo 969564" transform="translate(26.295 9.075)">
        <path id="Trazado_722433" data-name="Trazado 722433" d="M126.8,20.344V63.933a1.19,1.19,0,0,1-1.191,1.191h-19.1V50.991a.7.7,0,0,0-1.1-.584l-5.512,3.742a.707.707,0,0,1-1.1-.584V50.991a.7.7,0,0,0-1.1-.584l-4.371,2.966-1.143.777a.707.707,0,0,1-1.1-.584V50.991a.7.7,0,0,0-1.1-.584l-1.577,1.07V20.344a1.192,1.192,0,0,1,1.191-1.191h10.35v1.365a1.192,1.192,0,0,0,1.191,1.191h12.942a1.192,1.192,0,0,0,1.191-1.191V19.153h10.35a1.192,1.192,0,0,1,1.191,1.191Z" transform="translate(-88.394 -19.153)" fill="#72c2e9"/>
      </g>
      <g id="Grupo_969565" data-name="Grupo 969565" transform="translate(26.295 38.536)">
        <path id="Trazado_722434" data-name="Trazado 722434" d="M108.173,145.205v14.133h-1.668V145.205a.7.7,0,0,0-1.1-.584l-5.512,3.742a.707.707,0,0,1-1.1-.584v-2.575a.7.7,0,0,0-1.1-.584l-4.371,2.966-1.143.777a.707.707,0,0,1-1.1-.584v-2.575a.7.7,0,0,0-1.1-.584l-1.577,1.07v-2.015l.641-.434a2.375,2.375,0,0,1,3.7,1.963v.76l.579-.393,3.435-2.33a2.374,2.374,0,0,1,3.7,1.963v.76l4.012-2.723A2.375,2.375,0,0,1,108.173,145.205Z" transform="translate(-88.394 -142.829)" fill="#4ba4c7"/>
      </g>
      <g id="Grupo_969566" data-name="Grupo 969566" transform="translate(31.219 14.37)">
        <path id="Trazado_722435" data-name="Trazado 722435" d="M137.624,42.1V77.642a.715.715,0,0,1-.715.715H122.252V67.925a.7.7,0,0,0-1.1-.584l-5.512,3.742a.707.707,0,0,1-1.1-.584V67.925a.7.7,0,0,0-1.1-.584l-4.371,2.966V42.1a.714.714,0,0,1,.715-.715h27.13a.714.714,0,0,1,.715.715Z" transform="translate(-109.064 -41.383)" fill="#eee"/>
      </g>
      <g id="Grupo_969567" data-name="Grupo 969567" transform="translate(37.307 23.338)">
        <path id="Trazado_722436" data-name="Trazado 722436" d="M138.76,91.274,135.682,88.2a3.632,3.632,0,0,1,5.136-5.136l.51.51,3.478-3.476a3.632,3.632,0,1,1,5.135,5.136L143.9,91.275A3.636,3.636,0,0,1,138.76,91.274Z" transform="translate(-134.62 -79.03)" fill="#aeaeae"/>
      </g>
      <g id="Grupo_969568" data-name="Grupo 969568" transform="translate(47.113 16.157)">
        <path id="Trazado_722437" data-name="Trazado 722437" d="M186.07,82.283h-6.591a.6.6,0,0,1,0-1.191h6V49.479a.6.6,0,0,1,1.191,0V81.688A.6.6,0,0,1,186.07,82.283Zm-8.973,0h-.715a.6.6,0,1,1,0-1.191h.715a.6.6,0,0,1,0,1.191Z" transform="translate(-175.787 -48.883)" fill="#fff"/>
      </g>
      <g id="Grupo_969569" data-name="Grupo 969569" transform="translate(31.219 38.536)">
        <path id="Trazado_722438" data-name="Trazado 722438" d="M123.919,145.205v10.431h-1.668V145.205a.7.7,0,0,0-1.1-.584l-5.512,3.742a.707.707,0,0,1-1.1-.584v-2.575a.7.7,0,0,0-1.1-.584l-4.371,2.966v-2.015l3.435-2.33a2.374,2.374,0,0,1,3.7,1.963v.76l4.012-2.723A2.375,2.375,0,0,1,123.919,145.205Z" transform="translate(-109.064 -142.829)" fill="#aeaeae"/>
      </g>
      <g id="Grupo_969579" data-name="Grupo 969579" transform="translate(7.471 34.563)">
        <g id="Grupo_969570" data-name="Grupo 969570" transform="translate(0.146 4.276)">
          <path id="Trazado_722439" data-name="Trazado 722439" d="M24.3,168.75H11.5a1.516,1.516,0,0,1-1.517-1.574l.776-21.428.059-1.647H23.41l.059,1.647.158,4.331Z" transform="translate(-9.986 -144.102)" fill="#fc5d3d"/>
        </g>
        <g id="Grupo_969571" data-name="Grupo 969571" transform="translate(1.964 7.11)">
          <path id="Trazado_722440" data-name="Trazado 722440" d="M18.194,176.024a.6.6,0,0,1-.573-.617l.026-.714a.6.6,0,1,1,1.19.043l-.026.714A.6.6,0,0,1,18.194,176.024Zm.112-3.095a.6.6,0,0,1-.573-.617l.57-15.743a.6.6,0,1,1,1.19.043l-.57,15.743A.6.6,0,0,1,18.306,172.929Z" transform="translate(-17.62 -155.996)" fill="#ffcac2"/>
        </g>
        <g id="Grupo_969572" data-name="Grupo 969572" transform="translate(0.922 4.277)">
          <path id="Trazado_722441" data-name="Trazado 722441" d="M25.95,145.753H13.245l.059-1.647H25.891Z" transform="translate(-13.245 -144.106)" fill="#b14e34"/>
        </g>
        <g id="Grupo_969573" data-name="Grupo 969573" transform="translate(13.785 5.642)">
          <path id="Trazado_722442" data-name="Trazado 722442" d="M90.394,150.541v21.4a1.176,1.176,0,0,1-1.177,1.174h-21.3l-.674-18.669,1.608-1.093,3.43-2.327,1.577-1.07a.7.7,0,0,1,1.1.584v2.575a.707.707,0,0,0,1.1.584l1.143-.777,4.371-2.966a.7.7,0,0,1,1.1.584v2.575a.707.707,0,0,0,1.1.584l5.512-3.742a.7.7,0,0,1,1.1.584Z" transform="translate(-67.244 -149.834)" fill="#eee"/>
        </g>
        <g id="Grupo_969574" data-name="Grupo 969574" transform="translate(13.785 9.163)">
          <path id="Trazado_722443" data-name="Trazado 722443" d="M69.566,184.379H67.917l-.675-18.671,1.609-1.092Z" transform="translate(-67.242 -164.617)" fill="#aeaeae"/>
        </g>
        <g id="Grupo_969575" data-name="Grupo 969575">
          <path id="Trazado_722444" data-name="Trazado 722444" d="M23.925,126.856v2.866a.7.7,0,0,1-.706.706H10.081a.7.7,0,0,1-.706-.706v-2.866a.7.7,0,0,1,.706-.706H23.219A.7.7,0,0,1,23.925,126.856Z" transform="translate(-9.375 -126.15)" fill="#eee"/>
        </g>
        <g id="Grupo_969576" data-name="Grupo 969576" transform="translate(17.169 15.708)">
          <path id="Trazado_722445" data-name="Trazado 722445" d="M84.046,200.138H82.165a.715.715,0,0,1-.715-.715v-6.617a.715.715,0,0,1,.715-.715h1.881a.715.715,0,0,1,.715.715v6.617A.715.715,0,0,1,84.046,200.138Z" transform="translate(-81.45 -192.091)" fill="#72c2e9"/>
        </g>
        <g id="Grupo_969577" data-name="Grupo 969577" transform="translate(24.042 15.708)">
          <path id="Trazado_722446" data-name="Trazado 722446" d="M112.9,200.138h-1.881a.715.715,0,0,1-.715-.715v-6.617a.715.715,0,0,1,.715-.715H112.9a.715.715,0,0,1,.715.715v6.617A.715.715,0,0,1,112.9,200.138Z" transform="translate(-110.302 -192.091)" fill="#72c2e9"/>
        </g>
        <g id="Grupo_969578" data-name="Grupo 969578" transform="translate(30.915 15.708)">
          <path id="Trazado_722447" data-name="Trazado 722447" d="M141.75,200.138h-1.881a.715.715,0,0,1-.715-.715v-6.617a.715.715,0,0,1,.715-.715h1.881a.715.715,0,0,1,.715.715v6.617A.715.715,0,0,1,141.75,200.138Z" transform="translate(-139.154 -192.091)" fill="#72c2e9"/>
        </g>
      </g>
      <g id="Grupo_969581" data-name="Grupo 969581" transform="translate(38.973 25.007)">
        <g id="Grupo_969580" data-name="Grupo 969580">
          <path id="Trazado_722448" data-name="Trazado 722448" d="M154.092,89.387l-6.046,6.044a1.97,1.97,0,0,1-2.778,0l-3.078-3.078a1.964,1.964,0,0,1,2.778-2.778l1.689,1.689,4.657-4.655a1.964,1.964,0,0,1,2.778,2.778Z" transform="translate(-141.616 -86.034)" fill="#13bf6d"/>
        </g>
      </g>
      <g id="Grupo_969584" data-name="Grupo 969584" transform="translate(48.226 35.626)">
        <g id="Grupo_969582" data-name="Grupo 969582">
          <path id="Trazado_722449" data-name="Trazado 722449" d="M182.812,137.292c-.262-1.207-.436-2-1.97-2.546a.61.61,0,0,1,0-1.131c.89-.314,1.533-.541,1.97-2.546a.552.552,0,0,1,1.088,0c.446,2.053,1.117,2.245,1.97,2.546a.609.609,0,0,1,0,1.131c-.89.314-1.534.541-1.97,2.546a.551.551,0,0,1-1.088,0Z" transform="translate(-180.46 -130.611)"/>
        </g>
        <g id="Grupo_969583" data-name="Grupo 969583" transform="translate(1.889 2.37)">
          <path id="Trazado_722450" data-name="Trazado 722450" d="M190.373,141.766a3.1,3.1,0,0,0-.965,1.165,3.234,3.234,0,0,0-1.02-1.155,3.1,3.1,0,0,0,1.009-1.215A3.177,3.177,0,0,0,190.373,141.766Z" transform="translate(-188.388 -140.561)" fill="#f0c020"/>
        </g>
      </g>
      <g id="Grupo_969585" data-name="Grupo 969585" transform="translate(25.698 16.98)">
        <circle id="Elipse_7734" data-name="Elipse 7734" cx="0.596" cy="0.596" r="0.596"/>
      </g>
      <g id="Grupo_969586" data-name="Grupo 969586" transform="translate(24.045 49.676)">
        <path id="Trazado_722451" data-name="Trazado 722451" d="M80.259,198.829h1.881a1.312,1.312,0,0,0,1.31-1.31V190.9a1.312,1.312,0,0,0-1.31-1.31H80.259a1.312,1.312,0,0,0-1.31,1.31v6.617A1.312,1.312,0,0,0,80.259,198.829ZM80.14,190.9a.119.119,0,0,1,.119-.119h1.881a.119.119,0,0,1,.119.119v6.617a.119.119,0,0,1-.119.119H80.259a.119.119,0,0,1-.119-.119Z" transform="translate(-78.949 -189.591)"/>
      </g>
      <g id="Grupo_969587" data-name="Grupo 969587" transform="translate(30.918 49.676)">
        <path id="Trazado_722452" data-name="Trazado 722452" d="M109.112,198.829h1.881a1.312,1.312,0,0,0,1.31-1.31V190.9a1.312,1.312,0,0,0-1.31-1.31h-1.881a1.312,1.312,0,0,0-1.31,1.31v6.617A1.312,1.312,0,0,0,109.112,198.829Zm-.119-7.928a.119.119,0,0,1,.119-.119h1.881a.119.119,0,0,1,.119.119v6.617a.119.119,0,0,1-.119.119h-1.881a.119.119,0,0,1-.119-.119Z" transform="translate(-107.802 -189.591)"/>
      </g>
      <g id="Grupo_969588" data-name="Grupo 969588" transform="translate(37.791 49.676)">
        <path id="Trazado_722453" data-name="Trazado 722453" d="M137.963,198.829h1.881a1.312,1.312,0,0,0,1.31-1.31V190.9a1.312,1.312,0,0,0-1.31-1.31h-1.881a1.312,1.312,0,0,0-1.31,1.31v6.617A1.312,1.312,0,0,0,137.963,198.829Zm-.119-7.928a.119.119,0,0,1,.119-.119h1.881a.119.119,0,0,1,.119.119v6.617a.119.119,0,0,1-.119.119h-1.881a.119.119,0,0,1-.119-.119Z" transform="translate(-136.653 -189.591)"/>
      </g>
      <g id="Grupo_969589" data-name="Grupo 969589" transform="translate(6.876 5.923)">
        <path id="Trazado_722454" data-name="Trazado 722454" d="M17.406,62.892a.6.6,0,1,0,0,1.191H43.23A1.773,1.773,0,0,0,45,62.313V55.64H63.51A1.792,1.792,0,0,0,65.3,53.854V10.265A1.79,1.79,0,0,0,63.51,8.478H53.756V7.71A1.788,1.788,0,0,0,51.97,5.923H39.027A1.788,1.788,0,0,0,37.241,7.71v.769H27.485A1.793,1.793,0,0,0,25.7,10.265v4.929a.6.6,0,0,0,1.193,0,0,0,0,0,0,0,0V10.265a.6.6,0,0,1,.6-.6H37.24v.769a1.794,1.794,0,0,0,1.788,1.787H41v1.548H31.934a1.312,1.312,0,0,0-1.31,1.31V42.98l-.88.6a.111.111,0,0,1-.176-.089V40.912a1.3,1.3,0,0,0-2.03-1.076l-.648.44V19.958a.6.6,0,1,0-1.191,0V41.084l-3.884,2.637-.157-4.332a1.3,1.3,0,0,0,.959-1.254V35.269a1.3,1.3,0,0,0-1.3-1.3H8.177a1.3,1.3,0,0,0-1.3,1.3v2.865a1.3,1.3,0,0,0,.962,1.255l-.815,22.5a2.117,2.117,0,0,0,2.113,2.192h3.507a.6.6,0,0,0,0-1.191H9.135a.925.925,0,0,1-.924-.936l.817-22.52H20.465l.85,23.456ZM63.51,9.669a.6.6,0,0,1,.6.6V53.854a.6.6,0,0,1-.6.6H45v-2.51H59.064a1.312,1.312,0,0,0,1.31-1.31V15.085a1.312,1.312,0,0,0-1.31-1.31H49.995V12.226H51.97a1.788,1.788,0,0,0,1.787-1.787v-.77ZM38.432,7.71a.6.6,0,0,1,.6-.6H51.97a.6.6,0,0,1,.6.6c0,2.819,0-.092,0,2.729a.6.6,0,0,1-.6.6H39.027a.6.6,0,0,1-.595-.595Zm3.761,4.517H48.8v1.548h-6.61Zm0,2.739H48.8V15.8a.6.6,0,0,1-.6.6H42.789a.6.6,0,0,1-.6-.6Zm-10.379.119a.118.118,0,0,1,.119-.119H41V15.8a1.788,1.788,0,0,0,1.787,1.787h5.419A1.788,1.788,0,0,0,49.995,15.8v-.834h9.069a.118.118,0,0,1,.119.119V50.629a.119.119,0,0,1-.119.119H45V40.912a1.3,1.3,0,0,0-2.031-1.076l-5.51,3.741a.111.111,0,0,1-.175-.089V40.912a1.3,1.3,0,0,0-2.03-1.076l-3.441,2.335V15.085ZM28.207,40.821a.109.109,0,0,1,.17.091v2.575a1.3,1.3,0,0,0,2.033,1.076l5.516-3.743a.108.108,0,0,1,.169.092v2.575a1.3,1.3,0,0,0,2.033,1.076l5.512-3.742a.109.109,0,0,1,.171.091V55.036s0,.006,0,.009,0,.006,0,.009v7.26a.581.581,0,0,1-.581.579H22.507l-.642-17.766ZM8.067,35.269a.109.109,0,0,1,.11-.11H21.315a.109.109,0,0,1,.11.11v2.865a.109.109,0,0,1-.11.11H8.177a.109.109,0,0,1-.11-.11Z" transform="translate(-6.876 -5.923)"/>
      </g>
      <g id="Grupo_969590" data-name="Grupo 969590" transform="translate(14.428 62.892)">
        <circle id="Elipse_7735" data-name="Elipse 7735" cx="0.596" cy="0.596" r="0.596"/>
      </g>
      <g id="Grupo_969591" data-name="Grupo 969591" transform="translate(47.483 31.138)">
        <path id="Trazado_722455" data-name="Trazado 722455" d="M177.513,111.94a.6.6,0,1,0,.843,0A.611.611,0,0,0,177.513,111.94Z" transform="translate(-177.339 -111.771)"/>
      </g>
      <g id="Grupo_969592" data-name="Grupo 969592" transform="translate(38.376 24.41)">
        <path id="Trazado_722456" data-name="Trazado 722456" d="M142.937,93.944a2.567,2.567,0,0,0,3.619,0l.993-.991a.6.6,0,0,0,0-.843.613.613,0,0,0-.843,0l-.991.991a1.373,1.373,0,0,1-1.934,0l-3.08-3.078a1.369,1.369,0,0,1,1.937-1.934l1.689,1.689a.61.61,0,0,0,.841,0l4.659-4.655a1.368,1.368,0,0,1,1.934,1.934l-1.684,1.684a.592.592,0,0,0,0,.843.61.61,0,0,0,.841,0L152.6,87.9a2.56,2.56,0,0,0-3.619-3.621l-4.235,4.233-1.27-1.267a2.56,2.56,0,0,0-3.618,3.621Z" transform="translate(-139.108 -83.529)"/>
      </g>
      <g id="Grupo_969593" data-name="Grupo 969593" transform="translate(10.841 23.709)">
        <path id="Trazado_722457" data-name="Trazado 722457" d="M24.332,87.743a.6.6,0,0,0,.842,0,2.769,2.769,0,0,0,0-3.911,1.573,1.573,0,0,1,0-2.227.6.6,0,0,0-.842-.842,2.764,2.764,0,0,0,0,3.911,1.574,1.574,0,0,1,0,2.227A.6.6,0,0,0,24.332,87.743Z" transform="translate(-23.521 -80.588)"/>
      </g>
      <g id="Grupo_969594" data-name="Grupo 969594" transform="translate(16.244 23.709)">
        <path id="Trazado_722458" data-name="Trazado 722458" d="M47.013,87.743a.6.6,0,0,0,.842,0,2.769,2.769,0,0,0,0-3.911,1.573,1.573,0,0,1,0-2.227.6.6,0,1,0-.842-.842,2.764,2.764,0,0,0,0,3.911,1.574,1.574,0,0,1,0,2.227A.6.6,0,0,0,47.013,87.743Z" transform="translate(-46.202 -80.588)"/>
      </g>
    </g>
  </g>
</svg>
