<svg xmlns="http://www.w3.org/2000/svg" width="105" height="105" viewBox="0 0 105 105">
  <g id="Grupo_969774" data-name="Grupo 969774" transform="translate(-401 -1141)">
    <circle id="Elipse_5346" data-name="Elipse 5346" cx="52.5" cy="52.5" r="52.5" transform="translate(401 1141)" fill="#34bc85"/>
    <g id="_FILLED_OUTLINE" data-name="/ FILLED_OUTLINE" transform="translate(412.013 1146.356)">
      <rect id="Rectángulo_341100" data-name="Rectángulo 341100" width="28.882" height="49.513" rx="5" transform="translate(20.356 17.032)" fill="#feb12e"/>
      <path id="Trazado_722803" data-name="Trazado 722803" d="M27.347,240.756a2.063,2.063,0,0,1-2.063-2.063V225.961a2.063,2.063,0,0,1,.6-1.459l3.522-3.522a2.918,2.918,0,0,0,0-4.126h0a2.918,2.918,0,0,0-4.126,0L19.7,222.439a2.063,2.063,0,0,0-.6,1.459v8.783a4.126,4.126,0,0,1-1.208,2.918L16,237.485,19.095,252.1l6.012-6.012a4.126,4.126,0,0,1,2.918-1.208h1.739a4.126,4.126,0,0,0,2.918-1.208l2.918-2.918Z" transform="translate(-4.927 -174.212)" fill="#e8bb85"/>
      <path id="Trazado_722804" data-name="Trazado 722804" d="M136,24l.641,2.563a2.063,2.063,0,0,0,2,1.563h11.22a2.063,2.063,0,0,0,2-1.563L152.5,24Z" transform="translate(-109.455 -6.968)" fill="#00b378"/>
      <rect id="Rectángulo_341101" data-name="Rectángulo 341101" width="4.126" height="4.126" rx="2.063" transform="translate(24.482 25.284)" fill="#bdecdc"/>
      <rect id="Rectángulo_341102" data-name="Rectángulo 341102" width="4.126" height="4.126" rx="2.063" transform="translate(32.734 25.284)" fill="#bdecdc"/>
      <rect id="Rectángulo_341103" data-name="Rectángulo 341103" width="4.126" height="4.126" rx="2.063" transform="translate(40.986 25.284)" fill="#bdecdc"/>
      <path id="Trazado_722805" data-name="Trazado 722805" d="M136,152h23.725a21.662,21.662,0,0,1,21.662,21.662h0a21.662,21.662,0,0,1-21.662,21.662h-2.063A21.662,21.662,0,0,1,136,173.662Z" transform="translate(-109.455 -118.464)" fill="#f9d6b4"/>
      <path id="Trazado_722806" data-name="Trazado 722806" d="M241.421,279.941a21.6,21.6,0,0,0,8.069,1.554h2.063a21.662,21.662,0,0,0,21.662-21.662h0a21.584,21.584,0,0,0-1.91-8.906A43.411,43.411,0,0,1,241.421,279.941Z" transform="translate(-201.282 -204.636)" fill="#d4b699"/>
      <g id="Grupo_969773" data-name="Grupo 969773" transform="translate(54.396 17.032)">
        <path id="Trazado_722807" data-name="Trazado 722807" d="M464,112h3.095v2.063H464Z" transform="translate(-449.559 -100.653)" fill="#bdecdc"/>
        <path id="Trazado_722808" data-name="Trazado 722808" d="M376,24h2.063v3.095H376Z" transform="translate(-372.906 -24)" fill="#bdecdc"/>
        <path id="Trazado_722809" data-name="Trazado 722809" d="M352,48h3.095v2.063H352Z" transform="translate(-352 -44.905)" fill="#bdecdc"/>
        <path id="Trazado_722810" data-name="Trazado 722810" d="M376,64h2.063v3.095H376Z" transform="translate(-372.906 -58.842)" fill="#bdecdc"/>
        <path id="Trazado_722811" data-name="Trazado 722811" d="M392,48h3.095v2.063H392Z" transform="translate(-386.842 -44.905)" fill="#bdecdc"/>
        <path id="Trazado_722812" data-name="Trazado 722812" d="M448,88h2.063v3.095H448Z" transform="translate(-435.622 -79.748)" fill="#bdecdc"/>
        <path id="Trazado_722813" data-name="Trazado 722813" d="M424,112h3.095v2.063H424Z" transform="translate(-414.716 -100.653)" fill="#bdecdc"/>
        <path id="Trazado_722814" data-name="Trazado 722814" d="M448,128h2.063v3.095H448Z" transform="translate(-435.622 -114.59)" fill="#bdecdc"/>
      </g>
      <path id="Trazado_722815" data-name="Trazado 722815" d="M238.693,208h-20.63A2.063,2.063,0,0,0,216,210.063v24.756h22.693Z" transform="translate(-179.14 -167.244)" fill="#badc61"/>
      <circle id="Elipse_7741" data-name="Elipse 7741" cx="7.221" cy="7.221" r="7.221" transform="translate(40.986 45.914)" fill="#bdecdc"/>
      <path id="Trazado_722816" data-name="Trazado 722816" d="M288,279.98v4.4a1.032,1.032,0,0,0,1.6.858l3.3-2.2a1.031,1.031,0,0,0,0-1.716l-3.3-2.2a1.032,1.032,0,0,0-1.6.858Z" transform="translate(-241.856 -229.044)" fill="#00b378"/>
      <path id="Trazado_722817" data-name="Trazado 722817" d="M238.693,404.126h-20.63a2.063,2.063,0,1,1,0-4.126h20.63Z" transform="translate(-179.14 -334.487)" fill="#feb12e"/>
      <path id="Trazado_722818" data-name="Trazado 722818" d="M337.756,404.126h6.994V400h-1.718A43.511,43.511,0,0,1,337.756,404.126Z" transform="translate(-285.197 -334.487)" fill="#00895c"/>
      <path id="Trazado_722819" data-name="Trazado 722819" d="M380.369,388.777v-1.661q-.837.855-1.722,1.661Z" transform="translate(-320.816 -323.264)" fill="#009866"/>
      <path id="Trazado_722820" data-name="Trazado 722820" d="M116.126,86.189a2.065,2.065,0,0,0,2.063-2.063V82.063A2.065,2.065,0,0,0,116.126,80h-2.063A2.065,2.065,0,0,0,112,82.063v2.063a2.065,2.065,0,0,0,2.063,2.063Zm-2.063-4.126h2.063v2.063h-2.064Z" transform="translate(-88.549 -55.748)"/>
      <path id="Trazado_722821" data-name="Trazado 722821" d="M178.063,86.189h2.063a2.065,2.065,0,0,0,2.063-2.063V82.063A2.065,2.065,0,0,0,180.126,80h-2.063A2.065,2.065,0,0,0,176,82.063v2.063A2.065,2.065,0,0,0,178.063,86.189Zm0-4.126h2.063v2.063h-2.064Z" transform="translate(-144.297 -55.748)"/>
      <path id="Trazado_722822" data-name="Trazado 722822" d="M242.063,86.189h2.063a2.065,2.065,0,0,0,2.063-2.063V82.063A2.065,2.065,0,0,0,244.126,80h-2.063A2.065,2.065,0,0,0,240,82.063v2.063A2.065,2.065,0,0,0,242.063,86.189Zm0-4.126h2.063v2.063h-2.064Z" transform="translate(-200.045 -55.748)"/>
      <path id="Trazado_722823" data-name="Trazado 722823" d="M50.27,32.5V19.095A3.1,3.1,0,0,0,47.176,16H22.419a3.1,3.1,0,0,0-3.095,3.095v23.12L14.042,47.5a3.074,3.074,0,0,0-.907,2.188v8.783a3.074,3.074,0,0,1-.906,2.188l-1.886,1.886L11.8,64l1.886-1.886A5.124,5.124,0,0,0,15.2,58.469V49.686a1.024,1.024,0,0,1,.3-.729l5.585-5.585a1.886,1.886,0,1,1,2.667,2.667l-3.522,3.522a3.074,3.074,0,0,0-.907,2.188V64.481a3.1,3.1,0,0,0,3.095,3.095h5.762l-1.157,1.157a3.074,3.074,0,0,1-2.188.906H23.1a5.124,5.124,0,0,0-3.647,1.511l-6.012,6.012L14.9,78.62l6.012-6.012A3.074,3.074,0,0,1,23.1,71.7h1.739a5.123,5.123,0,0,0,3.647-1.511L29.977,68.7a22.674,22.674,0,0,0,18.23,9.194H50.27a22.693,22.693,0,1,0,0-45.386ZM41.728,18.063l-.32,1.282a1.03,1.03,0,0,1-1,.781H29.188a1.03,1.03,0,0,1-1-.781l-.32-1.282ZM21.388,40.9v-21.8a1.033,1.033,0,0,1,1.032-1.032H25.74l.446,1.782a3.09,3.09,0,0,0,3,2.344h11.22a3.09,3.09,0,0,0,3-2.344l.446-1.782h3.321a1.033,1.033,0,0,1,1.032,1.032V32.5H25.514v9.749a4.011,4.011,0,0,0-.3-.34A3.95,3.95,0,0,0,21.388,40.9Zm1.032,24.617a1.033,1.033,0,0,1-1.032-1.032V51.749a1.025,1.025,0,0,1,.3-.729L25.212,47.5a4.013,4.013,0,0,0,.3-.34V55.2A22.555,22.555,0,0,0,28,65.513ZM50.27,75.828H48.207A20.654,20.654,0,0,1,27.577,55.2V34.567H50.27a20.63,20.63,0,0,1,0,41.26Z" transform="translate(0)"/>
      <path id="Trazado_722824" data-name="Trazado 722824" d="M376,24h2.063v3.095H376Z" transform="translate(-318.509 -6.968)"/>
      <path id="Trazado_722825" data-name="Trazado 722825" d="M352,48h3.095v2.063H352Z" transform="translate(-297.604 -27.874)"/>
      <path id="Trazado_722826" data-name="Trazado 722826" d="M376,64h2.063v3.095H376Z" transform="translate(-318.509 -41.811)"/>
      <path id="Trazado_722827" data-name="Trazado 722827" d="M392,48h3.095v2.063H392Z" transform="translate(-332.446 -27.874)"/>
      <path id="Trazado_722828" data-name="Trazado 722828" d="M448,88h2.063v3.095H448Z" transform="translate(-381.226 -62.716)"/>
      <path id="Trazado_722829" data-name="Trazado 722829" d="M424,112h3.095v2.063H424Z" transform="translate(-360.32 -83.622)"/>
      <path id="Trazado_722830" data-name="Trazado 722830" d="M448,128h2.063v3.095H448Z" transform="translate(-381.226 -97.559)"/>
      <path id="Trazado_722831" data-name="Trazado 722831" d="M464,112h3.095v2.063H464Z" transform="translate(-395.163 -83.622)"/>
      <path id="Trazado_722832" data-name="Trazado 722832" d="M281.09,279.227a2.059,2.059,0,0,0,2.118-.1l3.3-2.2a2.063,2.063,0,0,0,0-3.433l-3.3-2.2A2.063,2.063,0,0,0,280,273.011v4.4A2.06,2.06,0,0,0,281.09,279.227Zm.973-6.216,3.3,2.2-3.3,2.2Z" transform="translate(-234.887 -222.075)"/>
      <path id="Trazado_722833" data-name="Trazado 722833" d="M248.252,256.5A8.252,8.252,0,1,0,240,248.252,8.252,8.252,0,0,0,248.252,256.5Zm0-14.441a6.189,6.189,0,1,1-6.189,6.189A6.189,6.189,0,0,1,248.252,242.063Z" transform="translate(-200.045 -195.118)"/>
      <path id="Trazado_722834" data-name="Trazado 722834" d="M208,203.095v24.756a3.1,3.1,0,0,0,3.095,3.095h21.662V200H211.095A3.1,3.1,0,0,0,208,203.095Zm22.693,25.788h-19.6a1.032,1.032,0,1,1,0-2.063h19.6Zm0-4.126h-19.6a3.079,3.079,0,0,0-1.032.177V203.095a1.033,1.033,0,0,1,1.032-1.031h19.6Z" transform="translate(-172.171 -160.275)"/>
    </g>
  </g>
</svg>
