<svg xmlns="http://www.w3.org/2000/svg" width="105" height="105" viewBox="0 0 105 105">
  <g id="Grupo_969775" data-name="Grupo 969775" transform="translate(-751 -1141)">
    <circle id="Elipse_5347" data-name="Elipse 5347" cx="52.5" cy="52.5" r="52.5" transform="translate(751 1141)" fill="#34bc85"/>
    <g id="pensamiento" transform="translate(773.218 1163.218)">
      <circle id="Elipse_7742" data-name="Elipse 7742" cx="9.343" cy="9.343" r="9.343" transform="translate(39.691 2.246)" fill="#feb12e"/>
      <path id="Trazado_722835" data-name="Trazado 722835" d="M39.822,35.584V28.965A17.965,17.965,0,0,0,21.856,11H19.965A17.965,17.965,0,0,0,2,28.965v31.2H24.693V55.44H33.2a5.673,5.673,0,0,0,5.673-5.673V45.985l5.673-1.891Z" transform="translate(-0.054 -0.545)" fill="#e6ccab"/>
      <path id="Trazado_722836" data-name="Trazado 722836" d="M27.088,14.97A15.743,15.743,0,0,0,21.4,14H20.156C11.8,14,5.5,21.719,5.5,30.074l0,.3a22.61,22.61,0,0,0,1.574,8.1A17.019,17.019,0,0,1,8.13,42.606l.334,2.674A3.15,3.15,0,0,0,14.408,46.3l.906-1.811a21.288,21.288,0,0,1,5.46-6.873,9.455,9.455,0,0,1,3.739-1.892l5.418-1.354a7.671,7.671,0,0,0,5.826-7.5A12.927,12.927,0,0,0,27.088,14.97Z" transform="translate(-0.245 -0.708)" fill="#badc61"/>
      <path id="Trazado_722837" data-name="Trazado 722837" d="M21.423,34.232a1.682,1.682,0,0,0,1.669-1.695V31.1a1.951,1.951,0,0,1,.663-1.481,4.923,4.923,0,0,0,1.7-3.742,4.723,4.723,0,1,0-9.433-.49,4.939,4.939,0,0,0,1.666,4.222,1.969,1.969,0,0,1,.675,1.489v1.442a1.682,1.682,0,0,0,1.669,1.7Z" transform="translate(-0.817 -1.084)" fill="#feb12e"/>
      <path id="Trazado_722838" data-name="Trazado 722838" d="M20.169,34.837h1.39a1.682,1.682,0,0,0,1.669-1.695V32H18.5c0,.291,0,.706,0,1.142a1.682,1.682,0,0,0,1.669,1.7Z" transform="translate(-0.953 -1.688)" fill="#7483a6"/>
      <path id="Trazado_722839" data-name="Trazado 722839" d="M2.891,28.911a17.039,17.039,0,0,1,17.02-17.02H21.8a17.039,17.039,0,0,1,17.02,17.02V35.53a.943.943,0,0,0,.119.459L43.115,43.5l-4.593,1.531a.946.946,0,0,0-.646.9v3.782a4.733,4.733,0,0,1-4.728,4.728h-8.51a.945.945,0,0,0-.946.946v4.728h1.891V56.331h7.564a6.627,6.627,0,0,0,6.619-6.619v-3.1l5.027-1.675a.946.946,0,0,0,.527-1.356l-4.609-8.3V28.911A18.932,18.932,0,0,0,21.8,10H19.911A18.932,18.932,0,0,0,1,28.911v31.2H2.891Z" transform="translate(0 -0.49)"/>
      <path id="Trazado_722840" data-name="Trazado 722840" d="M30.1,35.23A8.58,8.58,0,0,0,36.647,26.8c-.064-5.687-3.617-10.579-9.273-12.765A16.667,16.667,0,0,0,21.349,13H20.1C11.644,13,4.5,20.794,4.5,30.028l0,.3a23.452,23.452,0,0,0,1.639,8.444,16.1,16.1,0,0,1,1,3.9l.333,2.675A4.1,4.1,0,0,0,15.2,46.666l.906-1.811a20.221,20.221,0,0,1,5.217-6.568,8.569,8.569,0,0,1,3.365-1.7Zm-9.988,1.6a22.094,22.094,0,0,0-5.7,7.178l-.906,1.811a2.2,2.2,0,0,1-4.16-.712l-.333-2.675A18.018,18.018,0,0,0,7.9,38.076a21.556,21.556,0,0,1-1.508-7.767l0-.289c0-8.2,6.279-15.129,13.71-15.129h1.247a14.789,14.789,0,0,1,5.343.907h0a11.981,11.981,0,0,1,8.064,11.023,6.7,6.7,0,0,1-5.11,6.575L24.229,34.75a10.459,10.459,0,0,0-4.113,2.081Z" transform="translate(-0.191 -0.653)"/>
      <path id="Trazado_722841" data-name="Trazado 722841" d="M24.393,21.426a5.529,5.529,0,0,0-4.367-1.39,5.759,5.759,0,0,0-5,5.209,5.909,5.909,0,0,0,1.987,5.025,1.024,1.024,0,0,1,.349.775v1.442a2.631,2.631,0,0,0,2.614,2.641h1.391a2.63,2.63,0,0,0,2.614-2.64V31.047a1,1,0,0,1,.334-.764,5.92,5.92,0,0,0,.077-8.857Zm-2.3,11.062a.737.737,0,0,1-.723.749H19.978a.738.738,0,0,1-.723-.75v-.2h2.837Zm.992-3.638a2.853,2.853,0,0,0-.919,1.55H19.181a2.9,2.9,0,0,0-.928-1.559,4.022,4.022,0,0,1-1.344-3.418,3.911,3.911,0,0,1,3.332-3.508,3.818,3.818,0,0,1,.433-.025,3.666,3.666,0,0,1,2.46.946,4.03,4.03,0,0,1-.051,6.013Z" transform="translate(-0.762 -1.035)"/>
      <path id="Trazado_722842" data-name="Trazado 722842" d="M20,16h1.891v2.837H20Z" transform="translate(-1.035 -0.817)"/>
      <path id="Trazado_722843" data-name="Trazado 722843" d="M28,25h2.837v1.891H28Z" transform="translate(-1.47 -1.307)"/>
      <path id="Trazado_722844" data-name="Trazado 722844" d="M11,25h2.837v1.891H11Z" transform="translate(-0.545 -1.307)"/>
      <path id="Trazado_722845" data-name="Trazado 722845" d="M0,0H1.891V2.837H0Z" transform="translate(12.553 18.618) rotate(-45)"/>
      <path id="Trazado_722846" data-name="Trazado 722846" d="M0,0H2.837V1.891H0Z" transform="translate(23.919 19.29) rotate(-45)"/>
      <path id="Trazado_722847" data-name="Trazado 722847" d="M51.782,5A3.786,3.786,0,0,0,48,8.782h1.891a1.891,1.891,0,1,1,1.891,1.891.945.945,0,0,0-.946.946V15.4h1.891V12.445A3.782,3.782,0,0,0,51.782,5Z" transform="translate(-2.56 -0.218)"/>
      <path id="Trazado_722848" data-name="Trazado 722848" d="M51,17h1.891v1.891H51Z" transform="translate(-2.723 -0.871)"/>
      <path id="Trazado_722849" data-name="Trazado 722849" d="M51.4,1A10.4,10.4,0,1,0,61.8,11.4,10.4,10.4,0,0,0,51.4,1Zm0,18.911a8.51,8.51,0,1,1,8.51-8.51,8.51,8.51,0,0,1-8.51,8.51Z" transform="translate(-2.178)"/>
    </g>
  </g>
</svg>
