<svg xmlns="http://www.w3.org/2000/svg" width="101" height="101" viewBox="0 0 101 101">
  <g id="Grupo_969808" data-name="Grupo 969808" transform="translate(-205 -2002)">
    <circle id="Elipse_7745" data-name="Elipse 7745" cx="50.5" cy="50.5" r="50.5" transform="translate(205 2002)" fill="#bde6d6"/>
    <g id="ambiental" transform="translate(223 2018.953)">
      <path id="Trazado_726314" data-name="Trazado 726314" d="M35.861,23.084c3.387-1.918,8.061-5.073,9.759-10.829a18.655,18.655,0,0,0,0-10.243H44.572a19.649,19.649,0,0,0-8.38,4.1,18.823,18.823,0,0,0-4.252,5.1Z" transform="translate(0.46 0.025)" fill="#a9f76d"/>
      <path id="Trazado_726315" data-name="Trazado 726315" d="M34.952,20.178l1.465-2.743a22.677,22.677,0,0,1,5.429-6.617l-1.31-1.574a24.661,24.661,0,0,0-5.922,7.22l-1.467,2.75Z" transform="translate(0.489 0.2)" fill="#1d945e"/>
      <path id="Trazado_726316" data-name="Trazado 726316" d="M30.965,26.468l-1.421-.159a16.346,16.346,0,0,1-10.517-5.531,16.53,16.53,0,0,1-3.79-7.906L14,6.013,24.844,7.468a13.432,13.432,0,0,1,7.745,3.857,13.6,13.6,0,0,1,3.945,9.582v.542a5.053,5.053,0,0,1-2.773,4.516,4.991,4.991,0,0,1-2.8.5Z" transform="translate(0.024 0.122)" fill="#c6ff7a"/>
      <path id="Trazado_726317" data-name="Trazado 726317" d="M34.226,39.57h2.049V31.491a16.113,16.113,0,0,0-2.731-9.2q-.263-.382-.558-.763a16.5,16.5,0,0,0-7.643-5.46L24.673,18a14.465,14.465,0,0,1,6.7,4.781c.172.222.335.446.488.668a14.077,14.077,0,0,1,2.369,8.038Z" transform="translate(0.283 0.366)" fill="#1d945e"/>
      <path id="Trazado_726318" data-name="Trazado 726318" d="M41.373,4.845c-.747-.688-3.078.455-4.437,1.876-.922.962-2.081,2.774-1.508,3.549s2.746.361,4.125-.694c1.765-1.35,2.582-4.029,1.82-4.731Z" transform="translate(0.541 0.088)" fill="#eefde2"/>
      <path id="Trazado_726319" data-name="Trazado 726319" d="M26.666,11.421c.192-1.229-2.572-2.834-4.954-3.248-1.612-.281-4.258-.227-4.658.889s1.512,3.052,3.533,3.739C23.173,13.68,26.47,12.681,26.666,11.421Z" transform="translate(0.097 0.171)" fill="#eefde2"/>
      <circle id="Elipse_7744" data-name="Elipse 7744" cx="16.388" cy="16.388" r="16.388" transform="translate(18.121 30.717)" fill="#66c2ed"/>
      <path id="Trazado_726320" data-name="Trazado 726320" d="M34.243,30.013a16.3,16.3,0,0,0-7.089,1.626,16.362,16.362,0,0,0,20.324,24.4A16.367,16.367,0,0,0,34.243,30.013Z" transform="translate(0.267 0.704)" fill="#76d8ff"/>
      <path id="Trazado_726321" data-name="Trazado 726321" d="M50.267,46.332a16.364,16.364,0,0,0-7.04-13.451l-3.14,3.146A3.71,3.71,0,0,0,39,38.65v4.1a3.713,3.713,0,0,0,1.087,2.623l2.948,2.948a3.71,3.71,0,0,1,1.087,2.623,3.713,3.713,0,0,0,1.087,2.623l2.119,2.119a16.308,16.308,0,0,0,2.94-9.352Z" transform="translate(0.631 0.774)" fill="#aaf66f"/>
      <path id="Trazado_726322" data-name="Trazado 726322" d="M32.94,40.672a2.049,2.049,0,0,0-1.448-.6H24.766a2.049,2.049,0,0,1-1.137-.344l-3.171-2.115a16.343,16.343,0,0,0,9.833,24.454V60.634a12.54,12.54,0,0,0-3.673-8.867,2.049,2.049,0,0,1,1.448-3.5h5.056a2.049,2.049,0,0,0,1.832-1.133l.819-1.639a2.049,2.049,0,0,0-.383-2.364Z" transform="translate(0.121 0.889)" fill="#86ee88"/>
      <path id="Trazado_726323" data-name="Trazado 726323" d="M32.794,40.616a2.049,2.049,0,0,0-1.448-.6H24.621a2.054,2.054,0,0,1-.576-.085C24.02,40.3,24,40.666,24,41.04a16.289,16.289,0,0,0,2.183,8.149,1.988,1.988,0,0,1,.289-.379,2.049,2.049,0,0,1,1.448-.6h5.056a2.049,2.049,0,0,0,1.832-1.133l.819-1.639a2.049,2.049,0,0,0-.383-2.364Z" transform="translate(0.267 0.945)" fill="#aaf66f"/>
      <path id="Trazado_726324" data-name="Trazado 726324" d="M36.435,29.792a16.626,16.626,0,0,0-.863-3.712A6.006,6.006,0,0,0,37.149,23.8c3.508-2.023,8.178-5.361,9.913-11.242a19.62,19.62,0,0,0,0-10.807A1.024,1.024,0,0,0,46.084,1H45.032a1.065,1.065,0,0,0-.22.024,20.708,20.708,0,0,0-8.819,4.313,19.782,19.782,0,0,0-3.822,4.331A14.525,14.525,0,0,0,25,6.562L14.161,5.106a1.024,1.024,0,0,0-1.144,1.2l1.239,6.863a17.555,17.555,0,0,0,4.022,8.4,17.334,17.334,0,0,0,11.176,5.875l1.421.158a5.9,5.9,0,0,0,2.914-.41,14.5,14.5,0,0,1,.571,2.5,17.406,17.406,0,1,0,2.076.1ZM37.31,6.906a18.626,18.626,0,0,1,7.836-3.857h.139a17.5,17.5,0,0,1-.187,8.929c-1.3,4.422-4.467,7.208-7.515,9.163v-.124a14.749,14.749,0,0,0-.487-3.707,22.19,22.19,0,0,1,5.239-6.3L41.024,9.431a23.891,23.891,0,0,0-4.814,5.4,14.558,14.558,0,0,0-2.52-3.74,17.784,17.784,0,0,1,3.62-4.189ZM31.1,25.558,29.682,25.4a15.286,15.286,0,0,1-9.858-5.183A15.505,15.505,0,0,1,16.272,12.8l-.988-5.477,9.449,1.268a12.5,12.5,0,0,1,10.8,12.424v.543a4.025,4.025,0,0,1-.86,2.493,14.66,14.66,0,0,0-.846-1.409q-.263-.381-.558-.762a16.5,16.5,0,0,0-7.643-5.46l-.67,1.936a14.46,14.46,0,0,1,6.7,4.782q.258.333.488.667a12.487,12.487,0,0,1,.873,1.483,3.937,3.937,0,0,1-1.91.269ZM19.146,47.092a15.271,15.271,0,0,1,1.776-7.149l2.261,1.516a3.065,3.065,0,0,0,1.7.512h6.726a1.024,1.024,0,0,1,.724.3l2.452,2.458a1.024,1.024,0,0,1,.193,1.182l-.819,1.644a1.017,1.017,0,0,1-.916.566H28.188a3.073,3.073,0,0,0-2.172,5.245A11.444,11.444,0,0,1,29.388,61.5v.055A15.376,15.376,0,0,1,19.146,47.092ZM34.51,62.456a15.424,15.424,0,0,1-3.073-.307v-.642a13.476,13.476,0,0,0-3.973-9.591,1.024,1.024,0,0,1,.724-1.75h5.056a3.057,3.057,0,0,0,2.748-1.7l.819-1.645a3.073,3.073,0,0,0-.576-3.547l-2.458-2.452a3.05,3.05,0,0,0-2.164-.9H24.887a1.018,1.018,0,0,1-.567-.172L22,38.2a15.287,15.287,0,0,1,20.227-4.376l-2.234,2.234a4.765,4.765,0,0,0-1.387,3.347v4.1a4.765,4.765,0,0,0,1.387,3.347L42.941,49.8a2.706,2.706,0,0,1,.787,1.9,4.765,4.765,0,0,0,1.387,3.347L46.6,56.537A15.334,15.334,0,0,1,34.51,62.456ZM47.773,54.81l-1.21-1.21a2.706,2.706,0,0,1-.787-1.9,4.765,4.765,0,0,0-1.387-3.347l-2.948-2.948a2.706,2.706,0,0,1-.787-1.9v-4.1a2.706,2.706,0,0,1,.787-1.9L43.955,35a15.281,15.281,0,0,1,3.818,19.81Z" transform="translate(0 0)"/>
    </g>
  </g>
</svg>
