<svg xmlns="http://www.w3.org/2000/svg" width="105" height="105" viewBox="0 0 105 105">
  <g id="Grupo_965717" data-name="Grupo 965717" transform="translate(-751 -1131)">
    <g id="Grupo_965714" data-name="Grupo 965714">
      <circle id="Elipse_5347" data-name="Elipse 5347" cx="52.5" cy="52.5" r="52.5" transform="translate(751 1131)" fill="#34bc85"/>
      <g id="surface1" transform="translate(779.001 1159.774)">
        <path id="Trazado_722290" data-name="Trazado 722290" d="M93.339,38.587l-.568-1.76-3.237,4.391A3.15,3.15,0,0,1,87.008,42.5a3.143,3.143,0,0,1-2.555-5.006l3.123-4.24-2.12.284A7.276,7.276,0,0,0,81.1,35.644a7.391,7.391,0,0,0-1.893,7.192L59.289,62.73A7.369,7.369,0,0,0,50.27,72l.558,1.789,3.388-4.6a3.134,3.134,0,1,1,5.044,3.719l-3.293,4.467,2.129-.218a7.269,7.269,0,0,0,4.438-2.111,7.4,7.4,0,0,0,1.893-7.192L84.3,47.985a7.386,7.386,0,0,0,9.038-9.4Zm0,0" transform="translate(-45.855 -30.322)" fill="#f29f33"/>
        <path id="Trazado_722291" data-name="Trazado 722291" d="M40.144,21.111l-3.417.776a11.365,11.365,0,0,0-2.375-3.35l1.893-2.962L32.128,13l-1.893,2.962a11.612,11.612,0,0,0-4.041-.7L25.5,11.855l-4.732,1.088.776,3.416a11.362,11.362,0,0,0-3.35,2.376l-2.962-1.893L12.67,20.912l2.962,1.893a11.348,11.348,0,0,0-.7,4.041l-3.416.776,1.06,4.732,3.464-.842a11.365,11.365,0,0,0,2.375,3.35l-1.892,2.962,4.05,2.564,1.893-2.962a11.349,11.349,0,0,0,3.928.7h.057l.454,2.025L41.222,25.871Zm-12.5,11.243a5.8,5.8,0,1,1,4.382-6.946A5.8,5.8,0,0,1,27.642,32.354Zm0,0" transform="translate(-10.574 -10.678)" fill="#4caecc"/>
        <path id="Trazado_722292" data-name="Trazado 722292" d="M123.543,116.315a6.757,6.757,0,1,0-5.108,8.076l.016,0a6.71,6.71,0,0,0,5.108-8Zm-6.625,6.35a4.855,4.855,0,0,1-1.069-9.6,4.937,4.937,0,0,1,1.079-.123,4.841,4.841,0,0,1,.028,9.681Zm0,0" transform="translate(-101.175 -101.747)" fill="#3a322b"/>
        <path id="Trazado_722293" data-name="Trazado 722293" d="M46.812,5.767a.946.946,0,0,0-.8.388l-3.095,4.192a2.233,2.233,0,0,1-3.057.464,2.2,2.2,0,0,1-.464-3.066L42.308,3.79a.946.946,0,0,0-.157-1.329.96.96,0,0,0-.458-.2,8.31,8.31,0,0,0-9.378,9.909L31.2,13.291l-.7-3.085a.947.947,0,0,0-1.135-.71h0l-2.7.615A12.213,12.213,0,0,0,24.97,7.726l1.476-2.337a.947.947,0,0,0-.293-1.306L22.084,1.518a.947.947,0,0,0-1.306.293L19.3,4.158a12.274,12.274,0,0,0-2.839-.5L15.857.96A.946.946,0,0,0,14.722.25h0L9.989,1.319a.946.946,0,0,0-.74,1.115.048.048,0,0,1,0,.012l.634,2.659A12.213,12.213,0,0,0,7.5,6.8L5.163,5.323a.947.947,0,0,0-1.306.293L1.292,9.685a.947.947,0,0,0,.293,1.306l2.337,1.477a12.274,12.274,0,0,0-.5,2.839l-2.688.682a.946.946,0,0,0-.71,1.135h0l1.06,4.732a.946.946,0,0,0,1.135.71h0l2.7-.605a12.281,12.281,0,0,0,1.694,2.385L5.134,26.682a.946.946,0,0,0,.331,1.268l4.069,2.565a.939.939,0,0,0,.5.142H10.2a.942.942,0,0,0,.587-.417L12.26,27.9a12.279,12.279,0,0,0,2.839.5l.18.8-2.2,2.2a8.316,8.316,0,0,0-9.991,8.161,8.316,8.316,0,0,0,1.161,4.227.947.947,0,0,0,1.571.076l3.246-4.4a2.233,2.233,0,0,1,3.066-.464,2.186,2.186,0,0,1,.511,3.019l-3.095,4.2a.946.946,0,0,0,.644,1.476,8.506,8.506,0,0,0,1.306.1,8.255,8.255,0,0,0,5.877-2.432,8.347,8.347,0,0,0,2.262-7.571L38.778,18.666a8.319,8.319,0,0,0,8.8-12.445A.944.944,0,0,0,46.812,5.767ZM12.194,25.859a.947.947,0,0,0-1.126.388L9.705,28.414l-2.47-1.542L8.6,24.7a.947.947,0,0,0-.142-1.183,10.4,10.4,0,0,1-2.177-3.066.947.947,0,0,0-1.07-.53l-2.489.568-.644-2.839,2.489-.568A.945.945,0,0,0,5.3,16.14a10.423,10.423,0,0,1,.644-3.71A.948.948,0,0,0,5.56,11.3L3.4,9.932l1.552-2.47L7.122,8.824A.946.946,0,0,0,8.3,8.692a10.4,10.4,0,0,1,3.066-2.177.946.946,0,0,0,.52-1.07l-.568-2.489,2.839-.644L14.73,4.8a.946.946,0,0,0,.946.738,10.586,10.586,0,0,1,3.71.644A.947.947,0,0,0,20.513,5.8l1.363-2.167,2.47,1.552L22.983,7.348a.947.947,0,0,0,.142,1.183,10.425,10.425,0,0,1,2.214,3.076.946.946,0,0,0,1.07.521l2.489-.568.757,3.331-12.738,12.7-.095-.35a.946.946,0,0,0-.947-.738A10.443,10.443,0,0,1,12.194,25.859Zm32.811-10.8a6.379,6.379,0,0,1-4.543,1.893,6.463,6.463,0,0,1-1.732-.237.944.944,0,0,0-.946.246L17.91,36.837a.945.945,0,0,0-.246.947,6.456,6.456,0,0,1-1.647,6.274A6.37,6.37,0,0,1,12.156,45.9l2.025-2.744a4.081,4.081,0,0,0-6.568-4.846L5.333,41.408A6.426,6.426,0,0,1,13.2,33.326a.944.944,0,0,0,.947-.246L34.017,13.158a.945.945,0,0,0,.246-.946A6.443,6.443,0,0,1,35.91,5.938,6.371,6.371,0,0,1,39.7,4.1L37.869,6.619a4.081,4.081,0,0,0,6.568,4.846l2.139-2.906A6.406,6.406,0,0,1,45.005,15.061Zm0,0" transform="translate(0 0)" fill="#3a322b"/>
      </g>
    </g>
  </g>
</svg>
