<svg xmlns="http://www.w3.org/2000/svg" width="105" height="105" viewBox="0 0 105 105">
  <g id="Grupo_965721" data-name="Grupo 965721" transform="translate(-1102 -1131)">
    <path id="Trazado_726379" data-name="Trazado 726379" d="M52.5,0A52.5,52.5,0,1,1,0,52.5,52.5,52.5,0,0,1,52.5,0Z" transform="translate(1102 1131)" fill="#34bc85"/>
    <g id="lupa" transform="translate(1131 1160)">
      <g id="Grupo_965719" data-name="Grupo 965719" transform="translate(0.756 0.667)">
        <path id="Trazado_722313" data-name="Trazado 722313" d="M198.745,32.925a14.959,14.959,0,0,1-21.155,0,15.244,15.244,0,0,1-1.132-1.266,14.961,14.961,0,0,1,21.021-21.021,15.247,15.247,0,0,1,1.266,1.132A14.959,14.959,0,0,1,198.745,32.925Z" transform="translate(-158.338 -7.389)" fill="#317794"/>
        <path id="Trazado_722314" data-name="Trazado 722314" d="M231.518,65.7a14.959,14.959,0,0,1-21.155,0,15.241,15.241,0,0,1-1.132-1.266,14.961,14.961,0,0,0,21.021-21.021,15.253,15.253,0,0,1,1.266,1.132A14.959,14.959,0,0,1,231.518,65.7Z" transform="translate(-191.111 -40.163)" fill="#04627e"/>
        <path id="Trazado_722315" data-name="Trazado 722315" d="M224.2,58.439a12.251,12.251,0,1,1,0-17.316,12.244,12.244,0,0,1,0,17.316Z" transform="translate(-185.708 -34.817)" fill="#dcf3ff"/>
        <path id="Trazado_722316" data-name="Trazado 722316" d="M250.173,84.63a12.255,12.255,0,0,1-18.328-1.143,12.246,12.246,0,0,0,17.21-17.163,12.251,12.251,0,0,1,1.118,18.306Z" transform="translate(-211.685 -61.007)" fill="#aedff4"/>
        <path id="Trazado_722317" data-name="Trazado 722317" d="M25.257,320.051,12.664,332.644A2.509,2.509,0,0,1,9.115,329.1L21.709,316.5l1.817-.068,1.87-.071Z" transform="translate(-8.381 -288.489)" fill="#b56c3a"/>
        <path id="Trazado_722318" data-name="Trazado 722318" d="M26.07,320.052,13.477,332.645a2.508,2.508,0,0,1-4.2-1.145,2.506,2.506,0,0,0,2.4-.655l12.593-12.593.069-1.817,1.87-.071Z" transform="translate(-9.194 -288.489)" fill="#a35623"/>
        <path id="Trazado_722319" data-name="Trazado 722319" d="M0,0H3.139V5.018H0Z" transform="translate(1.289 39.945) rotate(-45)" fill="#ffb651"/>
        <path id="Trazado_722320" data-name="Trazado 722320" d="M0,0H3.139V2.475H0Z" transform="translate(3.087 41.744) rotate(-45)" fill="#ff9827"/>
      </g>
      <g id="Grupo_965720" data-name="Grupo 965720" transform="translate(0)">
        <path id="Trazado_722321" data-name="Trazado 722321" d="M41.641,4.572A15.636,15.636,0,0,0,19.061,26.2l-1.66,1.66-3.423.13a.677.677,0,0,0-.453.2l-1.475,1.475a.677.677,0,0,0,.957.957L14.3,29.327l2.693-.1-.1,2.693-9.069,9.07L5.226,38.4l5.585-5.585a.677.677,0,0,0-.957-.957L.933,40.775a3.186,3.186,0,1,0,4.5,4.505L18.031,32.687a.677.677,0,0,0,.2-.453l.13-3.423,1.659-1.659A15.636,15.636,0,0,0,41.641,4.572ZM6.86,41.944,5.6,43.207,3.006,40.616l1.263-1.263ZM3.185,44.86a1.832,1.832,0,0,1-1.3-3.128l.16-.16,2.591,2.591-.159.159A1.82,1.82,0,0,1,3.185,44.86Zm37.5-19.133a14.275,14.275,0,1,1,0-20.2A14.189,14.189,0,0,1,40.684,25.727Z" transform="translate(0)"/>
        <path id="Trazado_722322" data-name="Trazado 722322" d="M217.874,33.819a12.924,12.924,0,0,0-15.939-1.85.677.677,0,0,0,.714,1.15A11.615,11.615,0,0,1,210,31.457a11.567,11.567,0,1,1-9.443,3.319.677.677,0,1,0-.957-.957,12.919,12.919,0,1,0,18.27,0Z" transform="translate(-178.154 -27.326)"/>
        <path id="Trazado_722323" data-name="Trazado 722323" d="M410.2,199.807a.677.677,0,0,0-.86.42,6.708,6.708,0,0,1-.964,1.826.677.677,0,0,0,1.086.808,8.061,8.061,0,0,0,1.158-2.194A.677.677,0,0,0,410.2,199.807Z" transform="translate(-371.41 -181.748)"/>
        <path id="Trazado_722324" data-name="Trazado 722324" d="M341.4,80.47a9.209,9.209,0,0,0-9.2-9.2.677.677,0,0,0,0,1.353,7.854,7.854,0,0,1,7.845,7.845.677.677,0,1,0,1.353,0Z" transform="translate(-301.612 -64.842)"/>
      </g>
    </g>
  </g>
</svg>
