<svg xmlns="http://www.w3.org/2000/svg" width="101" height="101" viewBox="0 0 101 101">
  <g id="Grupo_969874" data-name="Grupo 969874" transform="translate(-228 -1736)">
    <g id="Grupo_969821" data-name="Grupo 969821" transform="translate(26 297)">
      <circle id="Elipse_7745" data-name="Elipse 7745" cx="50.5" cy="50.5" r="50.5" transform="translate(202 1439)" fill="#fff"/>
    </g>
    <g id="conocimiento" transform="translate(247.319 1753.313)">
      <path id="Trazado_726382" data-name="Trazado 726382" d="M156.833,345.993H188.3v17.782H156.833a8.891,8.891,0,0,1-8.891-8.891h0A8.891,8.891,0,0,1,156.833,345.993Z" transform="translate(-131.079 -306.549)" fill="#edf2fa"/>
      <path id="Trazado_726383" data-name="Trazado 726383" d="M373.751,359.1l-3.876-2.166L366,359.1V345.993h7.751Z" transform="translate(-324.281 -306.549)" fill="#feb12e"/>
      <path id="Trazado_726384" data-name="Trazado 726384" d="M25.723,354.884h0a8.891,8.891,0,0,1,8.891-8.891H18.891A8.891,8.891,0,0,0,10,354.884h0a8.891,8.891,0,0,0,8.891,8.891H34.614A8.891,8.891,0,0,1,25.723,354.884Z" transform="translate(-8.86 -306.549)" fill="#34bc85"/>
      <path id="Trazado_726385" data-name="Trazado 726385" d="M177.142,201.993H206.9v16.414H177.142a8.207,8.207,0,0,1-8.207-8.207h0A8.207,8.207,0,0,1,177.142,201.993Z" transform="translate(-149.679 -178.963)" fill="#fff"/>
      <path id="Trazado_726386" data-name="Trazado 726386" d="M75.961,210.2h0a8.207,8.207,0,0,1,8.207-8.207H72.207A8.207,8.207,0,0,0,64,210.2h0a8.207,8.207,0,0,0,8.207,8.207H84.168A8.207,8.207,0,0,1,75.961,210.2Z" transform="translate(-56.705 -178.963)" fill="#badc61"/>
      <path id="Trazado_726387" data-name="Trazado 726387" d="M283.1,22.909l0,0c0-.028-.65-6.47,2.93-9.983s9.913-2.89,9.941-2.887h0c.005.054.8,6.63-2.777,10.137S283.1,22.909,283.1,22.909Z" transform="translate(-250.788 -8.847)" fill="#62cd4d"/>
      <path id="Trazado_726388" data-name="Trazado 726388" d="M171.79,20.174c-3.573-3.507-2.782-10.083-2.777-10.137h0c.028,0,6.359-.626,9.941,2.887s2.934,9.955,2.93,9.983l0,0S175.378,23.7,171.79,20.174Z" transform="translate(-149.679 -8.848)" fill="#a0e557"/>
      <path id="Trazado_726389" data-name="Trazado 726389" d="M224.059,439.993h-6.99a1.14,1.14,0,1,0,0,2.28h6.99a1.14,1.14,0,0,0,0-2.28Z" transform="translate(-191.316 -389.834)"/>
      <path id="Trazado_726390" data-name="Trazado 726390" d="M316.11,439.993a1.14,1.14,0,1,0,.806.334A1.148,1.148,0,0,0,316.11,439.993Z" transform="translate(-279.068 -389.834)"/>
      <path id="Trazado_726391" data-name="Trazado 726391" d="M57.221,21.891H33.4V15.272q.236.006.509.007c2.342,0,6.53-.423,9.3-3.139,3.723-3.654,3.219-10.046,3.118-11.016A1.14,1.14,0,0,0,45.259.052c-.567-.05-7.011-.52-10.816,3.211a9.925,9.925,0,0,0-2.185,3.321,9.926,9.926,0,0,0-2.185-3.321C26.286-.451,19.885,0,19.268.051A1.14,1.14,0,0,0,18.2,1.105c-.094.888-.636,7.352,3.116,11.035,2.767,2.716,6.955,3.139,9.3,3.139.181,0,.351,0,.509-.007v6.619H15.5A9.341,9.341,0,0,0,9.418,38.324a10.03,10.03,0,0,0,.613,20.042h47.19a1.14,1.14,0,0,0,1.14-1.14V23.03A1.14,1.14,0,0,0,57.221,21.891Zm-21.181-17c2.374-2.329,6.27-2.613,8.07-2.6.055,1.849-.125,5.89-2.5,8.224s-6.38,2.525-8.2,2.475C33.385,11.188,33.643,7.243,36.04,4.891Zm-4.927,8.1c-1.819.053-5.809-.127-8.2-2.477h0c-2.378-2.334-2.559-6.376-2.5-8.225,1.8-.007,5.7.273,8.07,2.6C30.874,7.244,31.131,11.191,31.113,12.99ZM42.859,40.584H48.33V50.61l-2.18-1.218a1.139,1.139,0,0,0-1.112,0l-2.18,1.218Zm13.222,0v3.648H50.61V40.584ZM50.61,46.512h5.471v3.648H50.61ZM29.18,24.17h26.9v3.192h-28.5a1.14,1.14,0,1,0,0,2.28h28.5V38.3H27.463a7.067,7.067,0,1,1,0-14.134ZM8.435,31.237A7.075,7.075,0,0,1,15.5,24.17h5.854a9.327,9.327,0,0,0,0,14.134H15.5A7.075,7.075,0,0,1,8.435,31.237Zm1.6,24.849a7.751,7.751,0,0,1,0-15.5h9.364a10.019,10.019,0,0,0,0,15.5Zm19.15,0H25.754a7.751,7.751,0,0,1,0-15.5H40.579v3.648H25.753a1.14,1.14,0,1,0,0,2.28H40.579v6.041a1.14,1.14,0,0,0,1.7.995l3.32-1.855,3.32,1.855a1.14,1.14,0,0,0,1.7-.995v-.114h5.471v3.648Z" transform="translate(0 0)"/>
      <path id="Trazado_726392" data-name="Trazado 726392" d="M233.14,290.273h19.32a1.14,1.14,0,1,0,0-2.28H233.14a1.14,1.14,0,1,0,0,2.28Z" transform="translate(-205.555 -255.16)"/>
      <path id="Trazado_726393" data-name="Trazado 726393" d="M447.64,290.273a1.14,1.14,0,1,0-.806-.334A1.149,1.149,0,0,0,447.64,290.273Z" transform="translate(-395.605 -255.16)"/>
    </g>
  </g>
</svg>
