<svg xmlns="http://www.w3.org/2000/svg" width="101" height="101" viewBox="0 0 101 101">
  <g id="Grupo_969852" data-name="Grupo 969852" transform="translate(-228 -2391)">
    <g id="Grupo_969821" data-name="Grupo 969821" transform="translate(26 952)">
      <circle id="Elipse_7745" data-name="Elipse 7745" cx="50.5" cy="50.5" r="50.5" transform="translate(202 1439)" fill="#fff"/>
    </g>
    <g id="cognitivo" transform="translate(214.556 2396.666)">
      <g id="Grupo_969851" data-name="Grupo 969851" transform="translate(39.356 20.912)">
        <g id="Grupo_969848" data-name="Grupo 969848" transform="translate(25.697 0)">
          <path id="Trazado_726395" data-name="Trazado 726395" d="M263.558,96h3.177l1.5,3.891a20.037,20.037,0,0,1,5.867,2.433l3.813-1.693,4.494,4.493-1.693,3.811a20.034,20.034,0,0,1,2.433,5.869l3.89,1.5v6.355l-3.891,1.5a20.04,20.04,0,0,1-2.432,5.867l1.693,3.813-4.494,4.494-3.811-1.693a20.034,20.034,0,0,1-5.869,2.433l-1.5,3.89h-3.178v-12.4a11.083,11.083,0,0,0,0-22.166Z" transform="translate(-263.558 -96)" fill="#feb12e" fill-rule="evenodd"/>
          <path id="Trazado_726396" data-name="Trazado 726396" d="M280.713,130.021l1.693,3.813-.608.608-1.583-3.565Q280.474,130.454,280.713,130.021Zm0-21.086a20.034,20.034,0,0,1,2.433,5.869l3.89,1.5v1.977l-3.89-1.5a26.673,26.673,0,0,0-2.931-6.724ZM263.557,96h3.177l1.5,3.891a20.037,20.037,0,0,1,5.867,2.433l3.813-1.693,4.494,4.493-.608,1.369-3.886-3.886L274.1,104.3a20.037,20.037,0,0,0-5.867-2.433l-1.5-3.891h-3.177V96Z" transform="translate(-263.557 -96)" fill="#ffd064" fill-rule="evenodd"/>
        </g>
        <g id="Grupo_969849" data-name="Grupo 969849">
          <path id="Trazado_726397" data-name="Trazado 726397" d="M103.847,99.669a5.288,5.288,0,0,0-4.822,4.06,5.28,5.28,0,0,0-6.515,4.98,5.289,5.289,0,0,0-4.069,5.13,5.63,5.63,0,0,0,5.62,5.639h14.808a5.269,5.269,0,0,0,5.269-5.269V101.268a5.27,5.27,0,0,0-10.291-1.6Z" transform="translate(-88.441 -95.999)" fill="#34bc85" fill-rule="evenodd"/>
          <path id="Trazado_726398" data-name="Trazado 726398" d="M147.62,103.582a5.182,5.182,0,0,0-.55.049c.171.024.342.057.513.1.012-.049.024-.1.037-.148Zm9.807,15.9h1.467a5.269,5.269,0,0,0,5.269-5.269V101.268a5.272,5.272,0,0,0-6.006-5.217,5.288,5.288,0,0,1,4.538,5.217v12.941a5.269,5.269,0,0,1-5.269,5.269Z" transform="translate(-138.467 -95.999)" fill="#fd4755" fill-rule="evenodd"/>
        </g>
        <g id="Grupo_969850" data-name="Grupo 969850" transform="translate(0 23.478)">
          <path id="Trazado_726399" data-name="Trazado 726399" d="M103.847,275.807a5.288,5.288,0,0,1-4.822-4.061,5.28,5.28,0,0,1-6.515-4.98,5.289,5.289,0,0,1-4.069-5.13A5.63,5.63,0,0,1,94.061,256h14.808a5.269,5.269,0,0,1,5.269,5.269v12.941a5.27,5.27,0,0,1-10.291,1.6Z" transform="translate(-88.441 -255.998)" fill="#34bc85" fill-rule="evenodd"/>
          <path id="Trazado_726400" data-name="Trazado 726400" d="M147.62,271.9a5.19,5.19,0,0,1-.55-.049c.171-.024.342-.057.513-.1.012.05.024.1.037.148Zm9.807-15.9h1.467a5.269,5.269,0,0,1,5.269,5.269V274.21a5.272,5.272,0,0,1-6.006,5.217,5.288,5.288,0,0,0,4.538-5.217V261.269A5.269,5.269,0,0,0,157.427,256Z" transform="translate(-138.467 -256)" fill="#fd4755" fill-rule="evenodd"/>
        </g>
      </g>
      <path id="Trazado_726401" data-name="Trazado 726401" d="M59.737,52.4a1.174,1.174,0,0,0-1.66-.045,4.067,4.067,0,0,1-3.88.984,4.117,4.117,0,0,1-2.971-3.227,1.174,1.174,0,0,0-2.311.42,6.463,6.463,0,0,0,6.36,5.3,6.4,6.4,0,0,0,4.416-1.772A1.174,1.174,0,0,0,59.737,52.4ZM59.784,66.7a4.094,4.094,0,0,1-3.076-6.8,1.174,1.174,0,1,0-1.762-1.551,6.473,6.473,0,0,0-1.6,4.3,4.126,4.126,0,0,1-2.264-2.777A1.175,1.175,0,0,0,49.661,59a3.935,3.935,0,0,1-3.59-6.839,1.174,1.174,0,0,0-1.507-1.8A6.465,6.465,0,0,0,42.5,53.521a4.136,4.136,0,0,1-1.973-3.492,4.461,4.461,0,0,1,4.447-4.464H54.81a6.485,6.485,0,0,0-.716,1.073,1.173,1.173,0,1,0,2.072,1.1,4.1,4.1,0,0,1,7.714,1.919V62.605a4.1,4.1,0,0,1-4.1,4.09ZM44.977,43.217H54.81a6.479,6.479,0,0,1-.716-1.073,1.173,1.173,0,1,1,2.072-1.1,4.1,4.1,0,0,0,7.714-1.921V26.174a4.1,4.1,0,1,0-7.171,2.71,1.173,1.173,0,1,1-1.762,1.55,6.468,6.468,0,0,1-1.6-4.3,4.128,4.128,0,0,0-2.264,2.778,1.175,1.175,0,0,1-1.421.872,4.014,4.014,0,0,0-.966-.118,3.907,3.907,0,0,0-2.623,6.957,1.174,1.174,0,0,1-1.507,1.8A6.471,6.471,0,0,1,42.5,35.261a4.131,4.131,0,0,0-1.973,3.491A4.461,4.461,0,0,0,44.977,43.217Zm21.25-21.131v10.1a12.256,12.256,0,0,1,0,24.4V66.7h1.2l1.208-3.138a1.169,1.169,0,0,1,.823-.72,18.85,18.85,0,0,0,5.525-2.29,1.17,1.17,0,0,1,1.093-.073l3.074,1.366L82.5,58.486,81.135,55.41a1.176,1.176,0,0,1,.073-1.092,18.853,18.853,0,0,0,2.29-5.525,1.177,1.177,0,0,1,.721-.823l3.138-1.207V42.019l-3.138-1.207a1.172,1.172,0,0,1-.719-.825,18.835,18.835,0,0,0-2.291-5.525,1.173,1.173,0,0,1-.073-1.092L82.5,30.3l-3.353-3.353-3.076,1.366a1.173,1.173,0,0,1-1.091-.073,18.883,18.883,0,0,0-5.525-2.29,1.173,1.173,0,0,1-.823-.719l-1.208-3.139Zm-2.742,22.3a6.437,6.437,0,0,1,2.742,5.269v4.568a9.906,9.906,0,0,0,0-19.674v4.568a6.438,6.438,0,0,1-2.742,5.269Zm-3.7,24.653a6.417,6.417,0,0,1-5.863-3.766,6.5,6.5,0,0,1-4.784-3.83,6.466,6.466,0,0,1-6.807-5.4,6.512,6.512,0,0,1-4.148-6.018,6.815,6.815,0,0,1,2.985-5.638,6.815,6.815,0,0,1-2.985-5.639,6.513,6.513,0,0,1,4.148-6.018,6.469,6.469,0,0,1,6.807-5.4A6.507,6.507,0,0,1,53.922,23.5a6.442,6.442,0,0,1,9.958-2.292v-.3a1.174,1.174,0,0,1,1.174-1.174H68.23a1.172,1.172,0,0,1,1.1.751L70.6,23.814a21.133,21.133,0,0,1,5.07,2.1l3.257-1.447a1.175,1.175,0,0,1,1.307.242l4.493,4.494a1.176,1.176,0,0,1,.244,1.307l-1.447,3.256a21.136,21.136,0,0,1,2.1,5.07l3.324,1.28a1.173,1.173,0,0,1,.752,1.095v6.355a1.175,1.175,0,0,1-.752,1.1l-3.324,1.28a21.211,21.211,0,0,1-2.1,5.068l1.447,3.257a1.174,1.174,0,0,1-.244,1.306l-4.493,4.494a1.176,1.176,0,0,1-1.307.243l-3.257-1.447a21.175,21.175,0,0,1-5.07,2.1l-1.278,3.322a1.176,1.176,0,0,1-1.1.753H65.054a1.174,1.174,0,0,1-1.174-1.174v-.3A6.412,6.412,0,0,1,59.784,69.043ZM48.677,71.01A1.174,1.174,0,0,1,48.09,73.2a1.156,1.156,0,0,1-.584-.157A33.021,33.021,0,0,1,30.915,44.391,33.031,33.031,0,0,1,63.944,11.361c1.078,0,2.16.056,3.234.16l-1.554-1.506A1.173,1.173,0,1,1,67.256,8.33l4.222,4.087a1.174,1.174,0,0,1-.193,1.839l-4.979,3.118a1.161,1.161,0,0,1-.622.18,1.174,1.174,0,0,1-.625-2.169l2.361-1.477a30.685,30.685,0,0,0-18.742,57.1ZM92.394,27.6A33.032,33.032,0,0,1,63.944,77.419c-1.079,0-2.16-.055-3.234-.16l1.554,1.506a1.174,1.174,0,1,1-1.633,1.686l-4.222-4.087a1.172,1.172,0,0,1,.194-1.837l4.98-3.119A1.174,1.174,0,0,1,62.829,73.4l-2.358,1.478a30.686,30.686,0,0,0,18.74-57.1,1.174,1.174,0,1,1,1.169-2.035A33.223,33.223,0,0,1,92.394,27.6ZM54.2,35.439a4.116,4.116,0,0,0-2.971,3.227,1.174,1.174,0,0,1-1.155.963,1.078,1.078,0,0,1-.209-.019,1.173,1.173,0,0,1-.947-1.364,6.479,6.479,0,0,1,4.674-5.075,6.4,6.4,0,0,1,6.1,1.549,1.173,1.173,0,1,1-1.614,1.7,4.073,4.073,0,0,0-3.88-.984Z" transform="translate(0 0)" fill-rule="evenodd"/>
    </g>
  </g>
</svg>
