<svg xmlns="http://www.w3.org/2000/svg" width="105" height="105" viewBox="0 0 105 105">
  <g id="Grupo_969606" data-name="Grupo 969606" transform="translate(-401 -1217)">
    <path id="Trazado_726404" data-name="Trazado 726404" d="M52.5,0A52.5,52.5,0,1,1,0,52.5,52.5,52.5,0,0,1,52.5,0Z" transform="translate(401 1217)" fill="#34bc85"/>
    <g id="fabrica" transform="translate(423.099 1220.255)">
      <g id="Grupo_969604" data-name="Grupo 969604" transform="translate(0.911 22.253)">
        <path id="Trazado_722471" data-name="Trazado 722471" d="M89.7,47.124v-9.49a1.916,1.916,0,0,0-.8-1.558l-9.549-6.841a2.135,2.135,0,0,0-3.378,1.736V36.65L65.629,29.236a2.136,2.136,0,0,0-3.379,1.736V36.65L51.9,29.236a2.136,2.136,0,0,0-3.379,1.736V47.187" transform="translate(-43.542 -28.833)" fill="#b7cacc"/>
        <path id="Trazado_722472" data-name="Trazado 722472" d="M61.159,154.545H13.339A5.839,5.839,0,0,0,7.5,160.384V193.6H67V160.384A5.839,5.839,0,0,0,61.159,154.545Z" transform="translate(-7.5 -139.28)" fill="#e1f1f3"/>
        <path id="Trazado_722473" data-name="Trazado 722473" d="M65.287,322.828h-7.4a5.013,5.013,0,0,0-5.013,5.013v13.6H70.3v-13.6A5.013,5.013,0,0,0,65.287,322.828Z" transform="translate(-47.362 -287.129)" fill="#4a7398"/>
        <path id="Trazado_722474" data-name="Trazado 722474" d="M366.8,351.831a6.849,6.849,0,0,1-2.2,7c-2.6,2.19-3.764.807-6.874,2.243C356.344,357.742,359.666,351.275,366.8,351.831Z" transform="translate(-314.925 -312.581)" fill="#75bb61"/>
        <path id="Trazado_722475" data-name="Trazado 722475" d="M271.466,332.922s-4.292-1.747-7.07-1.052a8.56,8.56,0,0,0,2.755,8.748c3.248,2.737,4.7,1.009,8.592,2.8a8.831,8.831,0,0,0-2.258-10.317c-.3-.252-1.075-.871-1.4-1.075Z" transform="translate(-232.951 -294.93)" fill="#85ce64"/>
        <path id="Trazado_722476" data-name="Trazado 722476" d="M98.533,211.3H55.687a2.817,2.817,0,0,1-2.817-2.817V205.1a2.817,2.817,0,0,1,2.817-2.817H98.533a2.817,2.817,0,0,1,2.817,2.817v3.381A2.817,2.817,0,0,1,98.533,211.3Z" transform="translate(-47.361 -181.226)" fill="#85ccf8"/>
      </g>
      <g id="Grupo_969605" data-name="Grupo 969605" transform="translate(0 21.344)">
        <path id="Trazado_722477" data-name="Trazado 722477" d="M379,351.546a4.685,4.685,0,0,1-3.146,1.233c-.184.017-.372.035-.566.057a.911.911,0,0,0,.1,1.816.9.9,0,0,0,.1-.006c.181-.021.356-.037.528-.053a6.447,6.447,0,0,0,4.15-1.654,7.8,7.8,0,0,0,2.5-7.93.911.911,0,0,0-.809-.674,9.834,9.834,0,0,0-7,2,.911.911,0,0,0,1.13,1.428,7.872,7.872,0,0,1,5.056-1.638A5.969,5.969,0,0,1,379,351.546Z" transform="translate(-329.012 -305.084)"/>
        <path id="Trazado_722478" data-name="Trazado 722478" d="M41.934,36.063a.911.911,0,0,0,.911-.911V24.393a1.225,1.225,0,0,1,1.938-1L55.13,30.811a.911.911,0,0,0,1.441-.74V24.393a1.225,1.225,0,0,1,1.938-1l10.348,7.414a.911.911,0,0,0,1.441-.74V24.393a1.224,1.224,0,0,1,1.937-1l9.549,6.841a1.008,1.008,0,0,1,.42.817v4.034a.911.911,0,1,0,1.821,0V31.055a2.833,2.833,0,0,0-1.18-2.3L73.3,21.916a3.046,3.046,0,0,0-4.819,2.477V28.3L59.57,21.915a3.047,3.047,0,0,0-4.82,2.477V28.3l-8.907-6.382a3.047,3.047,0,0,0-4.82,2.477V35.152a.911.911,0,0,0,.911.911Z" transform="translate(-36.042 -21.344)"/>
        <path id="Trazado_722479" data-name="Trazado 722479" d="M60.409,160.578a.911.911,0,0,0,.911-.911V153.8a6.758,6.758,0,0,0-6.75-6.75H6.75A6.758,6.758,0,0,0,0,153.8v33.212a.911.911,0,0,0,.911.911h59.5a.911.911,0,0,0,.911-.911V162.7a.911.911,0,1,0-1.821,0V186.1H44.614v-4.742a10.215,10.215,0,0,0,.469-6.288,9.5,9.5,0,0,0-3.051-4.9c-.281-.237-1.111-.9-1.495-1.147a.911.911,0,0,0-1.235.247l-.22.315c-1.39-.484-4.588-1.427-6.947-.837a.911.911,0,0,0-.659.65,9.515,9.515,0,0,0,3.049,9.679,7.775,7.775,0,0,0,5.061,2.015,10.453,10.453,0,0,1,3.207.691V186.1H24.759V173.4a5.93,5.93,0,0,0-5.924-5.924h-7.4A5.93,5.93,0,0,0,5.509,173.4v6.664a.911.911,0,0,0,1.821,0V173.4a4.107,4.107,0,0,1,4.1-4.1h2.791v16.8H7.331V183.1a.911.911,0,0,0-1.821,0V186.1H1.821V153.8a4.934,4.934,0,0,1,4.929-4.929H54.57A4.934,4.934,0,0,1,59.5,153.8v5.871A.911.911,0,0,0,60.409,160.578ZM35.7,177.684a7.69,7.69,0,0,1-2.587-7.266c2.451-.3,5.911,1.085,5.971,1.109a.911.911,0,0,0,1.09-.322l.088-.126c.224.176.448.357.6.483a7.78,7.78,0,0,1,2.632,6.972,10.264,10.264,0,0,0-4.841-4.885.911.911,0,1,0-.8,1.636,8.5,8.5,0,0,1,4.144,4.329,14.669,14.669,0,0,0-2.235-.336A6.039,6.039,0,0,1,35.7,177.684ZM16.045,169.3h2.791a4.107,4.107,0,0,1,4.1,4.1V186.1H16.045V169.3Z" transform="translate(0 -131.783)"/>
        <path id="Trazado_722480" data-name="Trazado 722480" d="M95.672,201.9v-3.381a3.732,3.732,0,0,0-3.728-3.728H49.1a3.732,3.732,0,0,0-3.728,3.728V201.9a3.732,3.732,0,0,0,3.728,3.728H91.944A3.732,3.732,0,0,0,95.672,201.9Zm-29.088-5.287h7.875V203.8H66.584ZM64.762,203.8H56.887v-7.194h7.875Zm11.517-7.194h7.875V203.8H76.28ZM47.192,201.9v-3.381a1.908,1.908,0,0,1,1.906-1.906h5.968V203.8H49.1A1.908,1.908,0,0,1,47.192,201.9Zm46.659,0a1.908,1.908,0,0,1-1.906,1.906H85.976v-7.194h5.968a1.908,1.908,0,0,1,1.906,1.906Z" transform="translate(-39.861 -173.729)"/>
        <path id="Trazado_722481" data-name="Trazado 722481" d="M85.152,98.491H81.51a.911.911,0,1,0,0,1.821h3.643a.911.911,0,1,0,0-1.821Z" transform="translate(-70.812 -89.123)"/>
        <path id="Trazado_722482" data-name="Trazado 722482" d="M200.152,98.491H196.51a.911.911,0,1,0,0,1.821h3.643a.911.911,0,0,0,0-1.821Z" transform="translate(-171.848 -89.123)"/>
        <path id="Trazado_722483" data-name="Trazado 722483" d="M315.151,98.491h-3.643a.911.911,0,1,0,0,1.821h3.643a.911.911,0,0,0,0-1.821Z" transform="translate(-272.883 -89.123)"/>
        <path id="Trazado_722484" data-name="Trazado 722484" d="M85.152,122.768H81.51a.911.911,0,1,0,0,1.821h3.643a.911.911,0,1,0,0-1.821Z" transform="translate(-70.812 -110.453)"/>
        <path id="Trazado_722485" data-name="Trazado 722485" d="M200.152,122.768H196.51a.911.911,0,1,0,0,1.821h3.643a.911.911,0,0,0,0-1.821Z" transform="translate(-171.848 -110.453)"/>
        <path id="Trazado_722486" data-name="Trazado 722486" d="M315.151,122.768h-3.643a.911.911,0,1,0,0,1.821h3.643a.911.911,0,0,0,0-1.821Z" transform="translate(-272.883 -110.453)"/>
      </g>
    </g>
  </g>
</svg>
