<svg xmlns="http://www.w3.org/2000/svg" width="105" height="105" viewBox="0 0 105 105">
  <g id="Grupo_969608" data-name="Grupo 969608" transform="translate(4142 10483)">
    <circle id="Elipse_5348" data-name="Elipse 5348" cx="52.5" cy="52.5" r="52.5" transform="translate(-4142 -10483)" fill="#34bc85"/>
    <g id="comunicacion" transform="translate(-4119.727 -10463.735)">
      <path id="Trazado_722487" data-name="Trazado 722487" d="M16.457,31H4.922A1.922,1.922,0,0,0,3,32.922V38.69a1.922,1.922,0,0,0,1.922,1.922H8.767l2.884,4.806.961-4.806H16.4a1.922,1.922,0,0,0,1.922-1.979l-.2-6.672A1.921,1.921,0,0,0,16.457,31Z" transform="translate(-0.039 -1.124)" fill="#eaeaea"/>
      <path id="Trazado_722488" data-name="Trazado 722488" d="M45.517,30H33.982a1.922,1.922,0,0,0-1.922,1.922V37.69a1.922,1.922,0,0,0,1.922,1.922h3.845l2.884,4.806.961-4.806H45.46a1.922,1.922,0,0,0,1.922-1.979l-.2-6.672A1.922,1.922,0,0,0,45.517,30Z" transform="translate(-1.165 -1.085)" fill="#eaeaea"/>
      <path id="Trazado_722489" data-name="Trazado 722489" d="M18,33.922V39.69a1.922,1.922,0,0,0,1.922,1.922h2.884v3.845l3.845-3.845h2.884a1.922,1.922,0,0,0,1.922-1.922V33.922A1.922,1.922,0,0,0,29.535,32H19.922A1.922,1.922,0,0,0,18,33.922Z" transform="translate(-0.62 -1.163)" fill="#90d2fc"/>
      <path id="Trazado_722490" data-name="Trazado 722490" d="M47,33.922V39.69a1.922,1.922,0,0,0,1.922,1.922h2.884v3.845l3.845-3.845h2.884a1.922,1.922,0,0,0,1.922-1.922V33.922A1.922,1.922,0,0,0,58.535,32H48.922A1.922,1.922,0,0,0,47,33.922Z" transform="translate(-1.744 -1.163)" fill="#90d2fc"/>
      <path id="Trazado_722491" data-name="Trazado 722491" d="M31.225,8A19.224,19.224,0,0,0,12,27.225H50.449A19.224,19.224,0,0,0,31.225,8Z" transform="translate(-0.388 -0.232)" fill="#a7dbfc"/>
      <path id="Trazado_722492" data-name="Trazado 722492" d="M41.832,10.812l-.181.181-1.922,2.884L36.845,15.8H33.961L33,18.683l.961,2.884,3.845,1.922,2.884-.961h3.845l2.884,2.884,3.8.949a19.187,19.187,0,0,0-9.383-15.548Z" transform="translate(-1.202 -0.341)" fill="#63bc94"/>
      <path id="Trazado_722493" data-name="Trazado 722493" d="M17.782,22.541l2.884-.961,3.845.961,2.884-1.922-.961-2.884-1.922-.961V13.89l-3.629-2.721a19.224,19.224,0,0,0-8.5,12.427l3.473.868Z" transform="translate(-0.403 -0.355)" fill="#63bc94"/>
      <path id="Trazado_722494" data-name="Trazado 722494" d="M32.767,56H30.845A3.845,3.845,0,0,0,27,59.845v1.922h9.612V59.845A3.845,3.845,0,0,0,32.767,56Z" transform="translate(-0.969 -2.093)" fill="#eaeaea"/>
      <path id="Trazado_722495" data-name="Trazado 722495" d="M42.767,56H40.845A3.845,3.845,0,0,0,37,59.845v1.922h9.612V59.845A3.845,3.845,0,0,0,42.767,56Z" transform="translate(-1.357 -2.093)" fill="#a8a8a8"/>
      <path id="Trazado_722496" data-name="Trazado 722496" d="M52.767,56H50.845A3.845,3.845,0,0,0,47,59.845v1.922h9.612V59.845A3.845,3.845,0,0,0,52.767,56Z" transform="translate(-1.744 -2.093)" fill="#eaeaea"/>
      <path id="Trazado_722497" data-name="Trazado 722497" d="M12.767,56H10.845A3.845,3.845,0,0,0,7,59.845v1.922h9.612V59.845A3.845,3.845,0,0,0,12.767,56Z" transform="translate(-0.194 -2.093)" fill="#eaeaea"/>
      <path id="Trazado_722498" data-name="Trazado 722498" d="M22.767,56H20.845A3.845,3.845,0,0,0,17,59.845v1.922h9.612V59.845A3.845,3.845,0,0,0,22.767,56Z" transform="translate(-0.581 -2.093)" fill="#a8a8a8"/>
      <g id="Grupo_969607" data-name="Grupo 969607" transform="translate(8.729 48.14)">
        <circle id="Elipse_7736" data-name="Elipse 7736" cx="2.884" cy="2.884" r="2.884" transform="translate(19.225)" fill="#ffd6a8"/>
        <circle id="Elipse_7737" data-name="Elipse 7737" cx="2.884" cy="2.884" r="2.884" transform="translate(28.837)" fill="#ffd6a8"/>
        <circle id="Elipse_7738" data-name="Elipse 7738" cx="2.884" cy="2.884" r="2.884" transform="translate(38.449)" fill="#ffd6a8"/>
        <circle id="Elipse_7739" data-name="Elipse 7739" cx="2.884" cy="2.884" r="2.884" fill="#ffd6a8"/>
        <circle id="Elipse_7740" data-name="Elipse 7740" cx="2.884" cy="2.884" r="2.884" transform="translate(9.612)" fill="#ffd6a8"/>
      </g>
      <path id="Trazado_722499" data-name="Trazado 722499" d="M59.674,33.806a2.887,2.887,0,0,0-2.884-2.884H47.178c-.059,0-.113.013-.172.017A2.877,2.877,0,0,0,44.294,29H32.76a2.879,2.879,0,0,0-2.772,2.134,2.868,2.868,0,0,0-1.073-.211H19.3a2.889,2.889,0,0,0-.686.091,2.874,2.874,0,0,0-2.2-1.053H4.884A2.887,2.887,0,0,0,2,32.845v5.767A2.887,2.887,0,0,0,4.884,41.5h3.3l2.6,4.34a.962.962,0,0,0,1.767-.307l.806-4.033h3.807a2.867,2.867,0,0,0,2.134.961h1.922v2.884a.96.96,0,0,0,.593.888.949.949,0,0,0,.368.073.962.962,0,0,0,.68-.282l3.563-3.563h2.486a2.878,2.878,0,0,0,2.772-2.134,2.868,2.868,0,0,0,1.073.211h3.3l2.6,4.34a.962.962,0,0,0,1.767-.307l.806-4.033h3.235a2.88,2.88,0,0,0,2.707,1.922H49.1v2.884a.96.96,0,0,0,.593.888.949.949,0,0,0,.368.073.962.962,0,0,0,.68-.282L54.3,42.457H56.79a2.887,2.887,0,0,0,2.884-2.884Zm-43.256,0v5.767H12.574a.961.961,0,0,0-.942.773l-.474,2.368-1.6-2.674a.962.962,0,0,0-.825-.467H4.884a.962.962,0,0,1-.961-.961V32.845a.962.962,0,0,1,.961-.961H16.419a.956.956,0,0,1,.581.206A2.855,2.855,0,0,0,16.419,33.806Zm13.457,3.845v1.922a.962.962,0,0,1-.961.961H26.031a.957.957,0,0,0-.68.282l-2.2,2.2V41.5a.96.96,0,0,0-.961-.961H19.3a.962.962,0,0,1-.961-.961V33.806a.962.962,0,0,1,.961-.961h9.612a.962.962,0,0,1,.961.961Zm14.419-3.845v4.806H40.449a.961.961,0,0,0-.942.773l-.474,2.368-1.6-2.674a.962.962,0,0,0-.825-.467H32.76a.962.962,0,0,1-.961-.961V31.884a.962.962,0,0,1,.961-.961H44.294a.948.948,0,0,1,.925.781A2.868,2.868,0,0,0,44.294,33.806Zm13.457,5.767a.962.962,0,0,1-.961.961H53.907a.957.957,0,0,0-.68.282l-2.2,2.2V41.5a.96.96,0,0,0-.961-.961H47.178a.962.962,0,0,1-.961-.961V33.806a.962.962,0,0,1,.961-.961H56.79a.962.962,0,0,1,.961.961Z" transform="translate(0 -1.046)"/>
      <path id="Trazado_722500" data-name="Trazado 722500" d="M11,27.186h1.922a18.181,18.181,0,0,1,.2-2.564l2.449.612a.959.959,0,0,0,.912-.253l1.762-1.762,2.4-.8,3.574.893a.96.96,0,0,0,.766-.133l2.884-1.922a.962.962,0,0,0,.379-1.1l-.961-2.884a.961.961,0,0,0-.482-.556l-1.392-.7v-2.29a.962.962,0,0,0-.384-.769L22.553,11.1a18.166,18.166,0,0,1,17.005-.126l-1.375,2.063L35.7,14.69H33.108a.959.959,0,0,0-.911.657l-.961,2.884a.955.955,0,0,0,0,.608l.961,2.884a.961.961,0,0,0,.482.556L36.524,24.2a.947.947,0,0,0,.734.052l2.735-.912h3.291l2.6,2.6a.963.963,0,0,0,.447.253l3.106.777c0,.071.011.141.011.213h1.922a20.186,20.186,0,0,0-40.372,0ZM23.5,14.209v2.4a.962.962,0,0,0,.532.86l1.567.782.6,1.81-1.919,1.279-3.433-.858a.955.955,0,0,0-.537.02l-2.884.961a.972.972,0,0,0-.376.232l-1.538,1.538-2.018-.5a18.3,18.3,0,0,1,7.3-10.55Zm17.725-2.266A18.271,18.271,0,0,1,49.3,24.957L47.057,24.4l-2.7-2.7a.953.953,0,0,0-.679-.282H39.837a.963.963,0,0,0-.3.05l-2.5.834-3.134-1.566-.734-2.2.641-1.922h2.191a.967.967,0,0,0,.533-.161l2.884-1.922a.975.975,0,0,0,.266-.266Z" transform="translate(-0.349 -0.193)"/>
      <path id="Trazado_722501" data-name="Trazado 722501" d="M25.084,4.911c.592-.179,1.193-.332,1.784-.457l-.4-1.881c-.643.136-1.3.3-1.939.5Z" transform="translate(-0.873 -0.022)"/>
      <path id="Trazado_722502" data-name="Trazado 722502" d="M40.195,5.363c.575.21,1.15.444,1.709.7l.8-1.749c-.606-.276-1.227-.532-1.85-.756Z" transform="translate(-1.481 -0.06)"/>
      <path id="Trazado_722503" data-name="Trazado 722503" d="M44.623,5.285l-.939,1.678c.537.3,1.066.624,1.575.964l1.068-1.6c-.55-.368-1.123-.72-1.7-1.045Z" transform="translate(-1.616 -0.127)"/>
      <path id="Trazado_722504" data-name="Trazado 722504" d="M52.045,14.755c.339.512.659,1.043.954,1.578l1.684-.926c-.319-.581-.666-1.156-1.032-1.711Z" transform="translate(-1.94 -0.453)"/>
      <path id="Trazado_722505" data-name="Trazado 722505" d="M6,27.919H7.922c0-.618.024-1.238.073-1.843l-1.917-.154C6.026,26.579,6,27.251,6,27.919Z" transform="translate(-0.155 -0.927)"/>
      <path id="Trazado_722506" data-name="Trazado 722506" d="M11.143,12.412l1.542,1.149c.366-.491.756-.974,1.16-1.433L12.4,10.859C11.962,11.358,11.539,11.881,11.143,12.412Z" transform="translate(-0.354 -0.343)"/>
      <path id="Trazado_722507" data-name="Trazado 722507" d="M38.3,4.761,38.8,2.908c-.635-.176-1.291-.327-1.947-.452L36.5,4.345c.606.115,1.21.256,1.8.416Z" transform="translate(-1.337 -0.017)"/>
      <path id="Trazado_722508" data-name="Trazado 722508" d="M16.6,9.444,15.371,7.963c-.509.421-1.01.871-1.487,1.334l1.339,1.38C15.663,10.248,16.126,9.834,16.6,9.444Z" transform="translate(-0.461 -0.231)"/>
      <path id="Trazado_722509" data-name="Trazado 722509" d="M57.912,27.326c-.015-.661-.057-1.332-.124-1.994l-1.913.2c.062.611.1,1.23.114,1.84Z" transform="translate(-2.088 -0.904)"/>
      <path id="Trazado_722510" data-name="Trazado 722510" d="M53.895,18.122c.251.558.483,1.132.689,1.709l1.81-.646c-.223-.626-.474-1.249-.745-1.852Z" transform="translate(-2.012 -0.594)"/>
      <path id="Trazado_722511" data-name="Trazado 722511" d="M11.554,15.214,9.929,14.189c-.352.558-.687,1.142-1,1.736l1.7.888C10.922,16.266,11.23,15.728,11.554,15.214Z" transform="translate(-0.269 -0.472)"/>
      <path id="Trazado_722512" data-name="Trazado 722512" d="M55.183,21.745c.16.593.3,1.2.407,1.8L57.48,23.2c-.119-.651-.267-1.306-.44-1.949Z" transform="translate(-2.062 -0.746)"/>
      <path id="Trazado_722513" data-name="Trazado 722513" d="M9.788,18.625l-1.771-.749c-.26.613-.5,1.243-.7,1.872l1.824.6C9.33,19.773,9.549,19.19,9.788,18.625Z" transform="translate(-0.206 -0.615)"/>
      <path id="Trazado_722514" data-name="Trazado 722514" d="M46.875,9.1c.476.378.948.781,1.4,1.2L49.584,8.9c-.491-.455-1-.892-1.517-1.3Z" transform="translate(-1.74 -0.216)"/>
      <path id="Trazado_722515" data-name="Trazado 722515" d="M19.739,7.233l-.977-1.656c-.568.335-1.133.7-1.679,1.08l1.1,1.575C18.691,7.879,19.213,7.543,19.739,7.233Z" transform="translate(-0.585 -0.138)"/>
      <path id="Trazado_722516" data-name="Trazado 722516" d="M34.528,4.056l.207-1.911c-.655-.071-1.325-.116-1.994-.136l-.053,1.922c.617.016,1.236.058,1.84.124Z" transform="translate(-1.19)"/>
      <path id="Trazado_722517" data-name="Trazado 722517" d="M49.686,11.724c.409.444.81.918,1.194,1.408l1.513-1.186c-.415-.529-.85-1.041-1.292-1.523Z" transform="translate(-1.848 -0.326)"/>
      <path id="Trazado_722518" data-name="Trazado 722518" d="M22.491,3.765c-.621.242-1.236.51-1.83.8L21.5,6.294c.549-.266,1.118-.514,1.69-.738Z" transform="translate(-0.723 -0.068)"/>
      <path id="Trazado_722519" data-name="Trazado 722519" d="M28.844,4.12c.607-.079,1.225-.136,1.838-.166l-.1-1.921c-.663.034-1.333.1-1.99.181Z" transform="translate(-1.031 -0.001)"/>
      <path id="Trazado_722520" data-name="Trazado 722520" d="M8.592,22.278l-1.868-.457c-.156.64-.289,1.3-.4,1.958l1.9.306c.1-.608.219-1.217.364-1.807Z" transform="translate(-0.168 -0.768)"/>
      <path id="Trazado_722521" data-name="Trazado 722521" d="M55.984,59.574a4.8,4.8,0,0,0-2.777-4.341,3.807,3.807,0,0,0,.855-2.388,3.845,3.845,0,1,0-7.69,0,3.807,3.807,0,0,0,.855,2.388,4.814,4.814,0,0,0-1.816,1.487,4.821,4.821,0,0,0-1.816-1.487,3.807,3.807,0,0,0,.855-2.388,3.845,3.845,0,1,0-7.69,0,3.807,3.807,0,0,0,.855,2.388A4.814,4.814,0,0,0,35.8,56.72a4.821,4.821,0,0,0-1.816-1.487,3.807,3.807,0,0,0,.855-2.388,3.845,3.845,0,0,0-7.69,0A3.807,3.807,0,0,0,28,55.233a4.814,4.814,0,0,0-1.816,1.487,4.821,4.821,0,0,0-1.816-1.487,3.807,3.807,0,0,0,.855-2.388,3.845,3.845,0,1,0-7.69,0,3.807,3.807,0,0,0,.855,2.388,4.814,4.814,0,0,0-1.816,1.487,4.821,4.821,0,0,0-1.816-1.487,3.807,3.807,0,0,0,.855-2.388,3.845,3.845,0,0,0-7.69,0,3.807,3.807,0,0,0,.855,2.388A4.8,4.8,0,0,0,6,59.574V61.5H7.922V59.574a2.887,2.887,0,0,1,2.884-2.884h1.922a2.887,2.887,0,0,1,2.884,2.884V61.5h1.922V59.574a2.887,2.887,0,0,1,2.884-2.884h1.922a2.887,2.887,0,0,1,2.884,2.884V61.5h1.922V59.574a2.887,2.887,0,0,1,2.884-2.884h1.922a2.887,2.887,0,0,1,2.884,2.884V61.5H36.76V59.574a2.887,2.887,0,0,1,2.884-2.884h1.922a2.887,2.887,0,0,1,2.884,2.884V61.5h1.922V59.574a2.887,2.887,0,0,1,2.884-2.884h1.922a2.887,2.887,0,0,1,2.884,2.884V61.5h1.922ZM11.767,54.767a1.922,1.922,0,1,1,1.922-1.922A1.924,1.924,0,0,1,11.767,54.767Zm9.612,0A1.922,1.922,0,1,1,23.3,52.845,1.924,1.924,0,0,1,21.38,54.767Zm9.612,0a1.922,1.922,0,1,1,1.922-1.922A1.924,1.924,0,0,1,30.992,54.767Zm9.612,0a1.922,1.922,0,1,1,1.922-1.922A1.924,1.924,0,0,1,40.6,54.767Zm9.612,0a1.922,1.922,0,1,1,1.922-1.922A1.924,1.924,0,0,1,50.217,54.767Z" transform="translate(-0.155 -1.822)"/>
    </g>
  </g>
</svg>
