<svg xmlns="http://www.w3.org/2000/svg" width="105" height="105" viewBox="0 0 105 105">
  <g id="Grupo_969777" data-name="Grupo 969777" transform="translate(-1102 -1141)">
    <circle id="Elipse_5348" data-name="Elipse 5348" cx="52.5" cy="52.5" r="52.5" transform="translate(1102 1141)" fill="#34bc85"/>
    <g id="learning-book-online-education-ebook" transform="translate(1123 1161)">
      <path id="Trazado_722850" data-name="Trazado 722850" d="M29.984,11H20a2,2,0,0,0-2,2v6.991a6.968,6.968,0,0,0,3.4,5.992h7.191a6.968,6.968,0,0,0,3.4-5.992V13a2,2,0,0,0-2-2Z" transform="translate(-0.021 -0.012)" fill="#ffbcab"/>
      <path id="Trazado_722851" data-name="Trazado 722851" d="M43.995,40.766v-3.3A7.227,7.227,0,0,0,40,31v8.988h2a2.974,2.974,0,0,1,2,.778Z" transform="translate(-0.049 -0.038)" fill="#feb12e"/>
      <path id="Trazado_722852" data-name="Trazado 722852" d="M6,37.464v3.3a2.974,2.974,0,0,1,2-.778h2V31A7.228,7.228,0,0,0,6,37.464Z" transform="translate(-0.005 -0.038)" fill="#feb12e"/>
      <path id="Trazado_722853" data-name="Trazado 722853" d="M34.974,8.992A4,4,0,0,0,30.979,5h-1a2,2,0,0,0-2,2A4,4,0,0,0,23.988,3h-3A5.992,5.992,0,0,0,15,8.992v6.991h3v-3a2,2,0,0,1,2-2H29.98a2,2,0,0,1,2,2v2h3Z" transform="translate(-0.017 -0.001)" fill="#58595b"/>
      <path id="Trazado_722854" data-name="Trazado 722854" d="M34,19.993a2,2,0,0,0,2-2V17a2,2,0,0,0-2-2H32v4.993Z" transform="translate(-0.039 -0.017)" fill="#ff9478"/>
      <path id="Trazado_722855" data-name="Trazado 722855" d="M60.977,3V18.979H46a3,3,0,0,0-3,3V6.995A4,4,0,0,1,46.995,3Z" transform="translate(-0.053 -0.001)" fill="#feb12e"/>
      <path id="Trazado_722856" data-name="Trazado 722856" d="M58.979,3v7.99a5.992,5.992,0,0,1-5.992,5.992H46a3,3,0,0,0-3,3v2a3,3,0,0,1,3-3h14.98V3Z" transform="translate(-0.053 -0.001)" fill="#ffe5b9"/>
      <path id="Trazado_722857" data-name="Trazado 722857" d="M16,15a2,2,0,0,0-2,2v1a2,2,0,0,0,2,2h2V15Z" transform="translate(-0.016 -0.017)" fill="#ff9478"/>
      <path id="Trazado_722858" data-name="Trazado 722858" d="M39.961,28V45.974H10V28a2,2,0,0,1,2-2H37.964A2,2,0,0,1,39.961,28Z" transform="translate(-0.01 -0.031)" fill="#d1d3d4"/>
      <path id="Trazado_722859" data-name="Trazado 722859" d="M37.964,26v3.995A13.982,13.982,0,0,1,23.982,43.977H10v2H39.961V28a2,2,0,0,0-2-2Z" transform="translate(-0.01 -0.031)" fill="#bcbec0"/>
      <path id="Trazado_722860" data-name="Trazado 722860" d="M60.924,48a2,2,0,0,1-2,2H5A2,2,0,1,1,5,46h53.93A2,2,0,0,1,60.924,48Z" transform="translate(-0.001 -0.057)" fill="#34bc85"/>
      <path id="Trazado_722861" data-name="Trazado 722861" d="M42,45.992A3,3,0,0,0,42,40H40v5.992Z" transform="translate(-0.049 -0.049)" fill="#ff9478"/>
      <path id="Trazado_722862" data-name="Trazado 722862" d="M9.993,40H8a3,3,0,0,0,0,5.992h2Z" transform="translate(-0.004 -0.049)" fill="#ff9478"/>
      <path id="Trazado_722863" data-name="Trazado 722863" d="M51,7h5.992v3.995H51Z" transform="translate(-0.064 -0.007)" fill="#ffcd00"/>
      <path id="Trazado_722864" data-name="Trazado 722864" d="M46,19a3,3,0,1,0,0,5.992h14.98V19Z" transform="translate(-0.053 -0.022)" fill="#d1d3d4"/>
      <path id="Trazado_722865" data-name="Trazado 722865" d="M5,50H58.93V60.986H5Z" transform="translate(-0.004 -0.062)" fill="#badc61"/>
      <path id="Trazado_722866" data-name="Trazado 722866" d="M43,22a3,3,0,0,0,3,3h14.98V22Z" transform="translate(-0.053 -0.026)" fill="#f1f2f2"/>
      <g id="Grupo_969776" data-name="Grupo 969776" transform="translate(2 2)">
        <path id="Trazado_722868" data-name="Trazado 722868" d="M22,18a1,1,0,0,0,1-1V16a1,1,0,1,0-2,0v1A1,1,0,0,0,22,18Z" transform="translate(-2.025 -2.017)" fill="#231f20"/>
        <path id="Trazado_722869" data-name="Trazado 722869" d="M28,18a1,1,0,0,0,1-1V16a1,1,0,0,0-2,0v1A1,1,0,0,0,28,18Z" transform="translate(-2.032 -2.017)" fill="#231f20"/>
        <path id="Trazado_722870" data-name="Trazado 722870" d="M22.7,20.293A1,1,0,0,0,21.3,21.707a5.239,5.239,0,0,0,7.4,0A1,1,0,1,0,27.283,20.3a3.24,3.24,0,0,1-4.576,0Z" transform="translate(-2.025 -2.023)" fill="#231f20"/>
        <path id="Trazado_722871" data-name="Trazado 722871" d="M58.926,44.944H45.383a3.9,3.9,0,0,0,.559-2,3.97,3.97,0,0,0-1.059-2.686,1.065,1.065,0,0,0,.06-.31v-2a8.97,8.97,0,0,0-3.995-7.44V27.966a3.005,3.005,0,0,0-3-3H31.182a7.965,7.965,0,0,0,1.708-3.995h1.069a3.005,3.005,0,0,0,3-3v-1a2.982,2.982,0,0,0-1-2.217V8.991A4.993,4.993,0,0,0,30.962,4h-1a2.99,2.99,0,0,0-1.668.509A4.983,4.983,0,0,0,23.971,2h-3a7,7,0,0,0-6.991,6.991v5.772a2.982,2.982,0,0,0-1,2.217v1a3.005,3.005,0,0,0,3,3H17.05a7.965,7.965,0,0,0,1.708,3.995H11.987a3.005,3.005,0,0,0-3,3v2.547A8.97,8.97,0,0,0,5,37.953v2a1.065,1.065,0,0,0,.06.31,3.911,3.911,0,0,0-.479,4.724A2.984,2.984,0,0,0,4,50.756V60.923a1,1,0,1,0,2,0V50.936H57.927v9.987a1,1,0,1,0,2,0V50.756a3,3,0,0,0-1-5.812ZM40.949,33.069a7,7,0,0,1,2,4.884v1.139a4.086,4.086,0,0,0-1-.14h-1Zm0,7.88h1a2,2,0,0,1,0,3.995h-1ZM34.957,16.98v1a1,1,0,0,1-1,1h-1v-3h1A1,1,0,0,1,34.957,16.98Zm-17.977,2h-1a1,1,0,0,1-1-1v-1a1,1,0,0,1,1-1h1Zm0-5.992v1h-1V8.991A4.993,4.993,0,0,1,20.975,4h3a3.005,3.005,0,0,1,3,3,1,1,0,1,0,2,0,1,1,0,0,1,1-1h1a3.005,3.005,0,0,1,3,3v4.993h-1v-1a3.005,3.005,0,0,0-3-3H19.977A3.005,3.005,0,0,0,16.98,12.986Zm13.982,0v6.991a5.919,5.919,0,0,1-2.706,4.993H21.684a5.919,5.919,0,0,1-2.706-4.993V12.986a1,1,0,0,1,1-1h9.987A1,1,0,0,1,30.962,12.986ZM10.988,27.966a1,1,0,0,1,1-1H37.953a1,1,0,0,1,1,1V44.944H10.988ZM6.993,37.953a7,7,0,0,1,2-4.884v5.882h-1a4.086,4.086,0,0,0-1,.14Zm1,3h1v3.995h-1a2,2,0,0,1,0-3.995Zm50.934,7.99H5a1,1,0,1,1,0-2h53.93a1,1,0,1,1,0,2Z" transform="translate(-2 -2)" fill="#231f20"/>
        <path id="Trazado_722872" data-name="Trazado 722872" d="M24.995,39.99a3.995,3.995,0,0,0,3.741-5.4,1,1,0,1,0-1.871.7A2,2,0,1,1,24.995,34a1,1,0,1,0,0-2,3.995,3.995,0,1,0,0,7.99Z" transform="translate(-2.025 -2.039)" fill="#231f20"/>
        <path id="Trazado_722873" data-name="Trazado 722873" d="M60.975,2H46.993A4.993,4.993,0,0,0,42,6.993v14.98a4,4,0,0,0,3.995,3.995h14.98a1,1,0,0,0,1-1V3A1,1,0,0,0,60.975,2Zm-1,21.971H45.995a2,2,0,1,1,0-3.995H59.977Zm0-5.992H45.995a3.9,3.9,0,0,0-2,.559V6.993a3.005,3.005,0,0,1,3-3H59.977Z" transform="translate(-2.052 -2)" fill="#231f20"/>
        <path id="Trazado_722874" data-name="Trazado 722874" d="M47,16.984a1,1,0,0,0,1-1V6a1,1,0,1,0-2,0v9.987A1,1,0,0,0,47,16.984Z" transform="translate(-2.057 -2.004)" fill="#231f20"/>
        <path id="Trazado_722875" data-name="Trazado 722875" d="M51,11.992h5.992a1,1,0,0,0,1-1V7a1,1,0,0,0-1-1H51a1,1,0,0,0-1,1v3.995A1,1,0,0,0,51,11.992ZM52,8h3.995v2H52Z" transform="translate(-2.062 -2.005)" fill="#231f20"/>
        <path id="Trazado_722876" data-name="Trazado 722876" d="M55.993,13H52a1,1,0,0,0,0,2h3.995a1,1,0,1,0,0-2Z" transform="translate(-2.064 -2.014)" fill="#231f20"/>
        <path id="Trazado_722877" data-name="Trazado 722877" d="M45,22a1,1,0,0,0,1,1H57.983a1,1,0,0,0,0-2H46A1,1,0,0,0,45,22Z" transform="translate(-2.056 -2.025)" fill="#231f20"/>
      </g>
    </g>
  </g>
</svg>
