<svg xmlns="http://www.w3.org/2000/svg" width="105" height="105" viewBox="0 0 105 105">
  <g id="Grupo_969794" data-name="Grupo 969794" transform="translate(-1465 10559)">
    <path id="Trazado_726437" data-name="Trazado 726437" d="M52.5,0A52.5,52.5,0,1,1,0,52.5,52.5,52.5,0,0,1,52.5,0Z" transform="translate(1465 -10559)" fill="#34bc85"/>
    <g id="aprendizaje" transform="translate(1486.996 -10537.004)">
      <g id="Grupo_969792" data-name="Grupo 969792" transform="translate(0.999 0.999)">
        <g id="Grupo_969778" data-name="Grupo 969778" transform="translate(43.95 25.971)">
          <path id="Trazado_722878" data-name="Trazado 722878" d="M52.991,27H45v2a6.036,6.036,0,0,0,.34,2h.01a5.982,5.982,0,0,0,9.879,2.237A5.762,5.762,0,0,0,56.637,31h.01a6.036,6.036,0,0,0,.34-2V27Z" transform="translate(-45 -27)" fill="#b27946"/>
        </g>
        <g id="Grupo_969779" data-name="Grupo 969779" transform="translate(35.959 33.961)">
          <path id="Trazado_722879" data-name="Trazado 722879" d="M44.991,36V50.982H37V42.991l2-2a6.9,6.9,0,0,1-2-4.825V35h5.584A3.393,3.393,0,0,1,44.991,36Z" transform="translate(-37 -35)" fill="#ccd1d9"/>
        </g>
        <g id="Grupo_969780" data-name="Grupo 969780" transform="translate(43.95 33.961)">
          <path id="Trazado_722880" data-name="Trazado 722880" d="M45,50.982V36a3.411,3.411,0,0,1,2.407-1h8.58a1,1,0,0,1,1,1V49.983a1,1,0,0,1-1,1Z" transform="translate(-45 -35)" fill="#ccd1d9"/>
        </g>
        <g id="Grupo_969781" data-name="Grupo 969781" transform="translate(34.431 35.959)">
          <path id="Trazado_722881" data-name="Trazado 722881" d="M60.971,38V53.981a1,1,0,0,1-1,1H48.985l-.589.589a4.823,4.823,0,0,1-6.812,0l-.589-.589H35.47a5.964,5.964,0,0,0,1.528-4H55.977a1,1,0,0,0,1-1V37h3A1,1,0,0,1,60.971,38Z" transform="translate(-35.47 -37)" fill="#ef7385"/>
        </g>
        <g id="Grupo_969782" data-name="Grupo 969782" transform="translate(9.859 29.966)">
          <path id="Trazado_722882" data-name="Trazado 722882" d="M22.986,56.971v4H13V57.18a5.951,5.951,0,0,0-2.128-4.575l.619-.27a9.07,9.07,0,0,0,5.5-8.351h-.5a3.513,3.513,0,0,1-3.5-3.5,3.5,3.5,0,0,1,3.5-3.5h.5V31H36.97v5.164a6.9,6.9,0,0,0,2,4.825l-2,2v7.991a6,6,0,0,1-5.993,5.993Z" transform="translate(-10.87 -31)" fill="#f0d0b4"/>
        </g>
        <g id="Grupo_969783" data-name="Grupo 969783" transform="translate(0 29.966)">
          <path id="Trazado_722883" data-name="Trazado 722883" d="M16.982,31v5.993h-.5a3.5,3.5,0,0,0-3.5,3.5,3.513,3.513,0,0,0,3.5,3.5h.5a9.07,9.07,0,0,1-5.5,8.351l-.619.27c-.17-.14-.35-.28-.539-.41l-.42-.28A19.975,19.975,0,0,1,1,35.3V31H16.982Z" transform="translate(-1 -31)" fill="#badc61"/>
        </g>
        <g id="Grupo_969784" data-name="Grupo 969784" transform="translate(9.989 21.975)">
          <path id="Trazado_722884" data-name="Trazado 722884" d="M26.982,30.991h-4a4,4,0,0,0-7.991,0H11a7.991,7.991,0,1,1,15.982,0Z" transform="translate(-11 -23)" fill="#ffeaa7"/>
        </g>
        <g id="Grupo_969785" data-name="Grupo 969785" transform="translate(1.998 13.984)">
          <path id="Trazado_722885" data-name="Trazado 722885" d="M14.986,15h7.991v1.059a2.154,2.154,0,0,0,1.338,2l.04.01a2.153,2.153,0,0,0,2.357-.469l.749-.739L33.106,22.5l-.739.749a2.153,2.153,0,0,0-.469,2.357l.01.03a2.162,2.162,0,0,0,2.008,1.348h1.049v4H26.973a7.991,7.991,0,1,0-15.982,0H3v-4H4.049a2.162,2.162,0,0,0,2.008-1.348l.01-.03A2.153,2.153,0,0,0,5.6,23.251L4.858,22.5,10.5,16.858l.759.749a2.134,2.134,0,0,0,2.347.459.037.037,0,0,0,.03-.01,2.148,2.148,0,0,0,1.348-2Z" transform="translate(-3 -15)" fill="#fcd770"/>
        </g>
        <g id="Grupo_969786" data-name="Grupo 969786" transform="translate(39.955)">
          <path id="Trazado_722886" data-name="Trazado 722886" d="M50.989,1A9.982,9.982,0,0,0,45,18.97v8H56.982v-8A9.982,9.982,0,0,0,50.989,1Z" transform="translate(-41 -1)" fill="#feb12e"/>
        </g>
        <g id="Grupo_969787" data-name="Grupo 969787" transform="translate(15.982 5.993)">
          <path id="Trazado_722887" data-name="Trazado 722887" d="M17,7h4v4.994H17Z" transform="translate(-17 -7)" fill="#ef7385"/>
        </g>
        <g id="Grupo_969788" data-name="Grupo 969788" transform="translate(31.964 3.995)">
          <path id="Trazado_722888" data-name="Trazado 722888" d="M33,5V15.988l4,2V5Z" transform="translate(-33 -5)" fill="#ef7385"/>
        </g>
        <g id="Grupo_969789" data-name="Grupo 969789" transform="translate(23.973)">
          <path id="Trazado_722889" data-name="Trazado 722889" d="M25,11.988l4,2V1H25Z" transform="translate(-25 -1)" fill="#feb12e"/>
        </g>
        <g id="Grupo_969790" data-name="Grupo 969790" transform="translate(7.991)">
          <path id="Trazado_722890" data-name="Trazado 722890" d="M9,13.985l4-2V1H9Z" transform="translate(-9 -1)" fill="#ef7385"/>
        </g>
        <g id="Grupo_969791" data-name="Grupo 969791" transform="translate(0 3.995)">
          <path id="Trazado_722891" data-name="Trazado 722891" d="M1,17.985l4-2V5H1Z" transform="translate(-1 -5)" fill="#ef7385"/>
        </g>
      </g>
      <g id="Grupo_969793" data-name="Grupo 969793" transform="translate(0)">
        <circle id="Elipse_7743" data-name="Elipse 7743" cx="1" cy="1" r="1" transform="translate(18.004 18.004)"/>
        <path id="Trazado_722892" data-name="Trazado 722892" d="M10.514,23.513a1,1,0,1,0-.706-.293A1,1,0,0,0,10.514,23.513Z" transform="translate(-0.011 -0.024)"/>
        <path id="Trazado_722893" data-name="Trazado 722893" d="M27.484,23.513a1,1,0,1,0-.706-.293A1,1,0,0,0,27.484,23.513Z" transform="translate(-0.03 -0.024)"/>
        <path id="Trazado_722894" data-name="Trazado 722894" d="M18,8h2v4h2V6H16v5.993h2Z" transform="translate(-0.018 -0.007)"/>
        <path id="Trazado_722895" data-name="Trazado 722895" d="M34,6h2V17.984h2V4H32V15.986h2Z" transform="translate(-0.036 -0.005)"/>
        <path id="Trazado_722896" data-name="Trazado 722896" d="M26,2h2V13.984h2V0H24V11.986h2Z" transform="translate(-0.027)"/>
        <path id="Trazado_722897" data-name="Trazado 722897" d="M10,2h2v9.989h2V0H8V13.984h2Z" transform="translate(-0.009)"/>
        <path id="Trazado_722898" data-name="Trazado 722898" d="M2,6H4v9.989h2V4H0V17.984H2Z" transform="translate(0 -0.005)"/>
        <path id="Trazado_722899" data-name="Trazado 722899" d="M31.991,36h-2a2,2,0,0,1-4,0H24a4,4,0,0,0,7.991,0Z" transform="translate(-0.027 -0.041)"/>
        <path id="Trazado_722900" data-name="Trazado 722900" d="M59.932,35.959h-2a2,2,0,0,0-2-2h-.111a6.966,6.966,0,0,0,2.109-4.994V19.45a10.888,10.888,0,0,0,4-8.462,10.988,10.988,0,0,0-21.975,0,10.888,10.888,0,0,0,4,8.462v9.517a6.969,6.969,0,0,0,2.277,5.148,4.352,4.352,0,0,0-1.279.561,4.363,4.363,0,0,0-2.405-.716H37.957v-4h-2v-4H33.912a1.2,1.2,0,0,1-.842-2.034l1.446-1.447-7.063-7.063-1.447,1.447a1.186,1.186,0,0,1-1.317.241,1.156,1.156,0,0,1-.717-1.071v-2.06H13.984v2.06a1.2,1.2,0,0,1-2.025.839L10.5,15.426,3.44,22.489l1.447,1.447a1.2,1.2,0,0,1-.843,2.034H2v4H0v5.29A20.937,20.937,0,0,0,9.341,52.71l.422.281a4.986,4.986,0,0,1,2.223,4.155V61.93H23.973v-4h6.992a6.963,6.963,0,0,0,4.883-2h4.691l.293.293a5.822,5.822,0,0,0,8.234,0l.293-.293H59.932a2,2,0,0,0,2-2V37.957a2,2,0,0,0-2-2Zm-12.959-4h7.94a4.944,4.944,0,0,1-7.94,0Zm.973-19.977h-1a1,1,0,1,1,1-1Zm4,13.984h-2V13.984h2Zm4,2v1a4.99,4.99,0,0,1-.1,1H46.049a4.99,4.99,0,0,1-.1-1v-1ZM41.952,10.988a8.99,8.99,0,1,1,14.383,7.18l-.4.3v7.5h-2V13.984h1a3,3,0,1,0-3-3v1h-2v-1a3,3,0,1,0-3,3h1V25.971h-2v-7.5l-.4-.3A8.916,8.916,0,0,1,41.952,10.988Zm11.986,1v-1a1,1,0,1,1,1,1Zm2,23.973V49.943H45.948V36.425a2.389,2.389,0,0,1,1.412-.465Zm-13.393,0a2.374,2.374,0,0,1,1.406.466V49.943H37.957v-2h4v-2h-4v-2h4v-2H39.369l1-1-.707-.706c-.094-.094-.179-.194-.266-.293h2.557v-2h-3.7a5.827,5.827,0,0,1-.3-1.826v-.172ZM4,27.968h.049A3.2,3.2,0,0,0,6.3,22.524l-.035-.035L10.5,18.251l.043.044a3.2,3.2,0,0,0,5.436-2.251v-.062h5.993v.062a3.195,3.195,0,0,0,5.444,2.243l.035-.035,4.238,4.238-.035.035a3.194,3.194,0,0,0,2.254,5.443l.033,2H27.909a8.986,8.986,0,0,0-17.862,0H4Zm19.876,2a4.994,4.994,0,0,0-9.787,0H12.066a6.983,6.983,0,0,1,13.824,0H23.872Zm-2.081,0H16.167a2.978,2.978,0,0,1,5.625,0ZM2,35.256V31.964H15.982v4.022a4.5,4.5,0,0,0-.057,8.929,8.08,8.08,0,0,1-4.846,6.472l-.085.036c-.043-.03-.08-.065-.124-.094l-.422-.281A18.945,18.945,0,0,1,2,35.256ZM30.965,55.936H17.98v2h4v2H13.984V57.146a6.961,6.961,0,0,0-1.464-4.263,10.054,10.054,0,0,0,5.46-8.933v-1h-1.5a2.5,2.5,0,1,1,0-4.994h1.5V31.964h17.98v4.167a7.762,7.762,0,0,0,1.628,4.779l-1.628,1.628v5.408h-4a2,2,0,0,1-2-2h-2a4,4,0,0,0,4,4h4v1A5,5,0,0,1,30.965,55.936Zm28.967-2h-11.4l-.878.878a3.918,3.918,0,0,1-5.408,0l-.878-.878H37.273a6.93,6.93,0,0,0,.6-2H55.936a2,2,0,0,0,2-2V37.957h2Z" transform="translate(0)"/>
        <path id="Trazado_722901" data-name="Trazado 722901" d="M48,38h5.993v2H48Z" transform="translate(-0.054 -0.043)"/>
        <path id="Trazado_722902" data-name="Trazado 722902" d="M48,42h5.993v2H48Z" transform="translate(-0.054 -0.048)"/>
        <path id="Trazado_722903" data-name="Trazado 722903" d="M48,46h2v2H48Z" transform="translate(-0.054 -0.052)"/>
        <path id="Trazado_722904" data-name="Trazado 722904" d="M52,46h2v2H52Z" transform="translate(-0.059 -0.052)"/>
      </g>
    </g>
  </g>
</svg>
