<svg xmlns="http://www.w3.org/2000/svg" width="210" height="165" viewBox="0 0 210 165">
  <g id="Grupo_969869" data-name="Grupo 969869" transform="translate(-1105 -870)">
    <rect id="Rectángulo_341179" data-name="Rectángulo 341179" width="210" height="165" rx="12" transform="translate(1105 870)" fill="#fff5e5"/>
    <g id="votacion" transform="translate(1160.183 892.305)">
      <path id="Trazado_726439" data-name="Trazado 726439" d="M96.5,120.645H15.2a6.9,6.9,0,0,1-6.9-6.9V14.7a6.9,6.9,0,0,1,6.9-6.9H96.5a6.9,6.9,0,0,1,6.9,6.9v99.05A6.9,6.9,0,0,1,96.5,120.645Zm0,0" transform="translate(-6.031 -6.031)" fill="#eff2fa"/>
      <path id="Trazado_726440" data-name="Trazado 726440" d="M81.071,69.858a11.69,11.69,0,1,1-11.69-11.69A11.69,11.69,0,0,1,81.071,69.858Zm0,0" transform="translate(-44.191 -44.945)" fill="#c7cfe2"/>
      <path id="Trazado_726441" data-name="Trazado 726441" d="M81.071,216.385A11.69,11.69,0,1,1,69.381,204.7,11.69,11.69,0,0,1,81.071,216.385Zm0,0" transform="translate(-44.191 -158.163)" fill="#feb12e"/>
      <path id="Trazado_726442" data-name="Trazado 726442" d="M81.071,362.912a11.69,11.69,0,1,1-11.69-11.689A11.69,11.69,0,0,1,81.071,362.912Zm0,0" transform="translate(-44.191 -271.382)" fill="#c7cfe2"/>
      <path id="Trazado_726443" data-name="Trazado 726443" d="M151.891,0H82.133a1.774,1.774,0,0,0,0,3.548h69.758a5.406,5.406,0,0,1,5.4,5.4V93.58a1.774,1.774,0,0,0,3.548,0V8.949A8.96,8.96,0,0,0,151.891,0Zm0,0" transform="translate(-61.706)"/>
      <path id="Trazado_726444" data-name="Trazado 726444" d="M97.36,99.257a1.774,1.774,0,0,0-1.774,1.774v6.41a5.407,5.407,0,0,1-5.4,5.4H9.448a5.408,5.408,0,0,1-5.4-5.4V8.949a5.407,5.407,0,0,1,5.4-5.4H12.8A1.774,1.774,0,1,0,12.8,0H9.448A8.959,8.959,0,0,0,.5,8.949v98.492a8.959,8.959,0,0,0,8.948,8.948H90.185a8.958,8.958,0,0,0,8.948-8.948v-6.41A1.773,1.773,0,0,0,97.36,99.257Zm0,0"/>
      <path id="Trazado_726445" data-name="Trazado 726445" d="M63.35,50.363A13.464,13.464,0,1,0,76.815,63.827,13.479,13.479,0,0,0,63.35,50.363Zm0,23.38a9.916,9.916,0,1,1,9.916-9.915A9.927,9.927,0,0,1,63.35,73.743Zm0,0" transform="translate(-38.16 -38.915)"/>
      <path id="Trazado_726446" data-name="Trazado 726446" d="M198.7,68.466h38.67a1.774,1.774,0,0,0,0-3.548H198.7a1.774,1.774,0,0,0,0,3.548Zm0,0" transform="translate(-151.774 -50.161)"/>
      <path id="Trazado_726447" data-name="Trazado 726447" d="M198.7,105.334H226.69a1.774,1.774,0,0,0,0-3.548H198.7a1.774,1.774,0,0,0,0,3.548Zm0,0" transform="translate(-151.774 -78.647)"/>
      <path id="Trazado_726448" data-name="Trazado 726448" d="M198.7,142.2h33.755a1.774,1.774,0,0,0,0-3.548H198.7a1.774,1.774,0,0,0,0,3.548Zm0,0" transform="translate(-151.774 -107.137)"/>
      <path id="Trazado_726449" data-name="Trazado 726449" d="M198.7,214.994h38.67a1.774,1.774,0,0,0,0-3.548H198.7a1.774,1.774,0,0,0,0,3.548Zm0,0" transform="translate(-151.774 -163.379)"/>
      <path id="Trazado_726450" data-name="Trazado 726450" d="M198.7,251.861H226.69a1.774,1.774,0,0,0,0-3.548H198.7a1.774,1.774,0,0,0,0,3.548Zm0,0" transform="translate(-151.774 -191.865)"/>
      <path id="Trazado_726451" data-name="Trazado 726451" d="M198.7,288.732h33.755a1.774,1.774,0,0,0,0-3.548H198.7a1.774,1.774,0,0,0,0,3.548Zm0,0" transform="translate(-151.774 -220.355)"/>
      <path id="Trazado_726452" data-name="Trazado 726452" d="M63.35,343.418a13.464,13.464,0,1,0,13.464,13.464A13.479,13.479,0,0,0,63.35,343.418Zm0,23.38a9.916,9.916,0,1,1,9.916-9.916A9.927,9.927,0,0,1,63.35,366.8Zm0,0" transform="translate(-38.16 -265.351)"/>
      <path id="Trazado_726453" data-name="Trazado 726453" d="M198.7,361.521h38.67a1.774,1.774,0,0,0,0-3.548H198.7a1.774,1.774,0,0,0,0,3.548Zm0,0" transform="translate(-151.774 -276.597)"/>
      <path id="Trazado_726454" data-name="Trazado 726454" d="M198.7,398.391H226.69a1.774,1.774,0,1,0,0-3.547H198.7a1.774,1.774,0,0,0,0,3.547Zm0,0" transform="translate(-151.774 -305.087)"/>
      <path id="Trazado_726455" data-name="Trazado 726455" d="M198.7,435.259h33.755a1.774,1.774,0,0,0,0-3.548H198.7a1.774,1.774,0,0,0,0,3.548Zm0,0" transform="translate(-151.774 -333.573)"/>
      <path id="Trazado_726456" data-name="Trazado 726456" d="M60.907,205.333a1.774,1.774,0,1,0-2.509,2.509l4.376,4.376a1.775,1.775,0,0,0,2.509,0l9.153-9.153.026-.026,6.077-6.077a1.774,1.774,0,0,0-2.509-2.509l-4.641,4.641a13.466,13.466,0,1,0,3.426,8.976,1.774,1.774,0,1,0-3.548,0,9.921,9.921,0,1,1-2.395-6.459l-6.844,6.845Zm0,0" transform="translate(-38.16 -149.848)"/>
    </g>
  </g>
</svg>
