<svg xmlns="http://www.w3.org/2000/svg" xmlns:xlink="http://www.w3.org/1999/xlink" width="210" height="165" viewBox="0 0 210 165">
  <defs>
    <clipPath id="clip-path">
      <path id="path4434" d="M0-682.665H105.893v105.893H0Z" transform="translate(0 682.665)"/>
    </clipPath>
  </defs>
  <g id="Grupo_969870" data-name="Grupo 969870" transform="translate(-1105 -1091)">
    <rect id="Rectángulo_341180" data-name="Rectángulo 341180" width="210" height="165" rx="12" transform="translate(1105 1091)" fill="#d3ede5"/>
    <g id="g4428" transform="translate(1157.053 1803.218)">
      <g id="g4430" transform="translate(0 -682.665)">
        <g id="g4432" clip-path="url(#clip-path)">
          <g id="g4438" transform="translate(57.892 1.811)">
            <path id="path4440" d="M-239.214-251.575H-257.4a2.065,2.065,0,0,1-2.017-1.617A29.26,29.26,0,0,0-266.6-266.77q-.661-.717-1.375-1.384a29.6,29.6,0,0,0-13.559-7.309,2.066,2.066,0,0,1-1.6-2.012l0-18.219a2.073,2.073,0,0,1,2.372-2.048,51.062,51.062,0,0,1,10.322,2.594,51.532,51.532,0,0,1,30.74,30.91,50.95,50.95,0,0,1,2.529,10.3,2.071,2.071,0,0,1-2.048,2.362" transform="translate(283.133 297.763)" fill="#98d5b9"/>
          </g>
          <g id="g4442" transform="translate(2.015 1.811)">
            <path id="path4444" d="M-250.466-11.268v18.2a2.066,2.066,0,0,1-1.607,2.014,29.265,29.265,0,0,0-13.3,7.022q-.993.909-1.9,1.911a29.285,29.285,0,0,0-6.906,13.348,2.067,2.067,0,0,1-2.019,1.621h-18.182a2.071,2.071,0,0,1-2.048-2.364,50.942,50.942,0,0,1,2.529-10.3,51.533,51.533,0,0,1,30.74-30.91,51.061,51.061,0,0,1,10.322-2.594,2.073,2.073,0,0,1,2.372,2.048" transform="translate(296.45 13.337)" fill="#0e494d"/>
          </g>
          <g id="g4446" transform="translate(57.892 57.894)">
            <path id="path4448" d="M-250.366-12.865a50.963,50.963,0,0,1-2.529,10.3,51.533,51.533,0,0,1-30.74,30.91,51.059,51.059,0,0,1-10.323,2.594,2.073,2.073,0,0,1-2.372-2.048l0-18.219a2.066,2.066,0,0,1,1.6-2.012,29.6,29.6,0,0,0,13.559-7.309q.714-.667,1.375-1.384a29.257,29.257,0,0,0,7.179-13.578,2.065,2.065,0,0,1,2.016-1.617h18.188a2.071,2.071,0,0,1,2.048,2.362" transform="translate(296.333 15.227)" fill="#feb12e"/>
          </g>
          <g id="g4450" transform="translate(2.015 57.894)">
            <path id="path4452" d="M-250.466-141.163v18.2a2.073,2.073,0,0,1-2.372,2.048,51.062,51.062,0,0,1-10.322-2.594,51.533,51.533,0,0,1-30.74-30.91,50.964,50.964,0,0,1-2.529-10.3,2.071,2.071,0,0,1,2.048-2.362H-276.2a2.065,2.065,0,0,1,2.019,1.621,29.285,29.285,0,0,0,6.906,13.348q.906,1,1.9,1.911a29.265,29.265,0,0,0,13.3,7.022,2.066,2.066,0,0,1,1.607,2.014" transform="translate(296.45 167.08)" fill="#badc61"/>
          </g>
          <g id="g4454" transform="translate(70.274 70.274)">
            <path id="path4456" d="M-169.144-1.543a51.532,51.532,0,0,1-30.74,30.91,11.845,11.845,0,0,1-.314-2.711V9.964a11.741,11.741,0,0,1,2.777-7.592A11.92,11.92,0,0,1-196.045.988a11.748,11.748,0,0,1,7.638-2.815h16.691a11.732,11.732,0,0,1,2.573.283" transform="translate(200.198 1.827)" fill="#feb12e"/>
          </g>
          <g id="g4458" transform="translate(76.48 76.48)">
            <path id="path4460" d="M-121.331-151.759H-138.02a5.586,5.586,0,0,1-5.586-5.586v-16.689a5.586,5.586,0,0,1,5.586-5.586h16.689a5.586,5.586,0,0,1,5.586,5.586v16.689a5.586,5.586,0,0,1-5.586,5.586" transform="translate(143.606 179.621)" fill="#fff"/>
          </g>
          <g id="g4462" transform="translate(83.665 82.066)">
            <path id="path4464" d="M-73.485-36.743A6.746,6.746,0,0,1-80.231-30a6.746,6.746,0,0,1-6.746-6.746,6.746,6.746,0,0,1,6.746-6.746,6.746,6.746,0,0,1,6.746,6.746" transform="translate(86.977 43.489)" fill="#ffcebf"/>
          </g>
          <g id="g4466" transform="translate(80.535 95.558)">
            <path id="path4468" d="M-8.342-47.844H8.348a5.578,5.578,0,0,0,1.532-.214A9.977,9.977,0,0,0,0-56.628a9.977,9.977,0,0,0-9.876,8.569,5.576,5.576,0,0,0,1.532.214" transform="translate(9.873 56.628)" fill="#8ac9fe"/>
          </g>
          <g id="g4470" transform="translate(4.565 70.274)">
            <path id="path4472" d="M-169.144-64.222v16.691a11.835,11.835,0,0,1-.314,2.711A51.532,51.532,0,0,1-200.2-75.73a11.731,11.731,0,0,1,2.573-.283h16.691a11.727,11.727,0,0,1,7.361,2.589,11.771,11.771,0,0,1,1.9,1.911,11.732,11.732,0,0,1,2.531,7.29" transform="translate(200.198 76.013)" fill="#badc61"/>
          </g>
          <g id="g4474" transform="translate(1.551 76.48)">
            <path id="path4476" d="M-121.331-151.759H-138.02a5.586,5.586,0,0,1-5.586-5.586v-16.689a5.586,5.586,0,0,1,5.586-5.586h16.689a5.586,5.586,0,0,1,5.586,5.586v16.689a5.586,5.586,0,0,1-5.586,5.586" transform="translate(143.606 179.621)" fill="#fff"/>
          </g>
          <g id="g4478" transform="translate(8.737 82.066)">
            <path id="path4480" d="M-73.485-36.743A6.746,6.746,0,0,1-80.231-30a6.746,6.746,0,0,1-6.746-6.746,6.746,6.746,0,0,1,6.746-6.746,6.746,6.746,0,0,1,6.746,6.746" transform="translate(86.977 43.489)" fill="#ffcebf"/>
          </g>
          <g id="g4482" transform="translate(5.606 95.558)">
            <path id="path4484" d="M-8.342-47.844H8.348a5.578,5.578,0,0,0,1.532-.214A9.977,9.977,0,0,0,0-56.628a9.977,9.977,0,0,0-9.876,8.569,5.576,5.576,0,0,0,1.532.214" transform="translate(9.873 56.628)" fill="#8ac9fe"/>
          </g>
          <g id="g4486" transform="translate(70.274 4.426)">
            <path id="path4488" d="M-169.144-168.357a11.732,11.732,0,0,1-2.573.283h-16.691a11.748,11.748,0,0,1-7.638-2.815,11.92,11.92,0,0,1-1.375-1.384,11.741,11.741,0,0,1-2.777-7.592v-16.691a11.845,11.845,0,0,1,.314-2.711,51.532,51.532,0,0,1,30.74,30.91" transform="translate(200.198 199.266)" fill="#57be92"/>
          </g>
          <g id="g4490" transform="translate(76.48 1.551)">
            <path id="path4492" d="M-121.331-151.759H-138.02a5.586,5.586,0,0,1-5.586-5.586v-16.689a5.586,5.586,0,0,1,5.586-5.586h16.689a5.586,5.586,0,0,1,5.586,5.586v16.689a5.586,5.586,0,0,1-5.586,5.586" transform="translate(143.606 179.621)" fill="#fff"/>
          </g>
          <g id="g4494" transform="translate(83.665 7.138)">
            <path id="path4496" d="M-73.485-36.743A6.746,6.746,0,0,1-80.231-30a6.746,6.746,0,0,1-6.746-6.746,6.746,6.746,0,0,1,6.746-6.746,6.746,6.746,0,0,1,6.746,6.746" transform="translate(86.977 43.489)" fill="#ffcebf"/>
          </g>
          <g id="g4498" transform="translate(80.535 20.629)">
            <path id="path4500" d="M-8.342-47.844H8.348a5.586,5.586,0,0,0,1.532-.214A9.977,9.977,0,0,0,0-56.628a9.977,9.977,0,0,0-9.876,8.569,5.584,5.584,0,0,0,1.532.214" transform="translate(9.873 56.628)" fill="#8ac9fe"/>
          </g>
          <g id="g4502" transform="translate(4.565 4.426)">
            <path id="path4504" d="M-169.144-14.769V1.922a11.732,11.732,0,0,1-2.531,7.29,11.77,11.77,0,0,1-1.9,1.911,11.726,11.726,0,0,1-7.361,2.589h-16.691a11.731,11.731,0,0,1-2.573-.283,51.532,51.532,0,0,1,30.74-30.91,11.835,11.835,0,0,1,.314,2.711" transform="translate(200.198 17.48)" fill="#0e494d"/>
          </g>
          <g id="g4506" transform="translate(1.551 1.551)">
            <path id="path4508" d="M-121.331-151.759H-138.02a5.586,5.586,0,0,1-5.586-5.586v-16.689a5.586,5.586,0,0,1,5.586-5.586h16.689a5.586,5.586,0,0,1,5.586,5.586v16.689a5.586,5.586,0,0,1-5.586,5.586" transform="translate(143.606 179.621)" fill="#edf2f7"/>
          </g>
          <g id="g4510" transform="translate(8.737 7.138)">
            <path id="path4512" d="M-73.485-36.743A6.746,6.746,0,0,1-80.231-30a6.746,6.746,0,0,1-6.746-6.746,6.746,6.746,0,0,1,6.746-6.746,6.746,6.746,0,0,1,6.746,6.746" transform="translate(86.977 43.489)" fill="#ffcebf"/>
          </g>
          <g id="g4514" transform="translate(5.606 20.629)">
            <path id="path4516" d="M-8.342-47.844H8.348a5.586,5.586,0,0,0,1.532-.214A9.977,9.977,0,0,0,0-56.628a9.977,9.977,0,0,0-9.876,8.569,5.584,5.584,0,0,0,1.532.214" transform="translate(9.873 56.628)" fill="#8ac9fe"/>
          </g>
          <g id="g4518" transform="translate(47.44 39.097)">
            <path id="path4520" d="M-61.985,0l-11.38,27.117" transform="translate(73.365)" fill="none" stroke="#000" stroke-linecap="round" stroke-linejoin="round" stroke-miterlimit="10" stroke-width="2.2"/>
          </g>
          <g id="g4522" transform="translate(40.233 37.833)">
            <path id="path4524" d="M-54.778-31.827c0,3.227-2.251,5.843-5.028,5.843s-5.029-2.616-5.029-5.843,2.251-5.843,5.029-5.843S-54.778-35.054-54.778-31.827Z" transform="translate(64.835 37.671)" fill="none" stroke="#000" stroke-linecap="round" stroke-linejoin="round" stroke-miterlimit="10" stroke-width="2.2"/>
          </g>
          <g id="g4526" transform="translate(55.603 56.373)">
            <path id="path4528" d="M-54.778-31.826c0,3.227-2.251,5.843-5.028,5.843s-5.028-2.616-5.028-5.843,2.251-5.843,5.028-5.843S-54.778-35.053-54.778-31.826Z" transform="translate(64.835 37.669)" fill="none" stroke="#000" stroke-linecap="round" stroke-linejoin="round" stroke-miterlimit="10" stroke-width="2.2"/>
          </g>
          <g id="g4530" transform="translate(57.892 1.809)">
            <path id="path4532" d="M-236.6-182.606a51.06,51.06,0,0,1,2.532,10.326,2.066,2.066,0,0,1-2.051,2.339h-18.188a2.066,2.066,0,0,1-2.017-1.617,29.656,29.656,0,0,0-22.116-22.27,2.066,2.066,0,0,1-1.6-2.013l0-18.22a2.066,2.066,0,0,1,2.348-2.05,51.04,51.04,0,0,1,16.241,5.179" transform="translate(280.038 216.131)" fill="none" stroke="#000" stroke-linecap="round" stroke-linejoin="round" stroke-miterlimit="10" stroke-width="2.2"/>
          </g>
          <g id="g4534" transform="translate(2.012 1.809)">
            <path id="path4536" d="M-149.233-28.334a51.016,51.016,0,0,1,16.241-5.181,2.066,2.066,0,0,1,2.348,2.05v18.2a2.066,2.066,0,0,1-1.605,2.014,29.451,29.451,0,0,0-22.111,22.281,2.066,2.066,0,0,1-2.018,1.622h-18.183a2.066,2.066,0,0,1-2.051-2.339,51.044,51.044,0,0,1,5.092-16.247c.025-.052.052-.1.079-.155" transform="translate(176.632 33.536)" fill="none" stroke="#000" stroke-linecap="round" stroke-linejoin="round" stroke-miterlimit="10" stroke-width="2.2"/>
          </g>
          <g id="g4538" transform="translate(57.892 57.894)">
            <path id="path4540" d="M-222.642-101.262a.008.008,0,0,0,0-.006,50.989,50.989,0,0,0,5.092-16.247,2.066,2.066,0,0,0-2.051-2.339h-18.188a2.066,2.066,0,0,0-2.017,1.617,29.656,29.656,0,0,1-22.115,22.27,2.066,2.066,0,0,0-1.6,2.013l0,18.22a2.066,2.066,0,0,0,2.348,2.05,51.037,51.037,0,0,0,16.241-5.179" transform="translate(263.518 119.853)" fill="none" stroke="#000" stroke-linecap="round" stroke-linejoin="round" stroke-miterlimit="10" stroke-width="2.2"/>
          </g>
          <g id="g4542" transform="translate(1.764 57.894)">
            <path id="path4544" d="M-16.564-72.579A51.108,51.108,0,0,1-19.605-85.9H2.6A29.437,29.437,0,0,0,25.024-62a2.066,2.066,0,0,1,1.606,2.014v18.2a2.066,2.066,0,0,1-2.348,2.05A51.046,51.046,0,0,1,8.044-44.913" transform="translate(19.605 85.904)" fill="none" stroke="#000" stroke-linecap="round" stroke-linejoin="round" stroke-miterlimit="10" stroke-width="2.2"/>
          </g>
          <g id="g4546" transform="translate(76.48 76.48)">
            <path id="path4548" d="M-121.331-151.759H-138.02a5.586,5.586,0,0,1-5.586-5.586v-16.689a5.586,5.586,0,0,1,5.586-5.586h16.689a5.586,5.586,0,0,1,5.586,5.586v16.689A5.586,5.586,0,0,1-121.331-151.759Z" transform="translate(143.606 179.621)" fill="none" stroke="#000" stroke-linecap="round" stroke-linejoin="round" stroke-miterlimit="10" stroke-width="2.2"/>
          </g>
          <g id="g4550" transform="translate(83.665 82.066)">
            <path id="path4552" d="M-73.485-36.743A6.746,6.746,0,0,1-80.231-30a6.746,6.746,0,0,1-6.746-6.746,6.746,6.746,0,0,1,6.746-6.746A6.746,6.746,0,0,1-73.485-36.743Z" transform="translate(86.977 43.489)" fill="none" stroke="#000" stroke-linecap="round" stroke-linejoin="round" stroke-miterlimit="10" stroke-width="2.2"/>
          </g>
          <g id="g4554" transform="translate(80.534 95.558)">
            <path id="path4556" d="M-107.587-46.677a9.978,9.978,0,0,0-9.876-8.57,9.978,9.978,0,0,0-9.876,8.57" transform="translate(127.34 55.247)" fill="none" stroke="#000" stroke-linecap="round" stroke-linejoin="round" stroke-miterlimit="10" stroke-width="2.2"/>
          </g>
          <g id="g4558" transform="translate(1.551 76.48)">
            <path id="path4560" d="M-121.331-151.759H-138.02a5.586,5.586,0,0,1-5.586-5.586v-16.689a5.586,5.586,0,0,1,5.586-5.586h16.689a5.586,5.586,0,0,1,5.586,5.586v16.689A5.586,5.586,0,0,1-121.331-151.759Z" transform="translate(143.606 179.621)" fill="none" stroke="#000" stroke-linecap="round" stroke-linejoin="round" stroke-miterlimit="10" stroke-width="2.2"/>
          </g>
          <g id="g4562" transform="translate(8.737 82.066)">
            <path id="path4564" d="M-73.485-36.743A6.746,6.746,0,0,1-80.231-30a6.746,6.746,0,0,1-6.746-6.746,6.746,6.746,0,0,1,6.746-6.746A6.746,6.746,0,0,1-73.485-36.743Z" transform="translate(86.977 43.489)" fill="none" stroke="#000" stroke-linecap="round" stroke-linejoin="round" stroke-miterlimit="10" stroke-width="2.2"/>
          </g>
          <g id="g4566" transform="translate(5.606 95.558)">
            <path id="path4568" d="M-8.342-47.844H8.348a5.578,5.578,0,0,0,1.532-.214A9.977,9.977,0,0,0,0-56.628a9.977,9.977,0,0,0-9.876,8.569A5.576,5.576,0,0,0-8.342-47.844Z" transform="translate(9.873 56.628)" fill="none" stroke="#000" stroke-linecap="round" stroke-linejoin="round" stroke-miterlimit="10" stroke-width="2.2"/>
          </g>
          <g id="g4570" transform="translate(76.48 1.551)">
            <path id="path4572" d="M-121.331-151.759H-138.02a5.586,5.586,0,0,1-5.586-5.586v-16.689a5.586,5.586,0,0,1,5.586-5.586h16.689a5.586,5.586,0,0,1,5.586,5.586v16.689A5.586,5.586,0,0,1-121.331-151.759Z" transform="translate(143.606 179.621)" fill="none" stroke="#000" stroke-linecap="round" stroke-linejoin="round" stroke-miterlimit="10" stroke-width="2.2"/>
          </g>
          <g id="g4574" transform="translate(83.665 7.138)">
            <path id="path4576" d="M-73.485-36.743A6.746,6.746,0,0,1-80.231-30a6.746,6.746,0,0,1-6.746-6.746,6.746,6.746,0,0,1,6.746-6.746A6.746,6.746,0,0,1-73.485-36.743Z" transform="translate(86.977 43.489)" fill="none" stroke="#000" stroke-linecap="round" stroke-linejoin="round" stroke-miterlimit="10" stroke-width="2.2"/>
          </g>
          <g id="g4578" transform="translate(80.534 20.629)">
            <path id="path4580" d="M-107.587-46.677a9.978,9.978,0,0,0-9.876-8.57,9.978,9.978,0,0,0-9.876,8.57" transform="translate(127.34 55.247)" fill="none" stroke="#000" stroke-linecap="round" stroke-linejoin="round" stroke-miterlimit="10" stroke-width="2.2"/>
          </g>
          <g id="g4582" transform="translate(1.551 1.551)">
            <path id="path4584" d="M-121.331-151.759H-138.02a5.586,5.586,0,0,1-5.586-5.586v-16.689a5.586,5.586,0,0,1,5.586-5.586h16.689a5.586,5.586,0,0,1,5.586,5.586v16.689A5.586,5.586,0,0,1-121.331-151.759Z" transform="translate(143.606 179.621)" fill="none" stroke="#000" stroke-linecap="round" stroke-linejoin="round" stroke-miterlimit="10" stroke-width="2.2"/>
          </g>
          <g id="g4586" transform="translate(8.737 7.138)">
            <path id="path4588" d="M-73.485-36.743A6.746,6.746,0,0,1-80.231-30a6.746,6.746,0,0,1-6.746-6.746,6.746,6.746,0,0,1,6.746-6.746A6.746,6.746,0,0,1-73.485-36.743Z" transform="translate(86.977 43.489)" fill="none" stroke="#000" stroke-linecap="round" stroke-linejoin="round" stroke-miterlimit="10" stroke-width="2.2"/>
          </g>
          <g id="g4590" transform="translate(5.606 20.629)">
            <path id="path4592" d="M-107.587-46.677a9.978,9.978,0,0,0-9.876-8.57,9.978,9.978,0,0,0-9.876,8.57" transform="translate(127.34 55.247)" fill="none" stroke="#000" stroke-linecap="round" stroke-linejoin="round" stroke-miterlimit="10" stroke-width="2.2"/>
          </g>
        </g>
      </g>
    </g>
  </g>
</svg>
